<svg width="200" height="45" viewBox="0 0 200 45" fill="none" xmlns="http://www.w3.org/2000/svg">
<g clip-path="url(#clip0_6161_1245)">
<path d="M28.1325 0.09375C23.3556 0.09375 19.4932 3.69774 19.4932 8.15374C19.4932 9.53115 19.9419 11.0534 20.6349 12.5899C20.9302 13.2487 21.271 13.9105 21.6402 14.5608C22.4695 16.0178 23.4408 17.4264 24.378 18.6675C26.3348 21.2633 28.1325 23.1207 28.1325 23.1207C28.1325 23.1207 30.1773 21.0077 32.279 18.1421C32.8583 17.3526 33.4405 16.5063 33.9858 15.6287C34.409 14.9528 34.8094 14.257 35.1673 13.5555C36.1158 11.7009 36.7719 9.818 36.7719 8.15374C36.7719 3.69774 32.9094 0.09375 28.1325 0.09375ZM28.1325 5.27396C29.8365 5.27396 31.2168 6.56333 31.2168 8.15374C31.2168 9.74132 29.8365 11.0307 28.1325 11.0307C26.4285 11.0307 25.0454 9.74132 25.0454 8.15374C25.0454 6.56333 26.4285 5.27396 28.1325 5.27396Z" fill="#F4F7F9"/>
<path d="M48.3401 26.3472C48.2748 25.9922 47.8544 25.4526 47.5647 25.4299C46.2669 25.3305 44.9576 25.3845 43.6938 25.3845C42.9383 29.9569 42.8929 30.0961 41.7711 31.2321C40.3113 30.221 38.8033 29.2526 37.3833 28.1677C36.0058 27.1169 34.9579 25.7906 34.583 24.0354C34.1229 21.8799 35.5514 19.3352 38.2693 18.2986C39.766 17.7249 40.3113 19.5652 41.2429 20.3633C41.6603 20.7183 41.8875 21.292 42.2511 21.7208C42.4413 21.948 42.7395 22.2178 43.0008 22.2292C44.2448 22.2832 45.4887 22.2519 46.815 22.2519C45.0826 18.2844 40.0444 15.0382 35.168 13.5558C34.8102 14.2572 34.4097 14.953 33.9866 15.629C33.4413 16.5065 32.8591 17.3529 32.2797 18.1424C30.1781 21.008 28.1333 23.121 28.1333 23.121C28.1333 23.121 26.3356 21.2636 24.3788 18.6678C23.4416 17.4267 22.4703 16.0181 21.641 14.5611C21.2718 13.9108 20.931 13.249 20.6356 12.5901C17.9717 12.5703 15.3077 12.5561 12.6438 12.5532C12.3768 12.5532 11.9537 12.7719 11.8656 12.9934C10.7069 15.8619 9.59361 18.7445 8.3866 21.8287C8.35252 21.9168 8.31843 22.0077 8.28151 22.0986C8.25879 22.1582 8.23891 22.215 8.21335 22.2746C6.14865 27.6451 2.42538 37.1422 0.437364 42.2826C0.278322 42.6916 0.176082 43.1233 0 43.7083C1.69266 43.7083 3.15243 43.7083 4.6122 43.7111C10.6217 43.7111 24.0465 43.2596 30.5899 43.1857C30.8285 43.1829 31.0585 43.1829 31.2772 43.1801H31.2999C37.4344 42.9642 44.5998 38.8973 47.1785 33.7569C48.3543 31.4167 48.8172 28.943 48.3401 26.3472ZM9.12784 33.9926C9.95997 31.1838 11.9451 24.6659 12.8369 21.664C12.8369 21.6612 12.8398 21.6555 12.8398 21.6527C12.9079 21.5163 12.9619 21.3601 13.0073 21.1784C13.4106 19.6022 13.9246 18.0515 14.4699 16.2339C16.333 17.6937 18.0484 18.9291 19.6303 20.3179C20.8287 21.3715 21.1838 22.8796 20.6243 24.3393C20.1869 25.4924 19.5593 26.7704 18.6277 27.5031C15.6429 29.8547 12.4762 31.9762 9.3806 34.1885C9.29824 34.1232 9.21304 34.0579 9.12784 33.9926ZM35.0828 36.452C33.0835 37.128 30.9847 37.4631 28.8745 37.5454L18.5965 37.9487H12.2604C12.7489 37.5085 12.996 37.2558 13.2743 37.0456C15.5321 35.3331 17.7842 33.6177 20.0591 31.9279C26.6991 26.9948 33.4725 29.3889 38.6073 34.7225C37.5253 35.4921 36.3296 36.0346 35.0828 36.452Z" fill="#0B83CF"/>
</g>
<path d="M66.1647 19.9023C66.0313 19.9023 65.9647 19.8357 65.9647 19.7023V6.10234C65.9647 5.96901 66.0313 5.90234 66.1647 5.90234H69.2447C70.2713 5.90234 71.0913 6.24234 71.7047 6.92234C72.318 7.58901 72.6247 8.48901 72.6247 9.62234V16.1823C72.6247 17.3157 72.318 18.2223 71.7047 18.9023C71.0913 19.569 70.2713 19.9023 69.2447 19.9023H66.1647ZM67.3847 18.5823C67.3847 18.6357 67.4113 18.6623 67.4647 18.6623L69.2247 18.6423C69.8113 18.6423 70.278 18.4157 70.6247 17.9623C70.9847 17.509 71.1713 16.8957 71.1847 16.1223V9.68234C71.1847 8.89568 71.0113 8.27568 70.6647 7.82234C70.318 7.36901 69.838 7.14234 69.2247 7.14234H67.4647C67.4113 7.14234 67.3847 7.16901 67.3847 7.22234V18.5823ZM77.8615 9.68234C78.1949 9.68234 78.4815 9.75568 78.7215 9.90234C78.8149 9.95568 78.8482 10.0423 78.8215 10.1623L78.5815 11.2023C78.5682 11.3223 78.4882 11.3623 78.3415 11.3223C78.1815 11.2423 77.9815 11.2023 77.7415 11.2023C77.6349 11.2023 77.5549 11.209 77.5015 11.2223C77.0215 11.249 76.6282 11.5023 76.3215 11.9823C76.0149 12.449 75.8615 13.0223 75.8615 13.7023V19.7023C75.8615 19.8357 75.7949 19.9023 75.6615 19.9023H74.6415C74.5082 19.9023 74.4415 19.8357 74.4415 19.7023V9.98234C74.4415 9.84901 74.5082 9.78234 74.6415 9.78234H75.6615C75.7949 9.78234 75.8615 9.84901 75.8615 9.98234V11.1823C75.8615 11.2223 75.8682 11.2423 75.8815 11.2423C75.9082 11.2423 75.9349 11.229 75.9615 11.2023C76.3482 10.189 76.9815 9.68234 77.8615 9.68234ZM82.5233 20.0623C81.5633 20.0623 80.7966 19.7823 80.2233 19.2223C79.6633 18.6623 79.3833 17.9223 79.3833 17.0023V12.7023C79.3833 11.7957 79.6699 11.0557 80.2433 10.4823C80.8166 9.90901 81.5766 9.62234 82.5233 9.62234C83.4833 9.62234 84.2499 9.90901 84.8233 10.4823C85.3966 11.0557 85.6833 11.7957 85.6833 12.7023V17.0023C85.6833 17.9223 85.3966 18.6623 84.8233 19.2223C84.2499 19.7823 83.4833 20.0623 82.5233 20.0623ZM82.5233 18.8023C83.0299 18.8023 83.4433 18.629 83.7633 18.2823C84.0966 17.9357 84.2633 17.4757 84.2633 16.9023V12.7823C84.2633 12.209 84.0966 11.749 83.7633 11.4023C83.4433 11.0423 83.0299 10.8623 82.5233 10.8623C82.0166 10.8623 81.6033 11.0423 81.2833 11.4023C80.9633 11.749 80.8033 12.209 80.8033 12.7823V16.9023C80.8033 17.4757 80.9633 17.9357 81.2833 18.2823C81.6033 18.629 82.0166 18.8023 82.5233 18.8023ZM90.904 9.64234C91.7174 9.64234 92.344 9.92234 92.784 10.4823C93.2374 11.0423 93.464 11.8223 93.464 12.8223V19.7023C93.464 19.8357 93.3974 19.9023 93.264 19.9023H92.244C92.1107 19.9023 92.044 19.8357 92.044 19.7023V12.9423C92.044 12.289 91.8974 11.7823 91.604 11.4223C91.324 11.0623 90.9307 10.8823 90.424 10.8823C89.8907 10.8823 89.4707 11.0757 89.164 11.4623C88.8707 11.849 88.724 12.3757 88.724 13.0423V19.7023C88.724 19.8357 88.6574 19.9023 88.524 19.9023H87.504C87.3707 19.9023 87.304 19.8357 87.304 19.7023V9.98234C87.304 9.84901 87.3707 9.78234 87.504 9.78234H88.524C88.6574 9.78234 88.724 9.84901 88.724 9.98234V10.6223C88.724 10.649 88.7374 10.669 88.764 10.6823C88.7907 10.6957 88.8107 10.6823 88.824 10.6423C89.064 10.309 89.364 10.0623 89.724 9.90234C90.0974 9.72901 90.4907 9.64234 90.904 9.64234ZM101.221 15.1823C101.221 15.3157 101.154 15.3823 101.021 15.3823H96.4606C96.4073 15.3823 96.3806 15.409 96.3806 15.4623V16.9223C96.3806 17.4823 96.5339 17.9423 96.8406 18.3023C97.1606 18.649 97.5739 18.8223 98.0806 18.8223C98.5073 18.8223 98.8673 18.6957 99.1606 18.4423C99.4673 18.1757 99.6673 17.8357 99.7606 17.4223C99.8006 17.3023 99.8739 17.2423 99.9806 17.2423L100.981 17.2823C101.034 17.2823 101.081 17.3023 101.121 17.3423C101.161 17.3823 101.174 17.4357 101.161 17.5023C101.054 18.289 100.727 18.9157 100.181 19.3823C99.6473 19.8357 98.9473 20.0623 98.0806 20.0623C97.1339 20.0623 96.3739 19.7823 95.8006 19.2223C95.2406 18.6623 94.9606 17.9223 94.9606 17.0023V12.6823C94.9606 11.7757 95.2406 11.0423 95.8006 10.4823C96.3739 9.90901 97.1339 9.62234 98.0806 9.62234C99.0406 9.62234 99.8006 9.90901 100.361 10.4823C100.934 11.0423 101.221 11.7757 101.221 12.6823V15.1823ZM98.0806 10.8623C97.5739 10.8623 97.1606 11.0423 96.8406 11.4023C96.5339 11.749 96.3806 12.209 96.3806 12.7823V14.1223C96.3806 14.1757 96.4073 14.2023 96.4606 14.2023H99.7406C99.7939 14.2023 99.8206 14.1757 99.8206 14.1223V12.7823C99.8206 12.209 99.6606 11.749 99.3406 11.4023C99.0206 11.0423 98.6006 10.8623 98.0806 10.8623ZM112.489 5.90234C112.622 5.90234 112.689 5.96901 112.689 6.10234V6.94234C112.689 7.07568 112.622 7.14234 112.489 7.14234H109.849C109.796 7.14234 109.769 7.16901 109.769 7.22234V19.7023C109.769 19.8357 109.702 19.9023 109.569 19.9023H108.549C108.416 19.9023 108.349 19.8357 108.349 19.7023V7.22234C108.349 7.16901 108.322 7.14234 108.269 7.14234H105.789C105.656 7.14234 105.589 7.07568 105.589 6.94234V6.10234C105.589 5.96901 105.656 5.90234 105.789 5.90234H112.489ZM116.516 9.62234C117.45 9.62234 118.196 9.92901 118.756 10.5423C119.316 11.1423 119.596 11.949 119.596 12.9623V19.7023C119.596 19.8357 119.53 19.9023 119.396 19.9023H118.376C118.243 19.9023 118.176 19.8357 118.176 19.7023V19.1023C118.176 19.0757 118.163 19.0623 118.136 19.0623C118.123 19.049 118.103 19.0557 118.076 19.0823C117.583 19.7357 116.843 20.0623 115.856 20.0623C115.123 20.0623 114.483 19.8557 113.936 19.4423C113.403 19.0157 113.136 18.269 113.136 17.2023C113.136 16.069 113.463 15.2423 114.116 14.7223C114.77 14.189 115.63 13.9223 116.696 13.9223H118.096C118.15 13.9223 118.176 13.8957 118.176 13.8423V13.0623C118.176 12.3957 118.023 11.8623 117.716 11.4623C117.41 11.0623 116.996 10.8623 116.476 10.8623C116.076 10.8623 115.73 10.9957 115.436 11.2623C115.156 11.529 114.99 11.869 114.936 12.2823C114.936 12.4157 114.87 12.4823 114.736 12.4823L113.616 12.4623C113.55 12.4623 113.496 12.4423 113.456 12.4023C113.43 12.3623 113.423 12.3157 113.436 12.2623C113.503 11.4757 113.823 10.8423 114.396 10.3623C114.97 9.86901 115.676 9.62234 116.516 9.62234ZM116.156 18.8223C116.703 18.8223 117.176 18.649 117.576 18.3023C117.976 17.9423 118.176 17.449 118.176 16.8223V15.1423C118.176 15.089 118.15 15.0623 118.096 15.0623H116.676C116.036 15.0623 115.53 15.2357 115.156 15.5823C114.783 15.9157 114.596 16.4157 114.596 17.0823C114.596 17.669 114.736 18.109 115.016 18.4023C115.31 18.6823 115.69 18.8223 116.156 18.8223ZM123.858 20.0023C122.938 20.0023 122.198 19.769 121.638 19.3023C121.091 18.8223 120.818 18.189 120.818 17.4023V17.2623C120.818 17.129 120.885 17.0623 121.018 17.0623H121.978C122.111 17.0623 122.178 17.129 122.178 17.2623V17.3823C122.178 17.809 122.331 18.169 122.638 18.4623C122.958 18.7557 123.371 18.9023 123.878 18.9023C124.358 18.9023 124.745 18.7557 125.038 18.4623C125.331 18.169 125.478 17.7957 125.478 17.3423C125.478 16.9957 125.385 16.709 125.198 16.4823C125.011 16.2423 124.791 16.0557 124.538 15.9223C124.298 15.789 123.931 15.6157 123.438 15.4023C122.918 15.189 122.485 14.9823 122.138 14.7823C121.805 14.569 121.511 14.2757 121.258 13.9023C121.018 13.5157 120.898 13.029 120.898 12.4423C120.898 11.589 121.158 10.9157 121.678 10.4223C122.211 9.92901 122.925 9.68234 123.818 9.68234C124.725 9.68234 125.445 9.93568 125.978 10.4423C126.511 10.949 126.778 11.6223 126.778 12.4623V12.5223C126.778 12.6557 126.711 12.7223 126.578 12.7223H125.658C125.525 12.7223 125.458 12.6557 125.458 12.5223V12.4023C125.458 11.949 125.305 11.5757 124.998 11.2823C124.705 10.989 124.318 10.8423 123.838 10.8423C123.358 10.8423 122.971 10.9957 122.678 11.3023C122.398 11.5957 122.258 11.9623 122.258 12.4023C122.258 12.7223 122.345 12.9957 122.518 13.2223C122.691 13.4357 122.905 13.6157 123.158 13.7623C123.411 13.8957 123.765 14.0623 124.218 14.2623C124.765 14.5023 125.211 14.729 125.558 14.9423C125.918 15.1557 126.231 15.4557 126.498 15.8423C126.765 16.229 126.898 16.709 126.898 17.2823C126.898 18.109 126.625 18.769 126.078 19.2623C125.531 19.7557 124.791 20.0023 123.858 20.0023ZM128.299 19.9023C128.165 19.9023 128.099 19.8357 128.099 19.7023V6.10234C128.099 5.96901 128.165 5.90234 128.299 5.90234H129.319C129.452 5.90234 129.519 5.96901 129.519 6.10234V14.1423C129.519 14.169 129.532 14.189 129.559 14.2023C129.585 14.2157 129.605 14.209 129.619 14.1823L132.619 9.90234C132.672 9.82234 132.752 9.78234 132.859 9.78234H133.899C133.979 9.78234 134.032 9.80901 134.059 9.86234C134.085 9.90234 134.072 9.95568 134.019 10.0223L132.039 12.8623C131.999 12.9023 131.992 12.9423 132.019 12.9823L134.379 19.6823L134.399 19.7623C134.399 19.8557 134.339 19.9023 134.219 19.9023H133.159C133.039 19.9023 132.959 19.849 132.919 19.7423L131.139 14.1823C131.125 14.1023 131.085 14.0957 131.019 14.1623L129.559 16.2423C129.532 16.269 129.519 16.3023 129.519 16.3423V19.7023C129.519 19.8357 129.452 19.9023 129.319 19.9023H128.299ZM136.464 7.94234C136.131 7.94234 135.857 7.83568 135.644 7.62234C135.444 7.40901 135.344 7.14234 135.344 6.82234C135.344 6.48901 135.444 6.22234 135.644 6.02234C135.857 5.80901 136.131 5.70234 136.464 5.70234C136.784 5.70234 137.044 5.80901 137.244 6.02234C137.457 6.22234 137.564 6.48901 137.564 6.82234C137.564 7.14234 137.457 7.40901 137.244 7.62234C137.044 7.83568 136.784 7.94234 136.464 7.94234ZM135.964 19.9023C135.831 19.9023 135.764 19.8357 135.764 19.7023V9.98234C135.764 9.84901 135.831 9.78234 135.964 9.78234H136.984C137.117 9.78234 137.184 9.84901 137.184 9.98234V19.7023C137.184 19.8357 137.117 19.9023 136.984 19.9023H135.964ZM142.764 9.64234C143.578 9.64234 144.204 9.92234 144.644 10.4823C145.098 11.0423 145.324 11.8223 145.324 12.8223V19.7023C145.324 19.8357 145.258 19.9023 145.124 19.9023H144.104C143.971 19.9023 143.904 19.8357 143.904 19.7023V12.9423C143.904 12.289 143.758 11.7823 143.464 11.4223C143.184 11.0623 142.791 10.8823 142.284 10.8823C141.751 10.8823 141.331 11.0757 141.024 11.4623C140.731 11.849 140.584 12.3757 140.584 13.0423V19.7023C140.584 19.8357 140.518 19.9023 140.384 19.9023H139.364C139.231 19.9023 139.164 19.8357 139.164 19.7023V9.98234C139.164 9.84901 139.231 9.78234 139.364 9.78234H140.384C140.518 9.78234 140.584 9.84901 140.584 9.98234V10.6223C140.584 10.649 140.598 10.669 140.624 10.6823C140.651 10.6957 140.671 10.6823 140.684 10.6423C140.924 10.309 141.224 10.0623 141.584 9.90234C141.958 9.72901 142.351 9.64234 142.764 9.64234ZM151.641 9.98234C151.641 9.84901 151.707 9.78234 151.841 9.78234H152.861C152.994 9.78234 153.061 9.84901 153.061 9.98234V19.7023C153.061 21.129 152.727 22.209 152.061 22.9423C151.407 23.689 150.307 24.029 148.761 23.9623C148.627 23.949 148.561 23.8757 148.561 23.7423V22.8823C148.561 22.749 148.627 22.6823 148.761 22.6823C149.827 22.709 150.574 22.4623 151.001 21.9423C151.427 21.4357 151.641 20.649 151.641 19.5823V18.9823C151.641 18.9557 151.627 18.9357 151.601 18.9223C151.587 18.909 151.567 18.9157 151.541 18.9423C151.314 19.2757 151.021 19.529 150.661 19.7023C150.314 19.8757 149.941 19.9623 149.541 19.9623C148.701 19.9623 148.034 19.6823 147.541 19.1223C147.061 18.5623 146.821 17.8223 146.821 16.9023V12.6823C146.821 11.749 147.061 11.009 147.541 10.4623C148.034 9.90234 148.701 9.62234 149.541 9.62234C149.941 9.62234 150.314 9.70901 150.661 9.88234C151.021 10.0423 151.314 10.289 151.541 10.6223C151.567 10.6623 151.587 10.6823 151.601 10.6823C151.627 10.669 151.641 10.6423 151.641 10.6023V9.98234ZM149.961 18.7223C150.454 18.7223 150.854 18.549 151.161 18.2023C151.481 17.8423 151.641 17.3823 151.641 16.8223V12.7823C151.641 12.209 151.481 11.749 151.161 11.4023C150.854 11.0423 150.454 10.8623 149.961 10.8623C149.454 10.8623 149.041 11.0423 148.721 11.4023C148.401 11.749 148.241 12.209 148.241 12.7823V16.8223C148.241 17.3823 148.401 17.8423 148.721 18.2023C149.041 18.549 149.454 18.7223 149.961 18.7223ZM72.0647 26.0423C72.1047 25.949 72.1847 25.9023 72.3047 25.9023H73.3447C73.478 25.9023 73.5447 25.969 73.5447 26.1023V39.7023C73.5447 39.8357 73.478 39.9023 73.3447 39.9023H72.3247C72.1913 39.9023 72.1247 39.8357 72.1247 39.7023V28.9823C72.1247 28.9423 72.1113 28.9223 72.0847 28.9223C72.0713 28.9223 72.0513 28.9357 72.0247 28.9623L69.9447 33.2823C69.9047 33.3757 69.838 33.4223 69.7447 33.4223C69.638 33.4223 69.5647 33.3757 69.5247 33.2823L67.4447 28.9823C67.418 28.9557 67.3913 28.9423 67.3647 28.9423C67.3513 28.9423 67.3447 28.9623 67.3447 29.0023V39.7023C67.3447 39.8357 67.278 39.9023 67.1447 39.9023H66.1247C65.9913 39.9023 65.9247 39.8357 65.9247 39.7023V26.1023C65.9247 25.969 65.9913 25.9023 66.1247 25.9023H67.1647C67.2847 25.9023 67.3647 25.949 67.4047 26.0423L69.6847 30.6623C69.698 30.689 69.718 30.7023 69.7447 30.7023C69.7713 30.7023 69.7913 30.689 69.8047 30.6623L72.0647 26.0423ZM78.5343 29.6223C79.4677 29.6223 80.2143 29.929 80.7743 30.5423C81.3343 31.1423 81.6143 31.949 81.6143 32.9623V39.7023C81.6143 39.8357 81.5477 39.9023 81.4143 39.9023H80.3943C80.261 39.9023 80.1943 39.8357 80.1943 39.7023V39.1023C80.1943 39.0757 80.181 39.0623 80.1543 39.0623C80.141 39.049 80.121 39.0557 80.0943 39.0823C79.601 39.7357 78.861 40.0623 77.8743 40.0623C77.141 40.0623 76.501 39.8557 75.9543 39.4423C75.421 39.0157 75.1543 38.269 75.1543 37.2023C75.1543 36.069 75.481 35.2423 76.1343 34.7223C76.7877 34.189 77.6477 33.9223 78.7143 33.9223H80.1143C80.1677 33.9223 80.1943 33.8957 80.1943 33.8423V33.0623C80.1943 32.3957 80.041 31.8623 79.7343 31.4623C79.4277 31.0623 79.0143 30.8623 78.4943 30.8623C78.0943 30.8623 77.7477 30.9957 77.4543 31.2623C77.1743 31.529 77.0077 31.869 76.9543 32.2823C76.9543 32.4157 76.8877 32.4823 76.7543 32.4823L75.6343 32.4623C75.5677 32.4623 75.5143 32.4423 75.4743 32.4023C75.4477 32.3623 75.441 32.3157 75.4543 32.2623C75.521 31.4757 75.841 30.8423 76.4143 30.3623C76.9877 29.869 77.6943 29.6223 78.5343 29.6223ZM78.1743 38.8223C78.721 38.8223 79.1943 38.649 79.5943 38.3023C79.9943 37.9423 80.1943 37.449 80.1943 36.8223V35.1423C80.1943 35.089 80.1677 35.0623 80.1143 35.0623H78.6943C78.0543 35.0623 77.5477 35.2357 77.1743 35.5823C76.801 35.9157 76.6143 36.4157 76.6143 37.0823C76.6143 37.669 76.7543 38.109 77.0343 38.4023C77.3277 38.6823 77.7077 38.8223 78.1743 38.8223ZM86.8361 29.6423C87.6494 29.6423 88.2761 29.9223 88.7161 30.4823C89.1694 31.0423 89.3961 31.8223 89.3961 32.8223V39.7023C89.3961 39.8357 89.3294 39.9023 89.1961 39.9023H88.1761C88.0427 39.9023 87.9761 39.8357 87.9761 39.7023V32.9423C87.9761 32.289 87.8294 31.7823 87.5361 31.4223C87.2561 31.0623 86.8627 30.8823 86.3561 30.8823C85.8227 30.8823 85.4027 31.0757 85.0961 31.4623C84.8027 31.849 84.6561 32.3757 84.6561 33.0423V39.7023C84.6561 39.8357 84.5894 39.9023 84.4561 39.9023H83.4361C83.3027 39.9023 83.2361 39.8357 83.2361 39.7023V29.9823C83.2361 29.849 83.3027 29.7823 83.4361 29.7823H84.4561C84.5894 29.7823 84.6561 29.849 84.6561 29.9823V30.6223C84.6561 30.649 84.6694 30.669 84.6961 30.6823C84.7227 30.6957 84.7427 30.6823 84.7561 30.6423C84.9961 30.309 85.2961 30.0623 85.6561 29.9023C86.0294 29.729 86.4227 29.6423 86.8361 29.6423ZM94.0726 29.6223C95.006 29.6223 95.7526 29.929 96.3126 30.5423C96.8726 31.1423 97.1526 31.949 97.1526 32.9623V39.7023C97.1526 39.8357 97.086 39.9023 96.9526 39.9023H95.9326C95.7993 39.9023 95.7326 39.8357 95.7326 39.7023V39.1023C95.7326 39.0757 95.7193 39.0623 95.6926 39.0623C95.6793 39.049 95.6593 39.0557 95.6326 39.0823C95.1393 39.7357 94.3993 40.0623 93.4126 40.0623C92.6793 40.0623 92.0393 39.8557 91.4926 39.4423C90.9593 39.0157 90.6926 38.269 90.6926 37.2023C90.6926 36.069 91.0193 35.2423 91.6726 34.7223C92.326 34.189 93.186 33.9223 94.2526 33.9223H95.6526C95.706 33.9223 95.7326 33.8957 95.7326 33.8423V33.0623C95.7326 32.3957 95.5793 31.8623 95.2726 31.4623C94.966 31.0623 94.5526 30.8623 94.0326 30.8623C93.6326 30.8623 93.286 30.9957 92.9926 31.2623C92.7126 31.529 92.546 31.869 92.4926 32.2823C92.4926 32.4157 92.426 32.4823 92.2926 32.4823L91.1726 32.4623C91.106 32.4623 91.0526 32.4423 91.0126 32.4023C90.986 32.3623 90.9793 32.3157 90.9926 32.2623C91.0593 31.4757 91.3793 30.8423 91.9526 30.3623C92.526 29.869 93.2326 29.6223 94.0726 29.6223ZM93.7126 38.8223C94.2593 38.8223 94.7326 38.649 95.1326 38.3023C95.5326 37.9423 95.7326 37.449 95.7326 36.8223V35.1423C95.7326 35.089 95.706 35.0623 95.6526 35.0623H94.2326C93.5926 35.0623 93.086 35.2357 92.7126 35.5823C92.3393 35.9157 92.1526 36.4157 92.1526 37.0823C92.1526 37.669 92.2926 38.109 92.5726 38.4023C92.866 38.6823 93.246 38.8223 93.7126 38.8223ZM103.374 29.9823C103.374 29.849 103.441 29.7823 103.574 29.7823H104.594C104.728 29.7823 104.794 29.849 104.794 29.9823V39.7023C104.794 41.129 104.461 42.209 103.794 42.9423C103.141 43.689 102.041 44.029 100.494 43.9623C100.361 43.949 100.294 43.8757 100.294 43.7423V42.8823C100.294 42.749 100.361 42.6823 100.494 42.6823C101.561 42.709 102.308 42.4623 102.734 41.9423C103.161 41.4357 103.374 40.649 103.374 39.5823V38.9823C103.374 38.9557 103.361 38.9357 103.334 38.9223C103.321 38.909 103.301 38.9157 103.274 38.9423C103.048 39.2757 102.754 39.529 102.394 39.7023C102.048 39.8757 101.674 39.9623 101.274 39.9623C100.434 39.9623 99.7677 39.6823 99.2743 39.1223C98.7943 38.5623 98.5543 37.8223 98.5543 36.9023V32.6823C98.5543 31.749 98.7943 31.009 99.2743 30.4623C99.7677 29.9023 100.434 29.6223 101.274 29.6223C101.674 29.6223 102.048 29.709 102.394 29.8823C102.754 30.0423 103.048 30.289 103.274 30.6223C103.301 30.6623 103.321 30.6823 103.334 30.6823C103.361 30.669 103.374 30.6423 103.374 30.6023V29.9823ZM101.694 38.7223C102.188 38.7223 102.588 38.549 102.894 38.2023C103.214 37.8423 103.374 37.3823 103.374 36.8223V32.7823C103.374 32.209 103.214 31.749 102.894 31.4023C102.588 31.0423 102.188 30.8623 101.694 30.8623C101.188 30.8623 100.774 31.0423 100.454 31.4023C100.134 31.749 99.9743 32.209 99.9743 32.7823V36.8223C99.9743 37.3823 100.134 37.8423 100.454 38.2023C100.774 38.549 101.188 38.7223 101.694 38.7223ZM112.476 35.1823C112.476 35.3157 112.409 35.3823 112.276 35.3823H107.716C107.663 35.3823 107.636 35.409 107.636 35.4623V36.9223C107.636 37.4823 107.789 37.9423 108.096 38.3023C108.416 38.649 108.829 38.8223 109.336 38.8223C109.763 38.8223 110.123 38.6957 110.416 38.4423C110.723 38.1757 110.923 37.8357 111.016 37.4223C111.056 37.3023 111.129 37.2423 111.236 37.2423L112.236 37.2823C112.289 37.2823 112.336 37.3023 112.376 37.3423C112.416 37.3823 112.429 37.4357 112.416 37.5023C112.309 38.289 111.983 38.9157 111.436 39.3823C110.903 39.8357 110.203 40.0623 109.336 40.0623C108.389 40.0623 107.629 39.7823 107.056 39.2223C106.496 38.6623 106.216 37.9223 106.216 37.0023V32.6823C106.216 31.7757 106.496 31.0423 107.056 30.4823C107.629 29.909 108.389 29.6223 109.336 29.6223C110.296 29.6223 111.056 29.909 111.616 30.4823C112.189 31.0423 112.476 31.7757 112.476 32.6823V35.1823ZM109.336 30.8623C108.829 30.8623 108.416 31.0423 108.096 31.4023C107.789 31.749 107.636 32.209 107.636 32.7823V34.1223C107.636 34.1757 107.663 34.2023 107.716 34.2023H110.996C111.049 34.2023 111.076 34.1757 111.076 34.1223V32.7823C111.076 32.209 110.916 31.749 110.596 31.4023C110.276 31.0423 109.856 30.8623 109.336 30.8623ZM117.401 29.6823C117.734 29.6823 118.021 29.7557 118.261 29.9023C118.354 29.9557 118.387 30.0423 118.361 30.1623L118.121 31.2023C118.107 31.3223 118.027 31.3623 117.881 31.3223C117.721 31.2423 117.521 31.2023 117.281 31.2023C117.174 31.2023 117.094 31.209 117.041 31.2223C116.561 31.249 116.167 31.5023 115.861 31.9823C115.554 32.449 115.401 33.0223 115.401 33.7023V39.7023C115.401 39.8357 115.334 39.9023 115.201 39.9023H114.181C114.047 39.9023 113.981 39.8357 113.981 39.7023V29.9823C113.981 29.849 114.047 29.7823 114.181 29.7823H115.201C115.334 29.7823 115.401 29.849 115.401 29.9823V31.1823C115.401 31.2223 115.407 31.2423 115.421 31.2423C115.447 31.2423 115.474 31.229 115.501 31.2023C115.887 30.189 116.521 29.6823 117.401 29.6823ZM123.344 41.9823C123.238 41.9823 123.158 41.9357 123.104 41.8423C122.584 40.829 122.158 39.5823 121.824 38.1023C121.504 36.609 121.344 35.0423 121.344 33.4023C121.344 31.7223 121.511 30.1223 121.844 28.6023C122.178 27.0823 122.611 25.809 123.144 24.7823C123.198 24.689 123.278 24.6423 123.384 24.6423H124.364C124.431 24.6423 124.478 24.669 124.504 24.7223C124.544 24.7623 124.551 24.809 124.524 24.8623C124.071 25.9157 123.698 27.1957 123.404 28.7023C123.111 30.209 122.964 31.769 122.964 33.3823C122.964 34.969 123.111 36.5023 123.404 37.9823C123.698 39.449 124.071 40.7023 124.524 41.7423L124.544 41.8223C124.544 41.929 124.484 41.9823 124.364 41.9823H123.344ZM126.878 39.9023C126.745 39.9023 126.678 39.8357 126.678 39.7023V26.1023C126.678 25.969 126.745 25.9023 126.878 25.9023H129.958C130.985 25.9023 131.805 26.2423 132.418 26.9223C133.031 27.589 133.338 28.489 133.338 29.6223V36.1823C133.338 37.3157 133.031 38.2223 132.418 38.9023C131.805 39.569 130.985 39.9023 129.958 39.9023H126.878ZM128.098 38.5823C128.098 38.6357 128.125 38.6623 128.178 38.6623L129.938 38.6423C130.525 38.6423 130.991 38.4157 131.338 37.9623C131.698 37.509 131.885 36.8957 131.898 36.1223V29.6823C131.898 28.8957 131.725 28.2757 131.378 27.8223C131.031 27.369 130.551 27.1423 129.938 27.1423H128.178C128.125 27.1423 128.098 27.169 128.098 27.2223V38.5823ZM138.575 29.6823C138.908 29.6823 139.195 29.7557 139.435 29.9023C139.528 29.9557 139.561 30.0423 139.535 30.1623L139.295 31.2023C139.281 31.3223 139.201 31.3623 139.055 31.3223C138.895 31.2423 138.695 31.2023 138.455 31.2023C138.348 31.2023 138.268 31.209 138.215 31.2223C137.735 31.249 137.341 31.5023 137.035 31.9823C136.728 32.449 136.575 33.0223 136.575 33.7023V39.7023C136.575 39.8357 136.508 39.9023 136.375 39.9023H135.355C135.221 39.9023 135.155 39.8357 135.155 39.7023V29.9823C135.155 29.849 135.221 29.7823 135.355 29.7823H136.375C136.508 29.7823 136.575 29.849 136.575 29.9823V31.1823C136.575 31.2223 136.581 31.2423 136.595 31.2423C136.621 31.2423 136.648 31.229 136.675 31.2023C137.061 30.189 137.695 29.6823 138.575 29.6823ZM143.237 40.0623C142.277 40.0623 141.51 39.7823 140.937 39.2223C140.377 38.6623 140.097 37.9223 140.097 37.0023V32.7023C140.097 31.7957 140.383 31.0557 140.957 30.4823C141.53 29.909 142.29 29.6223 143.237 29.6223C144.197 29.6223 144.963 29.909 145.537 30.4823C146.11 31.0557 146.397 31.7957 146.397 32.7023V37.0023C146.397 37.9223 146.11 38.6623 145.537 39.2223C144.963 39.7823 144.197 40.0623 143.237 40.0623ZM143.237 38.8023C143.743 38.8023 144.157 38.629 144.477 38.2823C144.81 37.9357 144.977 37.4757 144.977 36.9023V32.7823C144.977 32.209 144.81 31.749 144.477 31.4023C144.157 31.0423 143.743 30.8623 143.237 30.8623C142.73 30.8623 142.317 31.0423 141.997 31.4023C141.677 31.749 141.517 32.209 141.517 32.7823V36.9023C141.517 37.4757 141.677 37.9357 141.997 38.2823C142.317 38.629 142.73 38.8023 143.237 38.8023ZM151.617 29.6423C152.431 29.6423 153.057 29.9223 153.497 30.4823C153.951 31.0423 154.177 31.8223 154.177 32.8223V39.7023C154.177 39.8357 154.111 39.9023 153.977 39.9023H152.957C152.824 39.9023 152.757 39.8357 152.757 39.7023V32.9423C152.757 32.289 152.611 31.7823 152.317 31.4223C152.037 31.0623 151.644 30.8823 151.137 30.8823C150.604 30.8823 150.184 31.0757 149.877 31.4623C149.584 31.849 149.437 32.3757 149.437 33.0423V39.7023C149.437 39.8357 149.371 39.9023 149.237 39.9023H148.217C148.084 39.9023 148.017 39.8357 148.017 39.7023V29.9823C148.017 29.849 148.084 29.7823 148.217 29.7823H149.237C149.371 29.7823 149.437 29.849 149.437 29.9823V30.6223C149.437 30.649 149.451 30.669 149.477 30.6823C149.504 30.6957 149.524 30.6823 149.537 30.6423C149.777 30.309 150.077 30.0623 150.437 29.9023C150.811 29.729 151.204 29.6423 151.617 29.6423ZM161.934 35.1823C161.934 35.3157 161.867 35.3823 161.734 35.3823H157.174C157.121 35.3823 157.094 35.409 157.094 35.4623V36.9223C157.094 37.4823 157.247 37.9423 157.554 38.3023C157.874 38.649 158.287 38.8223 158.794 38.8223C159.221 38.8223 159.581 38.6957 159.874 38.4423C160.181 38.1757 160.381 37.8357 160.474 37.4223C160.514 37.3023 160.587 37.2423 160.694 37.2423L161.694 37.2823C161.747 37.2823 161.794 37.3023 161.834 37.3423C161.874 37.3823 161.887 37.4357 161.874 37.5023C161.767 38.289 161.441 38.9157 160.894 39.3823C160.361 39.8357 159.661 40.0623 158.794 40.0623C157.847 40.0623 157.087 39.7823 156.514 39.2223C155.954 38.6623 155.674 37.9223 155.674 37.0023V32.6823C155.674 31.7757 155.954 31.0423 156.514 30.4823C157.087 29.909 157.847 29.6223 158.794 29.6223C159.754 29.6223 160.514 29.909 161.074 30.4823C161.647 31.0423 161.934 31.7757 161.934 32.6823V35.1823ZM158.794 30.8623C158.287 30.8623 157.874 31.0423 157.554 31.4023C157.247 31.749 157.094 32.209 157.094 32.7823V34.1223C157.094 34.1757 157.121 34.2023 157.174 34.2023H160.454C160.507 34.2023 160.534 34.1757 160.534 34.1223V32.7823C160.534 32.209 160.374 31.749 160.054 31.4023C159.734 31.0423 159.314 30.8623 158.794 30.8623ZM173.202 25.9023C173.336 25.9023 173.402 25.969 173.402 26.1023V26.9423C173.402 27.0757 173.336 27.1423 173.202 27.1423H170.562C170.509 27.1423 170.482 27.169 170.482 27.2223V39.7023C170.482 39.8357 170.416 39.9023 170.282 39.9023H169.262C169.129 39.9023 169.062 39.8357 169.062 39.7023V27.2223C169.062 27.169 169.036 27.1423 168.982 27.1423H166.502C166.369 27.1423 166.302 27.0757 166.302 26.9423V26.1023C166.302 25.969 166.369 25.9023 166.502 25.9023H173.202ZM181.019 26.0423C181.059 25.949 181.139 25.9023 181.259 25.9023H182.299C182.433 25.9023 182.499 25.969 182.499 26.1023V39.7023C182.499 39.8357 182.433 39.9023 182.299 39.9023H181.279C181.146 39.9023 181.079 39.8357 181.079 39.7023V28.9823C181.079 28.9423 181.066 28.9223 181.039 28.9223C181.026 28.9223 181.006 28.9357 180.979 28.9623L178.899 33.2823C178.859 33.3757 178.793 33.4223 178.699 33.4223C178.593 33.4223 178.519 33.3757 178.479 33.2823L176.399 28.9823C176.373 28.9557 176.346 28.9423 176.319 28.9423C176.306 28.9423 176.299 28.9623 176.299 29.0023V39.7023C176.299 39.8357 176.233 39.9023 176.099 39.9023H175.079C174.946 39.9023 174.879 39.8357 174.879 39.7023V26.1023C174.879 25.969 174.946 25.9023 175.079 25.9023H176.119C176.239 25.9023 176.319 25.949 176.359 26.0423L178.639 30.6623C178.653 30.689 178.673 30.7023 178.699 30.7023C178.726 30.7023 178.746 30.689 178.759 30.6623L181.019 26.0423ZM185.789 24.6423C185.896 24.6423 185.976 24.689 186.029 24.7823C186.549 25.7823 186.969 27.029 187.289 28.5223C187.622 30.0157 187.789 31.5823 187.789 33.2223C187.789 34.9157 187.622 36.529 187.289 38.0623C186.956 39.5823 186.522 40.8423 185.989 41.8423C185.936 41.9357 185.856 41.9823 185.749 41.9823H184.789C184.722 41.9823 184.669 41.9557 184.629 41.9023C184.602 41.8623 184.602 41.8157 184.629 41.7623C185.082 40.6957 185.456 39.4157 185.749 37.9223C186.042 36.4157 186.189 34.8623 186.189 33.2623C186.189 31.6757 186.042 30.149 185.749 28.6823C185.456 27.2023 185.082 25.929 184.629 24.8623C184.616 24.849 184.609 24.8223 184.609 24.7823C184.609 24.7423 184.622 24.709 184.649 24.6823C184.689 24.6557 184.736 24.6423 184.789 24.6423H185.789Z" fill="#FBF8F3"/>
<defs>
<clipPath id="clip0_6161_1245">
<rect width="48.5247" height="43.6171" fill="white" transform="translate(0 0.09375)"/>
</clipPath>
</defs>
</svg>
