<svg width="200" height="44" viewBox="0 0 200 44" fill="none" xmlns="http://www.w3.org/2000/svg">
<g clip-path="url(#clip0_6988_8877)">
<path d="M20.8627 12.3933L20.863 12.3938C21.1546 13.0444 21.4917 13.699 21.8576 14.3436L20.8627 12.3933ZM20.8627 12.3933C20.1767 10.8722 19.7432 9.38717 19.7432 8.05999C19.7432 3.75811 23.4771 0.25 28.1325 0.25C32.788 0.25 36.5219 3.75811 36.5219 8.05999C36.5219 9.66552 35.8866 11.5063 34.9447 13.3479L34.9446 13.3481C34.5906 14.0421 34.1938 14.7315 33.7739 15.4023L33.7735 15.403C33.2322 16.2741 32.6537 17.1151 32.0774 17.9005L32.0774 17.9005C31.0318 19.3261 30 20.5651 29.2293 21.4478C28.8441 21.889 28.5244 22.2409 28.3013 22.4823C28.2367 22.5522 28.1802 22.6128 28.1325 22.6636C28.0951 22.6237 28.0523 22.5778 28.0044 22.5261C27.8066 22.3129 27.5222 22.0012 27.1767 21.6086C26.4857 20.8233 25.5513 19.7149 24.5776 18.4233L24.5775 18.4231M20.8627 12.3933L24.5775 18.4231M24.5775 18.4231C23.6447 17.1879 22.68 15.7885 21.8576 14.3437L24.5775 18.4231ZM31.4668 8.05999C31.4668 6.31566 29.9582 4.93021 28.1325 4.93021C26.3071 4.93021 24.7954 6.31538 24.7954 8.05999C24.7954 9.80192 26.3073 11.1869 28.1325 11.1869C29.958 11.1869 31.4668 9.80163 31.4668 8.05999Z" fill="#D73F3F" stroke="white" stroke-width="0.5"/>
<path d="M48.3401 26.2535C48.2748 25.8985 47.8544 25.3589 47.5647 25.3361C46.2669 25.2367 44.9576 25.2907 43.6938 25.2907C42.9383 29.8632 42.8929 30.0023 41.7711 31.1383C40.3113 30.1273 38.8033 29.1588 37.3833 28.0739C36.0058 27.0231 34.9579 25.6968 34.583 23.9417C34.1229 21.7861 35.5514 19.2415 38.2693 18.2048C39.766 17.6312 40.3113 19.4715 41.2429 20.2695C41.6603 20.6245 41.8875 21.1982 42.2511 21.6271C42.4413 21.8543 42.7395 22.1241 43.0008 22.1354C44.2448 22.1894 45.4887 22.1582 46.815 22.1582C45.0826 18.1906 40.0444 14.9445 35.168 13.462C34.8102 14.1635 34.4097 14.8593 33.9866 15.5352C33.4413 16.4128 32.8591 17.2591 32.2797 18.0486C30.1781 20.9142 28.1333 23.0272 28.1333 23.0272C28.1333 23.0272 26.3356 21.1698 24.3788 18.574C23.4416 17.333 22.4703 15.9243 21.641 14.4674C21.2718 13.817 20.931 13.1553 20.6356 12.4964C17.9717 12.4765 15.3077 12.4623 12.6438 12.4595C12.3768 12.4595 11.9537 12.6782 11.8656 12.8997C10.7069 15.7681 9.59361 18.6507 8.3866 21.735C8.35252 21.823 8.31843 21.9139 8.28151 22.0048C8.25879 22.0644 8.23891 22.1212 8.21335 22.1809C6.14865 27.5514 2.42538 37.0484 0.437364 42.1889C0.278322 42.5978 0.176082 43.0295 0 43.6146C1.69266 43.6146 3.15243 43.6146 4.6122 43.6174C10.6217 43.6174 24.0465 43.1658 30.5899 43.092C30.8285 43.0891 31.0585 43.0892 31.2772 43.0863H31.2999C37.4344 42.8705 44.5998 38.8036 47.1785 33.6631C48.3543 31.3229 48.8172 28.8493 48.3401 26.2535ZM9.12784 33.8988C9.95997 31.09 11.9451 24.5722 12.8369 21.5703C12.8369 21.5674 12.8398 21.5618 12.8398 21.5589C12.9079 21.4226 12.9619 21.2664 13.0073 21.0846C13.4106 19.5084 13.9246 17.9578 14.4699 16.1401C16.333 17.5999 18.0484 18.8353 19.6303 20.2241C20.8287 21.2778 21.1838 22.7858 20.6243 24.2456C20.1869 25.3986 19.5593 26.6766 18.6277 27.4094C15.6429 29.7609 12.4762 31.8824 9.3806 34.0948C9.29824 34.0295 9.21304 33.9641 9.12784 33.8988ZM35.0828 36.3583C33.0835 37.0342 30.9847 37.3693 28.8745 37.4517L18.5965 37.855H12.2604C12.7489 37.4148 12.996 37.162 13.2743 36.9519C15.5321 35.2393 17.7842 33.5239 20.0591 31.8341C26.6991 26.901 33.4725 29.2951 38.6073 34.6287C37.5253 35.3984 36.3296 35.9408 35.0828 36.3583Z" fill="#D73F3F"/>
</g>
<path d="M66.1647 19.8086C66.0313 19.8086 65.9647 19.7419 65.9647 19.6086V6.00859C65.9647 5.87526 66.0313 5.80859 66.1647 5.80859H69.2447C70.2713 5.80859 71.0913 6.14859 71.7047 6.82859C72.318 7.49526 72.6247 8.39526 72.6247 9.52859V16.0886C72.6247 17.2219 72.318 18.1286 71.7047 18.8086C71.0913 19.4753 70.2713 19.8086 69.2447 19.8086H66.1647ZM67.3847 18.4886C67.3847 18.5419 67.4113 18.5686 67.4647 18.5686L69.2247 18.5486C69.8113 18.5486 70.278 18.3219 70.6247 17.8686C70.9847 17.4153 71.1713 16.8019 71.1847 16.0286V9.58859C71.1847 8.80193 71.0113 8.18193 70.6647 7.72859C70.318 7.27526 69.838 7.04859 69.2247 7.04859H67.4647C67.4113 7.04859 67.3847 7.07526 67.3847 7.12859V18.4886ZM77.8615 9.58859C78.1949 9.58859 78.4815 9.66193 78.7215 9.80859C78.8149 9.86193 78.8482 9.94859 78.8215 10.0686L78.5815 11.1086C78.5682 11.2286 78.4882 11.2686 78.3415 11.2286C78.1815 11.1486 77.9815 11.1086 77.7415 11.1086C77.6349 11.1086 77.5549 11.1153 77.5015 11.1286C77.0215 11.1553 76.6282 11.4086 76.3215 11.8886C76.0149 12.3553 75.8615 12.9286 75.8615 13.6086V19.6086C75.8615 19.7419 75.7949 19.8086 75.6615 19.8086H74.6415C74.5082 19.8086 74.4415 19.7419 74.4415 19.6086V9.88859C74.4415 9.75526 74.5082 9.68859 74.6415 9.68859H75.6615C75.7949 9.68859 75.8615 9.75526 75.8615 9.88859V11.0886C75.8615 11.1286 75.8682 11.1486 75.8815 11.1486C75.9082 11.1486 75.9349 11.1353 75.9615 11.1086C76.3482 10.0953 76.9815 9.58859 77.8615 9.58859ZM82.5233 19.9686C81.5633 19.9686 80.7966 19.6886 80.2233 19.1286C79.6633 18.5686 79.3833 17.8286 79.3833 16.9086V12.6086C79.3833 11.7019 79.6699 10.9619 80.2433 10.3886C80.8166 9.81526 81.5766 9.52859 82.5233 9.52859C83.4833 9.52859 84.2499 9.81526 84.8233 10.3886C85.3966 10.9619 85.6833 11.7019 85.6833 12.6086V16.9086C85.6833 17.8286 85.3966 18.5686 84.8233 19.1286C84.2499 19.6886 83.4833 19.9686 82.5233 19.9686ZM82.5233 18.7086C83.0299 18.7086 83.4433 18.5353 83.7633 18.1886C84.0966 17.8419 84.2633 17.3819 84.2633 16.8086V12.6886C84.2633 12.1153 84.0966 11.6553 83.7633 11.3086C83.4433 10.9486 83.0299 10.7686 82.5233 10.7686C82.0166 10.7686 81.6033 10.9486 81.2833 11.3086C80.9633 11.6553 80.8033 12.1153 80.8033 12.6886V16.8086C80.8033 17.3819 80.9633 17.8419 81.2833 18.1886C81.6033 18.5353 82.0166 18.7086 82.5233 18.7086ZM90.904 9.54859C91.7174 9.54859 92.344 9.82859 92.784 10.3886C93.2374 10.9486 93.464 11.7286 93.464 12.7286V19.6086C93.464 19.7419 93.3974 19.8086 93.264 19.8086H92.244C92.1107 19.8086 92.044 19.7419 92.044 19.6086V12.8486C92.044 12.1953 91.8974 11.6886 91.604 11.3286C91.324 10.9686 90.9307 10.7886 90.424 10.7886C89.8907 10.7886 89.4707 10.9819 89.164 11.3686C88.8707 11.7553 88.724 12.2819 88.724 12.9486V19.6086C88.724 19.7419 88.6574 19.8086 88.524 19.8086H87.504C87.3707 19.8086 87.304 19.7419 87.304 19.6086V9.88859C87.304 9.75526 87.3707 9.68859 87.504 9.68859H88.524C88.6574 9.68859 88.724 9.75526 88.724 9.88859V10.5286C88.724 10.5553 88.7374 10.5753 88.764 10.5886C88.7907 10.6019 88.8107 10.5886 88.824 10.5486C89.064 10.2153 89.364 9.96859 89.724 9.80859C90.0974 9.63526 90.4907 9.54859 90.904 9.54859ZM101.221 15.0886C101.221 15.2219 101.154 15.2886 101.021 15.2886H96.4606C96.4073 15.2886 96.3806 15.3153 96.3806 15.3686V16.8286C96.3806 17.3886 96.5339 17.8486 96.8406 18.2086C97.1606 18.5553 97.5739 18.7286 98.0806 18.7286C98.5073 18.7286 98.8673 18.6019 99.1606 18.3486C99.4673 18.0819 99.6673 17.7419 99.7606 17.3286C99.8006 17.2086 99.8739 17.1486 99.9806 17.1486L100.981 17.1886C101.034 17.1886 101.081 17.2086 101.121 17.2486C101.161 17.2886 101.174 17.3419 101.161 17.4086C101.054 18.1953 100.727 18.8219 100.181 19.2886C99.6473 19.7419 98.9473 19.9686 98.0806 19.9686C97.1339 19.9686 96.3739 19.6886 95.8006 19.1286C95.2406 18.5686 94.9606 17.8286 94.9606 16.9086V12.5886C94.9606 11.6819 95.2406 10.9486 95.8006 10.3886C96.3739 9.81526 97.1339 9.52859 98.0806 9.52859C99.0406 9.52859 99.8006 9.81526 100.361 10.3886C100.934 10.9486 101.221 11.6819 101.221 12.5886V15.0886ZM98.0806 10.7686C97.5739 10.7686 97.1606 10.9486 96.8406 11.3086C96.5339 11.6553 96.3806 12.1153 96.3806 12.6886V14.0286C96.3806 14.0819 96.4073 14.1086 96.4606 14.1086H99.7406C99.7939 14.1086 99.8206 14.0819 99.8206 14.0286V12.6886C99.8206 12.1153 99.6606 11.6553 99.3406 11.3086C99.0206 10.9486 98.6006 10.7686 98.0806 10.7686ZM112.489 5.80859C112.622 5.80859 112.689 5.87526 112.689 6.00859V6.84859C112.689 6.98193 112.622 7.04859 112.489 7.04859H109.849C109.796 7.04859 109.769 7.07526 109.769 7.12859V19.6086C109.769 19.7419 109.702 19.8086 109.569 19.8086H108.549C108.416 19.8086 108.349 19.7419 108.349 19.6086V7.12859C108.349 7.07526 108.322 7.04859 108.269 7.04859H105.789C105.656 7.04859 105.589 6.98193 105.589 6.84859V6.00859C105.589 5.87526 105.656 5.80859 105.789 5.80859H112.489ZM116.516 9.52859C117.45 9.52859 118.196 9.83526 118.756 10.4486C119.316 11.0486 119.596 11.8553 119.596 12.8686V19.6086C119.596 19.7419 119.53 19.8086 119.396 19.8086H118.376C118.243 19.8086 118.176 19.7419 118.176 19.6086V19.0086C118.176 18.9819 118.163 18.9686 118.136 18.9686C118.123 18.9553 118.103 18.9619 118.076 18.9886C117.583 19.6419 116.843 19.9686 115.856 19.9686C115.123 19.9686 114.483 19.7619 113.936 19.3486C113.403 18.9219 113.136 18.1753 113.136 17.1086C113.136 15.9753 113.463 15.1486 114.116 14.6286C114.77 14.0953 115.63 13.8286 116.696 13.8286H118.096C118.15 13.8286 118.176 13.8019 118.176 13.7486V12.9686C118.176 12.3019 118.023 11.7686 117.716 11.3686C117.41 10.9686 116.996 10.7686 116.476 10.7686C116.076 10.7686 115.73 10.9019 115.436 11.1686C115.156 11.4353 114.99 11.7753 114.936 12.1886C114.936 12.3219 114.87 12.3886 114.736 12.3886L113.616 12.3686C113.55 12.3686 113.496 12.3486 113.456 12.3086C113.43 12.2686 113.423 12.2219 113.436 12.1686C113.503 11.3819 113.823 10.7486 114.396 10.2686C114.97 9.77526 115.676 9.52859 116.516 9.52859ZM116.156 18.7286C116.703 18.7286 117.176 18.5553 117.576 18.2086C117.976 17.8486 118.176 17.3553 118.176 16.7286V15.0486C118.176 14.9953 118.15 14.9686 118.096 14.9686H116.676C116.036 14.9686 115.53 15.1419 115.156 15.4886C114.783 15.8219 114.596 16.3219 114.596 16.9886C114.596 17.5753 114.736 18.0153 115.016 18.3086C115.31 18.5886 115.69 18.7286 116.156 18.7286ZM123.858 19.9086C122.938 19.9086 122.198 19.6753 121.638 19.2086C121.091 18.7286 120.818 18.0953 120.818 17.3086V17.1686C120.818 17.0353 120.885 16.9686 121.018 16.9686H121.978C122.111 16.9686 122.178 17.0353 122.178 17.1686V17.2886C122.178 17.7153 122.331 18.0753 122.638 18.3686C122.958 18.6619 123.371 18.8086 123.878 18.8086C124.358 18.8086 124.745 18.6619 125.038 18.3686C125.331 18.0753 125.478 17.7019 125.478 17.2486C125.478 16.9019 125.385 16.6153 125.198 16.3886C125.011 16.1486 124.791 15.9619 124.538 15.8286C124.298 15.6953 123.931 15.5219 123.438 15.3086C122.918 15.0953 122.485 14.8886 122.138 14.6886C121.805 14.4753 121.511 14.1819 121.258 13.8086C121.018 13.4219 120.898 12.9353 120.898 12.3486C120.898 11.4953 121.158 10.8219 121.678 10.3286C122.211 9.83526 122.925 9.58859 123.818 9.58859C124.725 9.58859 125.445 9.84193 125.978 10.3486C126.511 10.8553 126.778 11.5286 126.778 12.3686V12.4286C126.778 12.5619 126.711 12.6286 126.578 12.6286H125.658C125.525 12.6286 125.458 12.5619 125.458 12.4286V12.3086C125.458 11.8553 125.305 11.4819 124.998 11.1886C124.705 10.8953 124.318 10.7486 123.838 10.7486C123.358 10.7486 122.971 10.9019 122.678 11.2086C122.398 11.5019 122.258 11.8686 122.258 12.3086C122.258 12.6286 122.345 12.9019 122.518 13.1286C122.691 13.3419 122.905 13.5219 123.158 13.6686C123.411 13.8019 123.765 13.9686 124.218 14.1686C124.765 14.4086 125.211 14.6353 125.558 14.8486C125.918 15.0619 126.231 15.3619 126.498 15.7486C126.765 16.1353 126.898 16.6153 126.898 17.1886C126.898 18.0153 126.625 18.6753 126.078 19.1686C125.531 19.6619 124.791 19.9086 123.858 19.9086ZM128.299 19.8086C128.165 19.8086 128.099 19.7419 128.099 19.6086V6.00859C128.099 5.87526 128.165 5.80859 128.299 5.80859H129.319C129.452 5.80859 129.519 5.87526 129.519 6.00859V14.0486C129.519 14.0753 129.532 14.0953 129.559 14.1086C129.585 14.1219 129.605 14.1153 129.619 14.0886L132.619 9.80859C132.672 9.72859 132.752 9.68859 132.859 9.68859H133.899C133.979 9.68859 134.032 9.71526 134.059 9.76859C134.085 9.80859 134.072 9.86193 134.019 9.92859L132.039 12.7686C131.999 12.8086 131.992 12.8486 132.019 12.8886L134.379 19.5886L134.399 19.6686C134.399 19.7619 134.339 19.8086 134.219 19.8086H133.159C133.039 19.8086 132.959 19.7553 132.919 19.6486L131.139 14.0886C131.125 14.0086 131.085 14.0019 131.019 14.0686L129.559 16.1486C129.532 16.1753 129.519 16.2086 129.519 16.2486V19.6086C129.519 19.7419 129.452 19.8086 129.319 19.8086H128.299ZM136.464 7.84859C136.131 7.84859 135.857 7.74193 135.644 7.52859C135.444 7.31526 135.344 7.04859 135.344 6.72859C135.344 6.39526 135.444 6.12859 135.644 5.92859C135.857 5.71526 136.131 5.60859 136.464 5.60859C136.784 5.60859 137.044 5.71526 137.244 5.92859C137.457 6.12859 137.564 6.39526 137.564 6.72859C137.564 7.04859 137.457 7.31526 137.244 7.52859C137.044 7.74193 136.784 7.84859 136.464 7.84859ZM135.964 19.8086C135.831 19.8086 135.764 19.7419 135.764 19.6086V9.88859C135.764 9.75526 135.831 9.68859 135.964 9.68859H136.984C137.117 9.68859 137.184 9.75526 137.184 9.88859V19.6086C137.184 19.7419 137.117 19.8086 136.984 19.8086H135.964ZM142.764 9.54859C143.578 9.54859 144.204 9.82859 144.644 10.3886C145.098 10.9486 145.324 11.7286 145.324 12.7286V19.6086C145.324 19.7419 145.258 19.8086 145.124 19.8086H144.104C143.971 19.8086 143.904 19.7419 143.904 19.6086V12.8486C143.904 12.1953 143.758 11.6886 143.464 11.3286C143.184 10.9686 142.791 10.7886 142.284 10.7886C141.751 10.7886 141.331 10.9819 141.024 11.3686C140.731 11.7553 140.584 12.2819 140.584 12.9486V19.6086C140.584 19.7419 140.518 19.8086 140.384 19.8086H139.364C139.231 19.8086 139.164 19.7419 139.164 19.6086V9.88859C139.164 9.75526 139.231 9.68859 139.364 9.68859H140.384C140.518 9.68859 140.584 9.75526 140.584 9.88859V10.5286C140.584 10.5553 140.598 10.5753 140.624 10.5886C140.651 10.6019 140.671 10.5886 140.684 10.5486C140.924 10.2153 141.224 9.96859 141.584 9.80859C141.958 9.63526 142.351 9.54859 142.764 9.54859ZM151.641 9.88859C151.641 9.75526 151.707 9.68859 151.841 9.68859H152.861C152.994 9.68859 153.061 9.75526 153.061 9.88859V19.6086C153.061 21.0353 152.727 22.1153 152.061 22.8486C151.407 23.5953 150.307 23.9353 148.761 23.8686C148.627 23.8553 148.561 23.7819 148.561 23.6486V22.7886C148.561 22.6553 148.627 22.5886 148.761 22.5886C149.827 22.6153 150.574 22.3686 151.001 21.8486C151.427 21.3419 151.641 20.5553 151.641 19.4886V18.8886C151.641 18.8619 151.627 18.8419 151.601 18.8286C151.587 18.8153 151.567 18.8219 151.541 18.8486C151.314 19.1819 151.021 19.4353 150.661 19.6086C150.314 19.7819 149.941 19.8686 149.541 19.8686C148.701 19.8686 148.034 19.5886 147.541 19.0286C147.061 18.4686 146.821 17.7286 146.821 16.8086V12.5886C146.821 11.6553 147.061 10.9153 147.541 10.3686C148.034 9.80859 148.701 9.52859 149.541 9.52859C149.941 9.52859 150.314 9.61526 150.661 9.78859C151.021 9.94859 151.314 10.1953 151.541 10.5286C151.567 10.5686 151.587 10.5886 151.601 10.5886C151.627 10.5753 151.641 10.5486 151.641 10.5086V9.88859ZM149.961 18.6286C150.454 18.6286 150.854 18.4553 151.161 18.1086C151.481 17.7486 151.641 17.2886 151.641 16.7286V12.6886C151.641 12.1153 151.481 11.6553 151.161 11.3086C150.854 10.9486 150.454 10.7686 149.961 10.7686C149.454 10.7686 149.041 10.9486 148.721 11.3086C148.401 11.6553 148.241 12.1153 148.241 12.6886V16.7286C148.241 17.2886 148.401 17.7486 148.721 18.1086C149.041 18.4553 149.454 18.6286 149.961 18.6286ZM72.0647 25.9486C72.1047 25.8553 72.1847 25.8086 72.3047 25.8086H73.3447C73.478 25.8086 73.5447 25.8753 73.5447 26.0086V39.6086C73.5447 39.7419 73.478 39.8086 73.3447 39.8086H72.3247C72.1913 39.8086 72.1247 39.7419 72.1247 39.6086V28.8886C72.1247 28.8486 72.1113 28.8286 72.0847 28.8286C72.0713 28.8286 72.0513 28.8419 72.0247 28.8686L69.9447 33.1886C69.9047 33.2819 69.838 33.3286 69.7447 33.3286C69.638 33.3286 69.5647 33.2819 69.5247 33.1886L67.4447 28.8886C67.418 28.8619 67.3913 28.8486 67.3647 28.8486C67.3513 28.8486 67.3447 28.8686 67.3447 28.9086V39.6086C67.3447 39.7419 67.278 39.8086 67.1447 39.8086H66.1247C65.9913 39.8086 65.9247 39.7419 65.9247 39.6086V26.0086C65.9247 25.8753 65.9913 25.8086 66.1247 25.8086H67.1647C67.2847 25.8086 67.3647 25.8553 67.4047 25.9486L69.6847 30.5686C69.698 30.5953 69.718 30.6086 69.7447 30.6086C69.7713 30.6086 69.7913 30.5953 69.8047 30.5686L72.0647 25.9486ZM78.5343 29.5286C79.4677 29.5286 80.2143 29.8353 80.7743 30.4486C81.3343 31.0486 81.6143 31.8553 81.6143 32.8686V39.6086C81.6143 39.7419 81.5477 39.8086 81.4143 39.8086H80.3943C80.261 39.8086 80.1943 39.7419 80.1943 39.6086V39.0086C80.1943 38.9819 80.181 38.9686 80.1543 38.9686C80.141 38.9553 80.121 38.9619 80.0943 38.9886C79.601 39.6419 78.861 39.9686 77.8743 39.9686C77.141 39.9686 76.501 39.7619 75.9543 39.3486C75.421 38.9219 75.1543 38.1753 75.1543 37.1086C75.1543 35.9753 75.481 35.1486 76.1343 34.6286C76.7877 34.0953 77.6477 33.8286 78.7143 33.8286H80.1143C80.1677 33.8286 80.1943 33.8019 80.1943 33.7486V32.9686C80.1943 32.3019 80.041 31.7686 79.7343 31.3686C79.4277 30.9686 79.0143 30.7686 78.4943 30.7686C78.0943 30.7686 77.7477 30.9019 77.4543 31.1686C77.1743 31.4353 77.0077 31.7753 76.9543 32.1886C76.9543 32.3219 76.8877 32.3886 76.7543 32.3886L75.6343 32.3686C75.5677 32.3686 75.5143 32.3486 75.4743 32.3086C75.4477 32.2686 75.441 32.2219 75.4543 32.1686C75.521 31.3819 75.841 30.7486 76.4143 30.2686C76.9877 29.7753 77.6943 29.5286 78.5343 29.5286ZM78.1743 38.7286C78.721 38.7286 79.1943 38.5553 79.5943 38.2086C79.9943 37.8486 80.1943 37.3553 80.1943 36.7286V35.0486C80.1943 34.9953 80.1677 34.9686 80.1143 34.9686H78.6943C78.0543 34.9686 77.5477 35.1419 77.1743 35.4886C76.801 35.8219 76.6143 36.3219 76.6143 36.9886C76.6143 37.5753 76.7543 38.0153 77.0343 38.3086C77.3277 38.5886 77.7077 38.7286 78.1743 38.7286ZM86.8361 29.5486C87.6494 29.5486 88.2761 29.8286 88.7161 30.3886C89.1694 30.9486 89.3961 31.7286 89.3961 32.7286V39.6086C89.3961 39.7419 89.3294 39.8086 89.1961 39.8086H88.1761C88.0427 39.8086 87.9761 39.7419 87.9761 39.6086V32.8486C87.9761 32.1953 87.8294 31.6886 87.5361 31.3286C87.2561 30.9686 86.8627 30.7886 86.3561 30.7886C85.8227 30.7886 85.4027 30.9819 85.0961 31.3686C84.8027 31.7553 84.6561 32.2819 84.6561 32.9486V39.6086C84.6561 39.7419 84.5894 39.8086 84.4561 39.8086H83.4361C83.3027 39.8086 83.2361 39.7419 83.2361 39.6086V29.8886C83.2361 29.7553 83.3027 29.6886 83.4361 29.6886H84.4561C84.5894 29.6886 84.6561 29.7553 84.6561 29.8886V30.5286C84.6561 30.5553 84.6694 30.5753 84.6961 30.5886C84.7227 30.6019 84.7427 30.5886 84.7561 30.5486C84.9961 30.2153 85.2961 29.9686 85.6561 29.8086C86.0294 29.6353 86.4227 29.5486 86.8361 29.5486ZM94.0726 29.5286C95.006 29.5286 95.7526 29.8353 96.3126 30.4486C96.8726 31.0486 97.1526 31.8553 97.1526 32.8686V39.6086C97.1526 39.7419 97.086 39.8086 96.9526 39.8086H95.9326C95.7993 39.8086 95.7326 39.7419 95.7326 39.6086V39.0086C95.7326 38.9819 95.7193 38.9686 95.6926 38.9686C95.6793 38.9553 95.6593 38.9619 95.6326 38.9886C95.1393 39.6419 94.3993 39.9686 93.4126 39.9686C92.6793 39.9686 92.0393 39.7619 91.4926 39.3486C90.9593 38.9219 90.6926 38.1753 90.6926 37.1086C90.6926 35.9753 91.0193 35.1486 91.6726 34.6286C92.326 34.0953 93.186 33.8286 94.2526 33.8286H95.6526C95.706 33.8286 95.7326 33.8019 95.7326 33.7486V32.9686C95.7326 32.3019 95.5793 31.7686 95.2726 31.3686C94.966 30.9686 94.5526 30.7686 94.0326 30.7686C93.6326 30.7686 93.286 30.9019 92.9926 31.1686C92.7126 31.4353 92.546 31.7753 92.4926 32.1886C92.4926 32.3219 92.426 32.3886 92.2926 32.3886L91.1726 32.3686C91.106 32.3686 91.0526 32.3486 91.0126 32.3086C90.986 32.2686 90.9793 32.2219 90.9926 32.1686C91.0593 31.3819 91.3793 30.7486 91.9526 30.2686C92.526 29.7753 93.2326 29.5286 94.0726 29.5286ZM93.7126 38.7286C94.2593 38.7286 94.7326 38.5553 95.1326 38.2086C95.5326 37.8486 95.7326 37.3553 95.7326 36.7286V35.0486C95.7326 34.9953 95.706 34.9686 95.6526 34.9686H94.2326C93.5926 34.9686 93.086 35.1419 92.7126 35.4886C92.3393 35.8219 92.1526 36.3219 92.1526 36.9886C92.1526 37.5753 92.2926 38.0153 92.5726 38.3086C92.866 38.5886 93.246 38.7286 93.7126 38.7286ZM103.374 29.8886C103.374 29.7553 103.441 29.6886 103.574 29.6886H104.594C104.728 29.6886 104.794 29.7553 104.794 29.8886V39.6086C104.794 41.0353 104.461 42.1153 103.794 42.8486C103.141 43.5953 102.041 43.9353 100.494 43.8686C100.361 43.8553 100.294 43.7819 100.294 43.6486V42.7886C100.294 42.6553 100.361 42.5886 100.494 42.5886C101.561 42.6153 102.308 42.3686 102.734 41.8486C103.161 41.3419 103.374 40.5553 103.374 39.4886V38.8886C103.374 38.8619 103.361 38.8419 103.334 38.8286C103.321 38.8153 103.301 38.8219 103.274 38.8486C103.048 39.1819 102.754 39.4353 102.394 39.6086C102.048 39.7819 101.674 39.8686 101.274 39.8686C100.434 39.8686 99.7677 39.5886 99.2743 39.0286C98.7943 38.4686 98.5543 37.7286 98.5543 36.8086V32.5886C98.5543 31.6553 98.7943 30.9153 99.2743 30.3686C99.7677 29.8086 100.434 29.5286 101.274 29.5286C101.674 29.5286 102.048 29.6153 102.394 29.7886C102.754 29.9486 103.048 30.1953 103.274 30.5286C103.301 30.5686 103.321 30.5886 103.334 30.5886C103.361 30.5753 103.374 30.5486 103.374 30.5086V29.8886ZM101.694 38.6286C102.188 38.6286 102.588 38.4553 102.894 38.1086C103.214 37.7486 103.374 37.2886 103.374 36.7286V32.6886C103.374 32.1153 103.214 31.6553 102.894 31.3086C102.588 30.9486 102.188 30.7686 101.694 30.7686C101.188 30.7686 100.774 30.9486 100.454 31.3086C100.134 31.6553 99.9743 32.1153 99.9743 32.6886V36.7286C99.9743 37.2886 100.134 37.7486 100.454 38.1086C100.774 38.4553 101.188 38.6286 101.694 38.6286ZM112.476 35.0886C112.476 35.2219 112.409 35.2886 112.276 35.2886H107.716C107.663 35.2886 107.636 35.3153 107.636 35.3686V36.8286C107.636 37.3886 107.789 37.8486 108.096 38.2086C108.416 38.5553 108.829 38.7286 109.336 38.7286C109.763 38.7286 110.123 38.6019 110.416 38.3486C110.723 38.0819 110.923 37.7419 111.016 37.3286C111.056 37.2086 111.129 37.1486 111.236 37.1486L112.236 37.1886C112.289 37.1886 112.336 37.2086 112.376 37.2486C112.416 37.2886 112.429 37.3419 112.416 37.4086C112.309 38.1953 111.983 38.8219 111.436 39.2886C110.903 39.7419 110.203 39.9686 109.336 39.9686C108.389 39.9686 107.629 39.6886 107.056 39.1286C106.496 38.5686 106.216 37.8286 106.216 36.9086V32.5886C106.216 31.6819 106.496 30.9486 107.056 30.3886C107.629 29.8153 108.389 29.5286 109.336 29.5286C110.296 29.5286 111.056 29.8153 111.616 30.3886C112.189 30.9486 112.476 31.6819 112.476 32.5886V35.0886ZM109.336 30.7686C108.829 30.7686 108.416 30.9486 108.096 31.3086C107.789 31.6553 107.636 32.1153 107.636 32.6886V34.0286C107.636 34.0819 107.663 34.1086 107.716 34.1086H110.996C111.049 34.1086 111.076 34.0819 111.076 34.0286V32.6886C111.076 32.1153 110.916 31.6553 110.596 31.3086C110.276 30.9486 109.856 30.7686 109.336 30.7686ZM117.401 29.5886C117.734 29.5886 118.021 29.6619 118.261 29.8086C118.354 29.8619 118.387 29.9486 118.361 30.0686L118.121 31.1086C118.107 31.2286 118.027 31.2686 117.881 31.2286C117.721 31.1486 117.521 31.1086 117.281 31.1086C117.174 31.1086 117.094 31.1153 117.041 31.1286C116.561 31.1553 116.167 31.4086 115.861 31.8886C115.554 32.3553 115.401 32.9286 115.401 33.6086V39.6086C115.401 39.7419 115.334 39.8086 115.201 39.8086H114.181C114.047 39.8086 113.981 39.7419 113.981 39.6086V29.8886C113.981 29.7553 114.047 29.6886 114.181 29.6886H115.201C115.334 29.6886 115.401 29.7553 115.401 29.8886V31.0886C115.401 31.1286 115.407 31.1486 115.421 31.1486C115.447 31.1486 115.474 31.1353 115.501 31.1086C115.887 30.0953 116.521 29.5886 117.401 29.5886ZM123.344 41.8886C123.238 41.8886 123.158 41.8419 123.104 41.7486C122.584 40.7353 122.158 39.4886 121.824 38.0086C121.504 36.5153 121.344 34.9486 121.344 33.3086C121.344 31.6286 121.511 30.0286 121.844 28.5086C122.178 26.9886 122.611 25.7153 123.144 24.6886C123.198 24.5953 123.278 24.5486 123.384 24.5486H124.364C124.431 24.5486 124.478 24.5753 124.504 24.6286C124.544 24.6686 124.551 24.7153 124.524 24.7686C124.071 25.8219 123.698 27.1019 123.404 28.6086C123.111 30.1153 122.964 31.6753 122.964 33.2886C122.964 34.8753 123.111 36.4086 123.404 37.8886C123.698 39.3553 124.071 40.6086 124.524 41.6486L124.544 41.7286C124.544 41.8353 124.484 41.8886 124.364 41.8886H123.344ZM126.878 39.8086C126.745 39.8086 126.678 39.7419 126.678 39.6086V26.0086C126.678 25.8753 126.745 25.8086 126.878 25.8086H129.958C130.985 25.8086 131.805 26.1486 132.418 26.8286C133.031 27.4953 133.338 28.3953 133.338 29.5286V36.0886C133.338 37.2219 133.031 38.1286 132.418 38.8086C131.805 39.4753 130.985 39.8086 129.958 39.8086H126.878ZM128.098 38.4886C128.098 38.5419 128.125 38.5686 128.178 38.5686L129.938 38.5486C130.525 38.5486 130.991 38.3219 131.338 37.8686C131.698 37.4153 131.885 36.8019 131.898 36.0286V29.5886C131.898 28.8019 131.725 28.1819 131.378 27.7286C131.031 27.2753 130.551 27.0486 129.938 27.0486H128.178C128.125 27.0486 128.098 27.0753 128.098 27.1286V38.4886ZM138.575 29.5886C138.908 29.5886 139.195 29.6619 139.435 29.8086C139.528 29.8619 139.561 29.9486 139.535 30.0686L139.295 31.1086C139.281 31.2286 139.201 31.2686 139.055 31.2286C138.895 31.1486 138.695 31.1086 138.455 31.1086C138.348 31.1086 138.268 31.1153 138.215 31.1286C137.735 31.1553 137.341 31.4086 137.035 31.8886C136.728 32.3553 136.575 32.9286 136.575 33.6086V39.6086C136.575 39.7419 136.508 39.8086 136.375 39.8086H135.355C135.221 39.8086 135.155 39.7419 135.155 39.6086V29.8886C135.155 29.7553 135.221 29.6886 135.355 29.6886H136.375C136.508 29.6886 136.575 29.7553 136.575 29.8886V31.0886C136.575 31.1286 136.581 31.1486 136.595 31.1486C136.621 31.1486 136.648 31.1353 136.675 31.1086C137.061 30.0953 137.695 29.5886 138.575 29.5886ZM143.237 39.9686C142.277 39.9686 141.51 39.6886 140.937 39.1286C140.377 38.5686 140.097 37.8286 140.097 36.9086V32.6086C140.097 31.7019 140.383 30.9619 140.957 30.3886C141.53 29.8153 142.29 29.5286 143.237 29.5286C144.197 29.5286 144.963 29.8153 145.537 30.3886C146.11 30.9619 146.397 31.7019 146.397 32.6086V36.9086C146.397 37.8286 146.11 38.5686 145.537 39.1286C144.963 39.6886 144.197 39.9686 143.237 39.9686ZM143.237 38.7086C143.743 38.7086 144.157 38.5353 144.477 38.1886C144.81 37.8419 144.977 37.3819 144.977 36.8086V32.6886C144.977 32.1153 144.81 31.6553 144.477 31.3086C144.157 30.9486 143.743 30.7686 143.237 30.7686C142.73 30.7686 142.317 30.9486 141.997 31.3086C141.677 31.6553 141.517 32.1153 141.517 32.6886V36.8086C141.517 37.3819 141.677 37.8419 141.997 38.1886C142.317 38.5353 142.73 38.7086 143.237 38.7086ZM151.617 29.5486C152.431 29.5486 153.057 29.8286 153.497 30.3886C153.951 30.9486 154.177 31.7286 154.177 32.7286V39.6086C154.177 39.7419 154.111 39.8086 153.977 39.8086H152.957C152.824 39.8086 152.757 39.7419 152.757 39.6086V32.8486C152.757 32.1953 152.611 31.6886 152.317 31.3286C152.037 30.9686 151.644 30.7886 151.137 30.7886C150.604 30.7886 150.184 30.9819 149.877 31.3686C149.584 31.7553 149.437 32.2819 149.437 32.9486V39.6086C149.437 39.7419 149.371 39.8086 149.237 39.8086H148.217C148.084 39.8086 148.017 39.7419 148.017 39.6086V29.8886C148.017 29.7553 148.084 29.6886 148.217 29.6886H149.237C149.371 29.6886 149.437 29.7553 149.437 29.8886V30.5286C149.437 30.5553 149.451 30.5753 149.477 30.5886C149.504 30.6019 149.524 30.5886 149.537 30.5486C149.777 30.2153 150.077 29.9686 150.437 29.8086C150.811 29.6353 151.204 29.5486 151.617 29.5486ZM161.934 35.0886C161.934 35.2219 161.867 35.2886 161.734 35.2886H157.174C157.121 35.2886 157.094 35.3153 157.094 35.3686V36.8286C157.094 37.3886 157.247 37.8486 157.554 38.2086C157.874 38.5553 158.287 38.7286 158.794 38.7286C159.221 38.7286 159.581 38.6019 159.874 38.3486C160.181 38.0819 160.381 37.7419 160.474 37.3286C160.514 37.2086 160.587 37.1486 160.694 37.1486L161.694 37.1886C161.747 37.1886 161.794 37.2086 161.834 37.2486C161.874 37.2886 161.887 37.3419 161.874 37.4086C161.767 38.1953 161.441 38.8219 160.894 39.2886C160.361 39.7419 159.661 39.9686 158.794 39.9686C157.847 39.9686 157.087 39.6886 156.514 39.1286C155.954 38.5686 155.674 37.8286 155.674 36.9086V32.5886C155.674 31.6819 155.954 30.9486 156.514 30.3886C157.087 29.8153 157.847 29.5286 158.794 29.5286C159.754 29.5286 160.514 29.8153 161.074 30.3886C161.647 30.9486 161.934 31.6819 161.934 32.5886V35.0886ZM158.794 30.7686C158.287 30.7686 157.874 30.9486 157.554 31.3086C157.247 31.6553 157.094 32.1153 157.094 32.6886V34.0286C157.094 34.0819 157.121 34.1086 157.174 34.1086H160.454C160.507 34.1086 160.534 34.0819 160.534 34.0286V32.6886C160.534 32.1153 160.374 31.6553 160.054 31.3086C159.734 30.9486 159.314 30.7686 158.794 30.7686ZM173.202 25.8086C173.336 25.8086 173.402 25.8753 173.402 26.0086V26.8486C173.402 26.9819 173.336 27.0486 173.202 27.0486H170.562C170.509 27.0486 170.482 27.0753 170.482 27.1286V39.6086C170.482 39.7419 170.416 39.8086 170.282 39.8086H169.262C169.129 39.8086 169.062 39.7419 169.062 39.6086V27.1286C169.062 27.0753 169.036 27.0486 168.982 27.0486H166.502C166.369 27.0486 166.302 26.9819 166.302 26.8486V26.0086C166.302 25.8753 166.369 25.8086 166.502 25.8086H173.202ZM181.019 25.9486C181.059 25.8553 181.139 25.8086 181.259 25.8086H182.299C182.433 25.8086 182.499 25.8753 182.499 26.0086V39.6086C182.499 39.7419 182.433 39.8086 182.299 39.8086H181.279C181.146 39.8086 181.079 39.7419 181.079 39.6086V28.8886C181.079 28.8486 181.066 28.8286 181.039 28.8286C181.026 28.8286 181.006 28.8419 180.979 28.8686L178.899 33.1886C178.859 33.2819 178.793 33.3286 178.699 33.3286C178.593 33.3286 178.519 33.2819 178.479 33.1886L176.399 28.8886C176.373 28.8619 176.346 28.8486 176.319 28.8486C176.306 28.8486 176.299 28.8686 176.299 28.9086V39.6086C176.299 39.7419 176.233 39.8086 176.099 39.8086H175.079C174.946 39.8086 174.879 39.7419 174.879 39.6086V26.0086C174.879 25.8753 174.946 25.8086 175.079 25.8086H176.119C176.239 25.8086 176.319 25.8553 176.359 25.9486L178.639 30.5686C178.653 30.5953 178.673 30.6086 178.699 30.6086C178.726 30.6086 178.746 30.5953 178.759 30.5686L181.019 25.9486ZM185.789 24.5486C185.896 24.5486 185.976 24.5953 186.029 24.6886C186.549 25.6886 186.969 26.9353 187.289 28.4286C187.622 29.9219 187.789 31.4886 187.789 33.1286C187.789 34.8219 187.622 36.4353 187.289 37.9686C186.956 39.4886 186.522 40.7486 185.989 41.7486C185.936 41.8419 185.856 41.8886 185.749 41.8886H184.789C184.722 41.8886 184.669 41.8619 184.629 41.8086C184.602 41.7686 184.602 41.7219 184.629 41.6686C185.082 40.6019 185.456 39.3219 185.749 37.8286C186.042 36.3219 186.189 34.7686 186.189 33.1686C186.189 31.5819 186.042 30.0553 185.749 28.5886C185.456 27.1086 185.082 25.8353 184.629 24.7686C184.616 24.7553 184.609 24.7286 184.609 24.6886C184.609 24.6486 184.622 24.6153 184.649 24.5886C184.689 24.5619 184.736 24.5486 184.789 24.5486H185.789Z" fill="#6B6B6B"/>
<defs>
<clipPath id="clip0_6988_8877">
<rect width="48.5247" height="43.6171" fill="white"/>
</clipPath>
</defs>
</svg>
