<svg width="49" height="44" viewBox="0 0 49 44" fill="none" xmlns="http://www.w3.org/2000/svg">
<g clip-path="url(#clip0_6161_1246)">
<path d="M28.1325 0.09375C23.3556 0.09375 19.4932 3.69774 19.4932 8.15374C19.4932 9.53115 19.9419 11.0534 20.6349 12.5899C20.9302 13.2487 21.271 13.9105 21.6402 14.5608C22.4695 16.0178 23.4408 17.4264 24.378 18.6675C26.3348 21.2633 28.1325 23.1207 28.1325 23.1207C28.1325 23.1207 30.1773 21.0077 32.279 18.1421C32.8583 17.3526 33.4405 16.5063 33.9858 15.6287C34.409 14.9528 34.8094 14.257 35.1673 13.5555C36.1158 11.7009 36.7719 9.818 36.7719 8.15374C36.7719 3.69774 32.9094 0.09375 28.1325 0.09375ZM28.1325 5.27396C29.8365 5.27396 31.2168 6.56333 31.2168 8.15374C31.2168 9.74132 29.8365 11.0307 28.1325 11.0307C26.4285 11.0307 25.0454 9.74132 25.0454 8.15374C25.0454 6.56333 26.4285 5.27396 28.1325 5.27396Z" fill="#F4F7F9"/>
<path d="M48.3401 26.3472C48.2748 25.9922 47.8544 25.4526 47.5647 25.4299C46.2669 25.3305 44.9576 25.3845 43.6938 25.3845C42.9383 29.9569 42.8929 30.0961 41.7711 31.2321C40.3113 30.221 38.8033 29.2526 37.3833 28.1677C36.0058 27.1169 34.9579 25.7906 34.583 24.0354C34.1229 21.8799 35.5514 19.3352 38.2693 18.2986C39.766 17.7249 40.3113 19.5652 41.2429 20.3633C41.6603 20.7183 41.8875 21.292 42.2511 21.7208C42.4413 21.948 42.7395 22.2178 43.0008 22.2292C44.2448 22.2832 45.4887 22.2519 46.815 22.2519C45.0826 18.2844 40.0444 15.0382 35.168 13.5558C34.8102 14.2572 34.4097 14.953 33.9866 15.629C33.4413 16.5065 32.8591 17.3529 32.2797 18.1424C30.1781 21.008 28.1333 23.121 28.1333 23.121C28.1333 23.121 26.3356 21.2636 24.3788 18.6678C23.4416 17.4267 22.4703 16.0181 21.641 14.5611C21.2718 13.9108 20.931 13.249 20.6356 12.5901C17.9717 12.5703 15.3077 12.5561 12.6438 12.5532C12.3768 12.5532 11.9537 12.7719 11.8656 12.9934C10.7069 15.8619 9.59361 18.7445 8.3866 21.8287C8.35252 21.9168 8.31843 22.0077 8.28151 22.0986C8.25879 22.1582 8.23891 22.215 8.21335 22.2746C6.14865 27.6451 2.42538 37.1422 0.437364 42.2826C0.278322 42.6916 0.176082 43.1233 0 43.7083C1.69266 43.7083 3.15243 43.7083 4.6122 43.7111C10.6217 43.7111 24.0465 43.2596 30.5899 43.1857C30.8285 43.1829 31.0585 43.1829 31.2772 43.1801H31.2999C37.4344 42.9642 44.5998 38.8973 47.1785 33.7569C48.3543 31.4167 48.8172 28.943 48.3401 26.3472ZM9.12784 33.9926C9.95997 31.1838 11.9451 24.6659 12.8369 21.664C12.8369 21.6612 12.8398 21.6555 12.8398 21.6527C12.9079 21.5163 12.9619 21.3601 13.0073 21.1784C13.4106 19.6022 13.9246 18.0515 14.4699 16.2339C16.333 17.6937 18.0484 18.9291 19.6303 20.3179C20.8287 21.3715 21.1838 22.8796 20.6243 24.3393C20.1869 25.4924 19.5593 26.7704 18.6277 27.5031C15.6429 29.8547 12.4762 31.9762 9.3806 34.1885C9.29824 34.1232 9.21304 34.0579 9.12784 33.9926ZM35.0828 36.452C33.0835 37.128 30.9847 37.4631 28.8745 37.5454L18.5965 37.9487H12.2604C12.7489 37.5085 12.996 37.2558 13.2743 37.0456C15.5321 35.3331 17.7842 33.6177 20.0591 31.9279C26.6991 26.9948 33.4725 29.3889 38.6073 34.7225C37.5253 35.4921 36.3296 36.0346 35.0828 36.452Z" fill="#0B83CF"/>
</g>
<defs>
<clipPath id="clip0_6161_1246">
<rect width="48.5247" height="43.6171" fill="white" transform="translate(0 0.09375)"/>
</clipPath>
</defs>
</svg>
