<svg xmlns="http://www.w3.org/2000/svg" width="66" height="67" viewBox="0 0 66 67" fill="none">
  <path d="M60.0133 35.9937C60.0133 52.2892 46.8023 65.4999 30.5066 65.4999C14.211 65.4999 1 52.2892 1 35.9937C1 19.6983 14.211 6.48657 30.5066 6.48657C46.8023 6.48657 60.0133 19.6973 60.0133 35.9928V35.9937Z" stroke="#464646" stroke-width="2" stroke-linecap="round" stroke-linejoin="round"/>
  <path d="M30.5069 57.3885C42.3049 57.3885 51.9029 47.7907 51.9029 35.9928C51.9029 24.195 42.3049 14.5972 30.5069 14.5972C18.7088 14.5972 9.11087 24.196 9.11087 35.9938C9.11087 47.7916 18.7088 57.3895 30.5069 57.3895V57.3885Z" stroke="#464646" stroke-width="2" stroke-linecap="round" stroke-linejoin="round"/>
  <path d="M30.5066 49.278C23.1811 49.278 17.2213 43.3183 17.2213 35.9929C17.2213 28.6675 23.1811 22.7078 30.5066 22.7078C37.8321 22.7078 43.7919 28.6675 43.7919 35.9929C43.7919 43.3183 37.8321 49.278 30.5066 49.278Z" stroke="#464646" stroke-width="2" stroke-linecap="round" stroke-linejoin="round"/>
  <path d="M30.5065 41.1676C27.6536 41.1676 25.3328 38.8468 25.3328 35.9939C25.3328 33.1411 27.6536 30.8203 30.5065 30.8203C33.3595 30.8203 35.6812 33.1411 35.6812 35.9939C35.6812 38.8468 33.3595 41.1676 30.5065 41.1676Z" stroke="#464646" stroke-width="2" stroke-linecap="round" stroke-linejoin="round"/>
  <path d="M30.5067 35.9939L62.7503 3.74976" stroke="#464646" stroke-width="2" stroke-linecap="round" stroke-linejoin="round"/>
  <path d="M57.8603 1.63557L51.3867 8.10815C51.1085 8.3863 50.9637 8.77067 50.9878 9.16374L51.3625 15.1361L58.9893 7.50938L58.6387 1.92916C58.6136 1.53609 58.1375 1.35646 57.8594 1.6346L57.8603 1.63557Z" stroke="#464646" stroke-width="2" stroke-linecap="round" stroke-linejoin="round"/>
  <path d="M64.8644 8.63923L58.3917 15.1118C58.1136 15.39 57.7292 15.5348 57.3361 15.5107L51.3637 15.136L58.9905 7.50928L64.5708 7.85985C64.9639 7.884 65.1435 8.36109 64.8654 8.63923H64.8644Z" stroke="#464646" stroke-width="2" stroke-linecap="round" stroke-linejoin="round"/>
</svg>