<svg xmlns="http://www.w3.org/2000/svg" width="66" height="67" viewBox="0 0 66 67" fill="none">
  <path d="M22.8284 32.6356C23.3367 33.1429 23.3367 33.9663 22.8284 34.4746C22.3211 34.982 21.4977 34.982 20.9894 34.4746C20.4811 33.9663 20.4811 33.1429 20.9894 32.6356C21.4977 32.1273 22.3211 32.1273 22.8284 32.6356Z" stroke="#464646" stroke-width="2" stroke-linecap="round" stroke-linejoin="round"/>
  <path d="M28.8081 19.298L36.4871 11.618C40.0159 8.08927 44.7749 5.78878 49.3934 4.28927C57.409 1.68732 65.0003 1.5 65.0003 1.5C65.0003 1.5 64.8129 9.09122 62.211 17.1068C60.7115 21.7263 58.411 26.4844 54.8822 30.0132L32.9456 51.9497L14.5495 33.5537L28.8081 19.2971V19.298Z" stroke="#464646" stroke-width="2" stroke-linecap="round" stroke-linejoin="round"/>
  <path d="M29.7258 48.7312L25.5882 55.6298L10.8712 40.9127L17.7697 36.7751" stroke="#464646" stroke-width="2" stroke-linecap="round" stroke-linejoin="round"/>
  <path d="M47.2038 37.6943L45.8233 50.1119L34.7863 61.149L33.4058 51.4904" stroke="#464646" stroke-width="2" stroke-linecap="round" stroke-linejoin="round"/>
  <path d="M15.01 33.0942L5.35144 31.7137L16.3885 20.6766L28.8061 19.2961" stroke="#464646" stroke-width="2" stroke-linecap="round" stroke-linejoin="round"/>
  <path d="M14.5493 51.9507L1 65.5" stroke="#464646" stroke-width="2" stroke-linecap="round" stroke-linejoin="round"/>
  <path d="M18.2293 55.6299L10.1981 63.6611" stroke="#464646" stroke-width="2" stroke-linecap="round" stroke-linejoin="round"/>
  <path d="M10.8711 48.2708L2.8399 56.302" stroke="#464646" stroke-width="2" stroke-linecap="round" stroke-linejoin="round"/>
  <path d="M46.6039 29.0941C44.0634 31.6346 39.9454 31.6346 37.4058 29.0941C34.8654 26.5546 34.8654 22.4366 37.4058 19.8961C39.9454 17.3566 44.0634 17.3566 46.6039 19.8961C49.1434 22.4366 49.1434 26.5546 46.6039 29.0941Z" stroke="#464646" stroke-width="2" stroke-linecap="round" stroke-linejoin="round"/>
  <path d="M49.3933 4.28931L62.2118 17.1078" stroke="#464646" stroke-width="2" stroke-linecap="round" stroke-linejoin="round"/>
  <path d="M25.5885 37.2336L36.6255 48.2707" stroke="#464646" stroke-width="2" stroke-linecap="round" stroke-linejoin="round"/>
</svg>