<svg width="140" height="36" viewBox="0 0 140 36" fill="none" xmlns="http://www.w3.org/2000/svg">
<path d="M33.6764 20.7894C33.6309 20.542 33.3381 20.1661 33.1362 20.1503C32.2321 20.081 31.32 20.1186 30.4395 20.1186C29.9132 23.3041 29.8816 23.401 29.1001 24.1924C28.0831 23.4881 27.0325 22.8134 26.0433 22.0576C25.0837 21.3255 24.3536 20.4016 24.0924 19.1788C23.7719 17.6771 24.7671 15.9044 26.6606 15.1822C27.7032 14.7826 28.0831 16.0647 28.7321 16.6206C29.0229 16.8679 29.1812 17.2676 29.4344 17.5664C29.567 17.7246 29.7747 17.9126 29.9568 17.9205C30.8234 17.9581 31.69 17.9363 32.6139 17.9363C31.407 15.1723 27.8971 12.9109 24.5 11.8781C24.2507 12.3668 23.9717 12.8515 23.6769 13.3224C23.2971 13.9338 22.8915 14.5234 22.4879 15.0734C21.0238 17.0697 19.5992 18.5418 19.5992 18.5418C19.5992 18.5418 18.3468 17.2478 16.9836 15.4394C16.3307 14.5748 15.654 13.5935 15.0763 12.5785C14.8191 12.1254 14.5817 11.6644 14.3759 11.2054C12.5201 11.1916 10.6642 11.1817 8.80837 11.1797C8.62239 11.1797 8.32759 11.332 8.26626 11.4864C7.45902 13.4847 6.68344 15.4929 5.84257 17.6415C5.81883 17.7029 5.79508 17.7662 5.76936 17.8295C5.75354 17.871 5.73969 17.9106 5.72188 17.9522C4.2835 21.6935 1.68966 28.3097 0.304692 31.8908C0.193895 32.1757 0.122668 32.4765 0 32.8841C1.1792 32.8841 2.19616 32.8841 3.21312 32.886C7.39966 32.886 16.7521 32.5714 21.3106 32.52C21.4768 32.518 21.6371 32.518 21.7894 32.5161H21.8053C26.0789 32.3657 31.0707 29.5324 32.8672 25.9513C33.6863 24.321 34.0088 22.5977 33.6764 20.7894ZM6.35896 26.1155C6.93867 24.1588 8.32165 19.6181 8.94291 17.5268C8.94291 17.5248 8.94489 17.5208 8.94489 17.5189C8.99237 17.4239 9.02996 17.3151 9.06162 17.1885C9.34257 16.0904 9.70068 15.0101 10.0806 13.7438C11.3785 14.7608 12.5735 15.6215 13.6755 16.589C14.5105 17.323 14.7578 18.3736 14.368 19.3905C14.0633 20.1938 13.6261 21.0842 12.9771 21.5946C10.8977 23.2328 8.69164 24.7108 6.53505 26.2521C6.47767 26.2065 6.41832 26.161 6.35896 26.1155ZM24.4407 27.8289C23.0478 28.2998 21.5857 28.5333 20.1156 28.5907L12.9553 28.8716H8.54127C8.88158 28.5649 9.05371 28.3889 9.2476 28.2424C10.8205 27.0494 12.3895 25.8544 13.9743 24.6772C18.6001 21.2405 23.3188 22.9084 26.896 26.624C26.1422 27.1602 25.3092 27.5381 24.4407 27.8289Z" fill="#D73F3F"/>
<path d="M19.5987 2.5C16.2709 2.5 13.5801 5.01074 13.5801 8.11504C13.5801 9.07462 13.8927 10.1351 14.3754 11.2055C14.5812 11.6645 14.8186 12.1255 15.0758 12.5786C15.6536 13.5936 16.3302 14.5749 16.9831 15.4395C18.3463 17.2479 19.5987 18.5418 19.5987 18.5418C19.5987 18.5418 21.0233 17.0698 22.4874 15.0735C22.891 14.5235 23.2966 13.9339 23.6765 13.3225C23.9713 12.8516 24.2502 12.3669 24.4995 11.8782C25.1604 10.5862 25.6174 9.27445 25.6174 8.11504C25.6174 5.01074 22.9266 2.5 19.5987 2.5ZM19.5987 6.10882C20.7858 6.10882 21.7474 7.00707 21.7474 8.11504C21.7474 9.22103 20.7858 10.1193 19.5987 10.1193C18.4116 10.1193 17.4481 9.22103 17.4481 8.11504C17.4481 7.00707 18.4116 6.10882 19.5987 6.10882Z" fill="#464646" stroke="white" stroke-width="0.5"/>
<path d="M46.289 17C46.1961 17 46.1497 16.9536 46.1497 16.8607V7.38615C46.1497 7.29326 46.1961 7.24682 46.289 7.24682H48.4347C49.1499 7.24682 49.7212 7.48368 50.1485 7.95741C50.5758 8.42185 50.7894 9.04884 50.7894 9.83838V14.4084C50.7894 15.198 50.5758 15.8296 50.1485 16.3033C49.7212 16.7678 49.1499 17 48.4347 17H46.289ZM47.1389 16.0804C47.1389 16.1176 47.1575 16.1361 47.1947 16.1361L48.4208 16.1222C48.8295 16.1222 49.1546 15.9643 49.3961 15.6485C49.6469 15.3327 49.7769 14.9054 49.7862 14.3666V9.88018C49.7862 9.33214 49.6655 8.90022 49.424 8.5844C49.1824 8.26858 48.848 8.11067 48.4208 8.11067H47.1947C47.1575 8.11067 47.1389 8.12925 47.1389 8.16641V16.0804ZM54.4377 9.88018C54.6699 9.88018 54.8696 9.93127 55.0368 10.0334C55.1018 10.0706 55.1251 10.131 55.1065 10.2146L54.9393 10.9391C54.93 11.0227 54.8743 11.0506 54.7721 11.0227C54.6606 10.967 54.5213 10.9391 54.3541 10.9391C54.2798 10.9391 54.2241 10.9437 54.1869 10.953C53.8525 10.9716 53.5785 11.1481 53.3648 11.4825C53.1512 11.8076 53.0444 12.207 53.0444 12.6807V16.8607C53.0444 16.9536 52.9979 17 52.9051 17H52.1945C52.1016 17 52.0551 16.9536 52.0551 16.8607V10.0892C52.0551 9.99629 52.1016 9.94984 52.1945 9.94984H52.9051C52.9979 9.94984 53.0444 9.99629 53.0444 10.0892V10.9252C53.0444 10.953 53.049 10.967 53.0583 10.967C53.0769 10.967 53.0955 10.9577 53.114 10.9391C53.3834 10.2332 53.8246 9.88018 54.4377 9.88018ZM57.6853 17.1115C57.0165 17.1115 56.4824 16.9164 56.083 16.5263C55.6929 16.1361 55.4978 15.6206 55.4978 14.9797V11.9841C55.4978 11.3524 55.6975 10.8369 56.0969 10.4375C56.4963 10.0381 57.0258 9.83838 57.6853 9.83838C58.3541 9.83838 58.8882 10.0381 59.2876 10.4375C59.687 10.8369 59.8867 11.3524 59.8867 11.9841V14.9797C59.8867 15.6206 59.687 16.1361 59.2876 16.5263C58.8882 16.9164 58.3541 17.1115 57.6853 17.1115ZM57.6853 16.2337C58.0383 16.2337 58.3262 16.1129 58.5492 15.8714C58.7814 15.6299 58.8975 15.3094 58.8975 14.91V12.0398C58.8975 11.6404 58.7814 11.3199 58.5492 11.0784C58.3262 10.8276 58.0383 10.7022 57.6853 10.7022C57.3323 10.7022 57.0444 10.8276 56.8215 11.0784C56.5985 11.3199 56.4871 11.6404 56.4871 12.0398V14.91C56.4871 15.3094 56.5985 15.6299 56.8215 15.8714C57.0444 16.1129 57.3323 16.2337 57.6853 16.2337ZM63.5238 9.85231C64.0904 9.85231 64.527 10.0474 64.8335 10.4375C65.1494 10.8276 65.3073 11.371 65.3073 12.0677V16.8607C65.3073 16.9536 65.2608 17 65.1679 17H64.4573C64.3645 17 64.318 16.9536 64.318 16.8607V12.1513C64.318 11.6961 64.2158 11.3432 64.0115 11.0924C63.8164 10.8416 63.5424 10.7162 63.1894 10.7162C62.8179 10.7162 62.5253 10.8509 62.3116 11.1202C62.1073 11.3896 62.0051 11.7565 62.0051 12.2209V16.8607C62.0051 16.9536 61.9587 17 61.8658 17H61.1552C61.0623 17 61.0159 16.9536 61.0159 16.8607V10.0892C61.0159 9.99629 61.0623 9.94984 61.1552 9.94984H61.8658C61.9587 9.94984 62.0051 9.99629 62.0051 10.0892V10.535C62.0051 10.5536 62.0144 10.5675 62.033 10.5768C62.0516 10.5861 62.0655 10.5768 62.0748 10.549C62.242 10.3167 62.451 10.1449 62.7018 10.0334C62.9619 9.91269 63.2359 9.85231 63.5238 9.85231ZM70.7109 13.7118C70.7109 13.8047 70.6645 13.8511 70.5716 13.8511H67.3948C67.3577 13.8511 67.3391 13.8697 67.3391 13.9068V14.924C67.3391 15.3141 67.4459 15.6346 67.6596 15.8854C67.8825 16.1269 68.1704 16.2476 68.5234 16.2476C68.8207 16.2476 69.0715 16.1594 69.2758 15.9829C69.4894 15.7971 69.6288 15.5602 69.6938 15.2723C69.7217 15.1887 69.7728 15.1469 69.8471 15.1469L70.5437 15.1748C70.5809 15.1748 70.6134 15.1887 70.6413 15.2166C70.6691 15.2444 70.6784 15.2816 70.6691 15.328C70.5948 15.8761 70.3672 16.3126 69.9864 16.6377C69.6148 16.9536 69.1272 17.1115 68.5234 17.1115C67.8639 17.1115 67.3345 16.9164 66.935 16.5263C66.5449 16.1361 66.3499 15.6206 66.3499 14.9797V11.9701C66.3499 11.3385 66.5449 10.8276 66.935 10.4375C67.3345 10.0381 67.8639 9.83838 68.5234 9.83838C69.1922 9.83838 69.7217 10.0381 70.1118 10.4375C70.5112 10.8276 70.7109 11.3385 70.7109 11.9701V13.7118ZM68.5234 10.7022C68.1704 10.7022 67.8825 10.8276 67.6596 11.0784C67.4459 11.3199 67.3391 11.6404 67.3391 12.0398V12.9733C67.3391 13.0105 67.3577 13.0291 67.3948 13.0291H69.6799C69.717 13.0291 69.7356 13.0105 69.7356 12.9733V12.0398C69.7356 11.6404 69.6241 11.3199 69.4012 11.0784C69.1783 10.8276 68.8857 10.7022 68.5234 10.7022ZM78.5611 7.24682C78.654 7.24682 78.7005 7.29326 78.7005 7.38615V7.97134C78.7005 8.06423 78.654 8.11067 78.5611 8.11067H76.722C76.6848 8.11067 76.6662 8.12925 76.6662 8.16641V16.8607C76.6662 16.9536 76.6198 17 76.5269 17H75.8163C75.7234 17 75.677 16.9536 75.677 16.8607V8.16641C75.677 8.12925 75.6584 8.11067 75.6213 8.11067H73.8935C73.8007 8.11067 73.7542 8.06423 73.7542 7.97134V7.38615C73.7542 7.29326 73.8007 7.24682 73.8935 7.24682H78.5611ZM81.3668 9.83838C82.017 9.83838 82.5372 10.052 82.9273 10.4793C83.3174 10.8973 83.5125 11.4593 83.5125 12.1652V16.8607C83.5125 16.9536 83.4661 17 83.3732 17H82.6626C82.5697 17 82.5233 16.9536 82.5233 16.8607V16.4427C82.5233 16.4241 82.514 16.4148 82.4954 16.4148C82.4861 16.4055 82.4722 16.4102 82.4536 16.4287C82.1099 16.8839 81.5944 17.1115 80.907 17.1115C80.3961 17.1115 79.9503 16.9675 79.5694 16.6795C79.1979 16.3823 79.0121 15.8621 79.0121 15.119C79.0121 14.3295 79.2397 13.7536 79.6948 13.3913C80.15 13.0198 80.7491 12.834 81.4922 12.834H82.4675C82.5047 12.834 82.5233 12.8154 82.5233 12.7783V12.2349C82.5233 11.7704 82.4164 11.3989 82.2028 11.1202C81.9892 10.8416 81.7012 10.7022 81.3389 10.7022C81.0603 10.7022 80.8188 10.7951 80.6144 10.9809C80.4194 11.1667 80.3033 11.4035 80.2661 11.6915C80.2661 11.7844 80.2197 11.8308 80.1268 11.8308L79.3465 11.8169C79.3001 11.8169 79.2629 11.8029 79.235 11.7751C79.2165 11.7472 79.2118 11.7147 79.2211 11.6776C79.2676 11.1295 79.4905 10.6883 79.8899 10.3539C80.2893 10.0102 80.7816 9.83838 81.3668 9.83838ZM81.116 16.2476C81.4969 16.2476 81.8266 16.1269 82.1053 15.8854C82.3839 15.6346 82.5233 15.2909 82.5233 14.8543V13.6839C82.5233 13.6468 82.5047 13.6282 82.4675 13.6282H81.4783C81.0324 13.6282 80.6794 13.7489 80.4194 13.9904C80.1593 14.2227 80.0292 14.571 80.0292 15.0354C80.0292 15.4441 80.1268 15.7507 80.3218 15.955C80.5262 16.1501 80.7909 16.2476 81.116 16.2476ZM86.4815 17.0697C85.8405 17.0697 85.325 16.9071 84.9349 16.582C84.554 16.2476 84.3636 15.8064 84.3636 15.2584V15.1608C84.3636 15.0679 84.4101 15.0215 84.503 15.0215H85.1717C85.2646 15.0215 85.3111 15.0679 85.3111 15.1608V15.2444C85.3111 15.5417 85.4179 15.7925 85.6315 15.9968C85.8545 16.2012 86.1424 16.3033 86.4954 16.3033C86.8298 16.3033 87.0992 16.2012 87.3035 15.9968C87.5079 15.7925 87.61 15.5324 87.61 15.2166C87.61 14.9751 87.545 14.7753 87.415 14.6174C87.2849 14.4502 87.1317 14.3202 86.9552 14.2273C86.788 14.1344 86.5325 14.0137 86.1889 13.865C85.8266 13.7164 85.5247 13.5725 85.2832 13.4331C85.051 13.2845 84.8466 13.0802 84.6702 12.8201C84.503 12.5507 84.4194 12.2117 84.4194 11.8029C84.4194 11.2085 84.6005 10.7394 84.9628 10.3957C85.3343 10.052 85.8312 9.88018 86.4536 9.88018C87.0852 9.88018 87.5868 10.0567 87.9584 10.4096C88.3299 10.7626 88.5157 11.2317 88.5157 11.8169V11.8587C88.5157 11.9516 88.4693 11.998 88.3764 11.998H87.7354C87.6426 11.998 87.5961 11.9516 87.5961 11.8587V11.7751C87.5961 11.4593 87.4893 11.1992 87.2756 10.9948C87.0713 10.7905 86.8019 10.6883 86.4675 10.6883C86.1331 10.6883 85.8638 10.7951 85.6594 11.0088C85.4643 11.2131 85.3668 11.4686 85.3668 11.7751C85.3668 11.998 85.4272 12.1884 85.5479 12.3463C85.6687 12.495 85.8173 12.6204 85.9938 12.7225C86.1703 12.8154 86.4164 12.9315 86.7323 13.0709C87.1131 13.2381 87.4243 13.396 87.6658 13.5446C87.9166 13.6932 88.1349 13.9022 88.3206 14.1716C88.5064 14.441 88.5993 14.7753 88.5993 15.1748C88.5993 15.7507 88.4089 16.2105 88.028 16.5541C87.6472 16.8978 87.1317 17.0697 86.4815 17.0697ZM89.5749 17C89.4821 17 89.4356 16.9536 89.4356 16.8607V7.38615C89.4356 7.29326 89.4821 7.24682 89.5749 7.24682H90.2855C90.3784 7.24682 90.4249 7.29326 90.4249 7.38615V12.9873C90.4249 13.0058 90.4341 13.0198 90.4527 13.0291C90.4713 13.0384 90.4852 13.0337 90.4945 13.0151L92.5845 10.0334C92.6216 9.97771 92.6774 9.94984 92.7517 9.94984H93.4762C93.5319 9.94984 93.5691 9.96842 93.5877 10.0056C93.6063 10.0334 93.597 10.0706 93.5598 10.117L92.1804 12.0955C92.1526 12.1234 92.1479 12.1513 92.1665 12.1791L93.8106 16.8467L93.8245 16.9025C93.8245 16.9675 93.7827 17 93.6991 17H92.9607C92.8771 17 92.8214 16.9628 92.7935 16.8885L91.5534 13.0151C91.5442 12.9594 91.5163 12.9548 91.4698 13.0012L90.4527 14.4502C90.4341 14.4688 90.4249 14.492 90.4249 14.5199V16.8607C90.4249 16.9536 90.3784 17 90.2855 17H89.5749ZM95.2635 8.668C95.0312 8.668 94.8408 8.59369 94.6922 8.44507C94.5529 8.29645 94.4832 8.11067 94.4832 7.88774C94.4832 7.65552 94.5529 7.46975 94.6922 7.33042C94.8408 7.1818 95.0312 7.10749 95.2635 7.10749C95.4864 7.10749 95.6675 7.1818 95.8069 7.33042C95.9555 7.46975 96.0298 7.65552 96.0298 7.88774C96.0298 8.11067 95.9555 8.29645 95.8069 8.44507C95.6675 8.59369 95.4864 8.668 95.2635 8.668ZM94.9151 17C94.8222 17 94.7758 16.9536 94.7758 16.8607V10.0892C94.7758 9.99629 94.8222 9.94984 94.9151 9.94984H95.6257C95.7186 9.94984 95.7651 9.99629 95.7651 10.0892V16.8607C95.7651 16.9536 95.7186 17 95.6257 17H94.9151ZM99.6525 9.85231C100.219 9.85231 100.656 10.0474 100.962 10.4375C101.278 10.8276 101.436 11.371 101.436 12.0677V16.8607C101.436 16.9536 101.389 17 101.297 17H100.586C100.493 17 100.447 16.9536 100.447 16.8607V12.1513C100.447 11.6961 100.345 11.3432 100.14 11.0924C99.9451 10.8416 99.6711 10.7162 99.3181 10.7162C98.9466 10.7162 98.654 10.8509 98.4403 11.1202C98.236 11.3896 98.1338 11.7565 98.1338 12.2209V16.8607C98.1338 16.9536 98.0873 17 97.9945 17H97.2839C97.191 17 97.1445 16.9536 97.1445 16.8607V10.0892C97.1445 9.99629 97.191 9.94984 97.2839 9.94984H97.9945C98.0873 9.94984 98.1338 9.99629 98.1338 10.0892V10.535C98.1338 10.5536 98.1431 10.5675 98.1617 10.5768C98.1802 10.5861 98.1942 10.5768 98.2035 10.549C98.3707 10.3167 98.5796 10.1449 98.8304 10.0334C99.0905 9.91269 99.3645 9.85231 99.6525 9.85231ZM105.836 10.0892C105.836 9.99629 105.883 9.94984 105.976 9.94984H106.686C106.779 9.94984 106.826 9.99629 106.826 10.0892V16.8607C106.826 17.8546 106.593 18.607 106.129 19.1178C105.674 19.638 104.908 19.8749 103.83 19.8284C103.737 19.8191 103.691 19.768 103.691 19.6752V19.076C103.691 18.9831 103.737 18.9367 103.83 18.9367C104.573 18.9553 105.093 18.7834 105.391 18.4212C105.688 18.0682 105.836 17.5202 105.836 16.7771V16.3591C105.836 16.3405 105.827 16.3266 105.809 16.3173C105.799 16.308 105.785 16.3126 105.767 16.3312C105.609 16.5634 105.404 16.7399 105.154 16.8607C104.912 16.9814 104.652 17.0418 104.373 17.0418C103.788 17.0418 103.324 16.8467 102.98 16.4566C102.646 16.0665 102.479 15.551 102.479 14.91V11.9701C102.479 11.3199 102.646 10.8044 102.98 10.4236C103.324 10.0334 103.788 9.83838 104.373 9.83838C104.652 9.83838 104.912 9.89876 105.154 10.0195C105.404 10.131 105.609 10.3028 105.767 10.535C105.785 10.5629 105.799 10.5768 105.809 10.5768C105.827 10.5675 105.836 10.549 105.836 10.5211V10.0892ZM104.666 16.1779C105.01 16.1779 105.288 16.0572 105.502 15.8157C105.725 15.5649 105.836 15.2444 105.836 14.8543V12.0398C105.836 11.6404 105.725 11.3199 105.502 11.0784C105.288 10.8276 105.01 10.7022 104.666 10.7022C104.313 10.7022 104.025 10.8276 103.802 11.0784C103.579 11.3199 103.468 11.6404 103.468 12.0398V14.8543C103.468 15.2444 103.579 15.5649 103.802 15.8157C104.025 16.0572 104.313 16.1779 104.666 16.1779ZM50.3993 20.3444C50.4271 20.2793 50.4829 20.2468 50.5665 20.2468H51.291C51.3839 20.2468 51.4303 20.2933 51.4303 20.3862V29.8607C51.4303 29.9536 51.3839 30 51.291 30H50.5804C50.4875 30 50.4411 29.9536 50.4411 29.8607V22.3925C50.4411 22.3647 50.4318 22.3507 50.4132 22.3507C50.4039 22.3507 50.39 22.36 50.3714 22.3786L48.9224 25.3881C48.8945 25.4532 48.848 25.4857 48.783 25.4857C48.7087 25.4857 48.6576 25.4532 48.6298 25.3881L47.1807 22.3925C47.1621 22.3739 47.1436 22.3647 47.125 22.3647C47.1157 22.3647 47.1111 22.3786 47.1111 22.4065V29.8607C47.1111 29.9536 47.0646 30 46.9717 30H46.2611C46.1682 30 46.1218 29.9536 46.1218 29.8607V20.3862C46.1218 20.2933 46.1682 20.2468 46.2611 20.2468H46.9857C47.0693 20.2468 47.125 20.2793 47.1529 20.3444L48.7412 23.5629C48.7505 23.5815 48.7644 23.5908 48.783 23.5908C48.8016 23.5908 48.8155 23.5815 48.8248 23.5629L50.3993 20.3444ZM54.9064 22.8384C55.5566 22.8384 56.0768 23.052 56.4669 23.4793C56.857 23.8973 57.0521 24.4593 57.0521 25.1652V29.8607C57.0521 29.9536 57.0057 30 56.9128 30H56.2022C56.1093 30 56.0629 29.9536 56.0629 29.8607V29.4427C56.0629 29.4241 56.0536 29.4148 56.035 29.4148C56.0257 29.4055 56.0118 29.4102 55.9932 29.4287C55.6495 29.8839 55.134 30.1115 54.4466 30.1115C53.9357 30.1115 53.4899 29.9675 53.109 29.6795C52.7375 29.3823 52.5517 28.8621 52.5517 28.119C52.5517 27.3295 52.7793 26.7536 53.2344 26.3913C53.6896 26.0198 54.2887 25.834 55.0318 25.834H56.0071C56.0443 25.834 56.0629 25.8154 56.0629 25.7783V25.2349C56.0629 24.7704 55.956 24.3989 55.7424 24.1202C55.5288 23.8416 55.2408 23.7022 54.8785 23.7022C54.5999 23.7022 54.3584 23.7951 54.154 23.9809C53.959 24.1667 53.8429 24.4035 53.8057 24.6915C53.8057 24.7844 53.7593 24.8308 53.6664 24.8308L52.8861 24.8169C52.8397 24.8169 52.8025 24.8029 52.7746 24.7751C52.7561 24.7472 52.7514 24.7147 52.7607 24.6776C52.8072 24.1295 53.0301 23.6883 53.4295 23.3539C53.8289 23.0102 54.3212 22.8384 54.9064 22.8384ZM54.6556 29.2476C55.0365 29.2476 55.3662 29.1269 55.6449 28.8854C55.9235 28.6346 56.0629 28.2909 56.0629 27.8543V26.6839C56.0629 26.6468 56.0443 26.6282 56.0071 26.6282H55.0179C54.572 26.6282 54.219 26.7489 53.959 26.9904C53.6989 27.2227 53.5688 27.571 53.5688 28.0354C53.5688 28.4441 53.6664 28.7507 53.8614 28.955C54.0658 29.1501 54.3305 29.2476 54.6556 29.2476ZM60.6899 22.8523C61.2565 22.8523 61.693 23.0474 61.9996 23.4375C62.3154 23.8276 62.4733 24.371 62.4733 25.0677V29.8607C62.4733 29.9536 62.4268 30 62.334 30H61.6234C61.5305 30 61.484 29.9536 61.484 29.8607V25.1513C61.484 24.6961 61.3819 24.3432 61.1775 24.0924C60.9824 23.8416 60.7084 23.7162 60.3555 23.7162C59.9839 23.7162 59.6913 23.8509 59.4777 24.1202C59.2733 24.3896 59.1711 24.7565 59.1711 25.2209V29.8607C59.1711 29.9536 59.1247 30 59.0318 30H58.3212C58.2283 30 58.1819 29.9536 58.1819 29.8607V23.0892C58.1819 22.9963 58.2283 22.9498 58.3212 22.9498H59.0318C59.1247 22.9498 59.1711 22.9963 59.1711 23.0892V23.535C59.1711 23.5536 59.1804 23.5675 59.199 23.5768C59.2176 23.5861 59.2315 23.5768 59.2408 23.549C59.408 23.3167 59.617 23.1449 59.8678 23.0334C60.1279 22.9127 60.4019 22.8523 60.6899 22.8523ZM65.7312 22.8384C66.3815 22.8384 66.9016 23.052 67.2918 23.4793C67.6819 23.8973 67.8769 24.4593 67.8769 25.1652V29.8607C67.8769 29.9536 67.8305 30 67.7376 30H67.027C66.9341 30 66.8877 29.9536 66.8877 29.8607V29.4427C66.8877 29.4241 66.8784 29.4148 66.8598 29.4148C66.8505 29.4055 66.8366 29.4102 66.818 29.4287C66.4743 29.8839 65.9588 30.1115 65.2715 30.1115C64.7606 30.1115 64.3147 29.9675 63.9339 29.6795C63.5623 29.3823 63.3765 28.8621 63.3765 28.119C63.3765 27.3295 63.6041 26.7536 64.0593 26.3913C64.5144 26.0198 65.1135 25.834 65.8566 25.834H66.832C66.8691 25.834 66.8877 25.8154 66.8877 25.7783V25.2349C66.8877 24.7704 66.7809 24.3989 66.5672 24.1202C66.3536 23.8416 66.0656 23.7022 65.7034 23.7022C65.4247 23.7022 65.1832 23.7951 64.9789 23.9809C64.7838 24.1667 64.6677 24.4035 64.6305 24.6915C64.6305 24.7844 64.5841 24.8308 64.4912 24.8308L63.7109 24.8169C63.6645 24.8169 63.6273 24.8029 63.5995 24.7751C63.5809 24.7472 63.5763 24.7147 63.5855 24.6776C63.632 24.1295 63.8549 23.6883 64.2543 23.3539C64.6538 23.0102 65.1461 22.8384 65.7312 22.8384ZM65.4804 29.2476C65.8613 29.2476 66.191 29.1269 66.4697 28.8854C66.7484 28.6346 66.8877 28.2909 66.8877 27.8543V26.6839C66.8877 26.6468 66.8691 26.6282 66.832 26.6282H65.8427C65.3968 26.6282 65.0439 26.7489 64.7838 26.9904C64.5237 27.2227 64.3937 27.571 64.3937 28.0354C64.3937 28.4441 64.4912 28.7507 64.6863 28.955C64.8906 29.1501 65.1553 29.2476 65.4804 29.2476ZM72.2113 23.0892C72.2113 22.9963 72.2578 22.9498 72.3507 22.9498H73.0613C73.1541 22.9498 73.2006 22.9963 73.2006 23.0892V29.8607C73.2006 30.8546 72.9684 31.607 72.5039 32.1178C72.0488 32.638 71.2825 32.8749 70.205 32.8284C70.1121 32.8191 70.0656 32.768 70.0656 32.6752V32.076C70.0656 31.9831 70.1121 31.9367 70.205 31.9367C70.9481 31.9553 71.4682 31.7834 71.7655 31.4212C72.0627 31.0682 72.2113 30.5202 72.2113 29.7771V29.3591C72.2113 29.3405 72.2021 29.3266 72.1835 29.3173C72.1742 29.308 72.1603 29.3126 72.1417 29.3312C71.9838 29.5634 71.7794 29.7399 71.5286 29.8607C71.2871 29.9814 71.027 30.0418 70.7484 30.0418C70.1632 30.0418 69.6987 29.8467 69.3551 29.4566C69.0207 29.0665 68.8535 28.551 68.8535 27.91V24.9701C68.8535 24.3199 69.0207 23.8044 69.3551 23.4236C69.6987 23.0334 70.1632 22.8384 70.7484 22.8384C71.027 22.8384 71.2871 22.8988 71.5286 23.0195C71.7794 23.131 71.9838 23.3028 72.1417 23.535C72.1603 23.5629 72.1742 23.5768 72.1835 23.5768C72.2021 23.5675 72.2113 23.549 72.2113 23.5211V23.0892ZM71.041 29.1779C71.3846 29.1779 71.6633 29.0572 71.8769 28.8157C72.0999 28.5649 72.2113 28.2444 72.2113 27.8543V25.0398C72.2113 24.6404 72.0999 24.3199 71.8769 24.0784C71.6633 23.8276 71.3846 23.7022 71.041 23.7022C70.688 23.7022 70.4 23.8276 70.1771 24.0784C69.9542 24.3199 69.8427 24.6404 69.8427 25.0398V27.8543C69.8427 28.2444 69.9542 28.5649 70.1771 28.8157C70.4 29.0572 70.688 29.1779 71.041 29.1779ZM78.5521 26.7118C78.5521 26.8047 78.5057 26.8511 78.4128 26.8511H75.236C75.1989 26.8511 75.1803 26.8697 75.1803 26.9068V27.924C75.1803 28.3141 75.2871 28.6346 75.5008 28.8854C75.7237 29.1269 76.0116 29.2476 76.3646 29.2476C76.6618 29.2476 76.9126 29.1594 77.117 28.9829C77.3306 28.7971 77.47 28.5602 77.535 28.2723C77.5629 28.1887 77.6139 28.1469 77.6883 28.1469L78.3849 28.1748C78.4221 28.1748 78.4546 28.1887 78.4824 28.2166C78.5103 28.2444 78.5196 28.2816 78.5103 28.328C78.436 28.8761 78.2084 29.3126 77.8276 29.6377C77.456 29.9536 76.9684 30.1115 76.3646 30.1115C75.7051 30.1115 75.1756 29.9164 74.7762 29.5263C74.3861 29.1361 74.191 28.6206 74.191 27.9797V24.9701C74.191 24.3385 74.3861 23.8276 74.7762 23.4375C75.1756 23.0381 75.7051 22.8384 76.3646 22.8384C77.0334 22.8384 77.5629 23.0381 77.953 23.4375C78.3524 23.8276 78.5521 24.3385 78.5521 24.9701V26.7118ZM76.3646 23.7022C76.0116 23.7022 75.7237 23.8276 75.5008 24.0784C75.2871 24.3199 75.1803 24.6404 75.1803 25.0398V25.9733C75.1803 26.0105 75.1989 26.0291 75.236 26.0291H77.5211C77.5582 26.0291 77.5768 26.0105 77.5768 25.9733V25.0398C77.5768 24.6404 77.4653 24.3199 77.2424 24.0784C77.0195 23.8276 76.7269 23.7022 76.3646 23.7022ZM81.9828 22.8802C82.215 22.8802 82.4147 22.9313 82.5819 23.0334C82.647 23.0706 82.6702 23.131 82.6516 23.2146L82.4844 23.9391C82.4751 24.0227 82.4194 24.0506 82.3172 24.0227C82.2057 23.967 82.0664 23.9391 81.8992 23.9391C81.8249 23.9391 81.7692 23.9437 81.732 23.953C81.3976 23.9716 81.1236 24.1481 80.91 24.4825C80.6963 24.8076 80.5895 25.207 80.5895 25.6807V29.8607C80.5895 29.9536 80.5431 30 80.4502 30H79.7396C79.6467 30 79.6002 29.9536 79.6002 29.8607V23.0892C79.6002 22.9963 79.6467 22.9498 79.7396 22.9498H80.4502C80.5431 22.9498 80.5895 22.9963 80.5895 23.0892V23.9252C80.5895 23.953 80.5941 23.967 80.6034 23.967C80.622 23.967 80.6406 23.9577 80.6592 23.9391C80.9285 23.2332 81.3697 22.8802 81.9828 22.8802ZM86.1236 31.449C86.0492 31.449 85.9935 31.4165 85.9564 31.3515C85.5941 30.6456 85.2969 29.7771 85.0646 28.746C84.8417 27.7057 84.7302 26.6143 84.7302 25.4717C84.7302 24.3014 84.8464 23.1867 85.0786 22.1278C85.3108 21.0689 85.6127 20.1818 85.9842 19.4666C86.0214 19.4015 86.0771 19.369 86.1514 19.369H86.8341C86.8806 19.369 86.9131 19.3876 86.9317 19.4248C86.9595 19.4526 86.9642 19.4851 86.9456 19.5223C86.6298 20.2561 86.3697 21.1478 86.1654 22.1975C85.961 23.2471 85.8588 24.3339 85.8588 25.4578C85.8588 26.5632 85.961 27.6314 86.1654 28.6624C86.3697 29.6842 86.6298 30.5573 86.9456 31.2818L86.9595 31.3376C86.9595 31.4119 86.9177 31.449 86.8341 31.449H86.1236ZM88.5853 30C88.4924 30 88.4459 29.9536 88.4459 29.8607V20.3862C88.4459 20.2933 88.4924 20.2468 88.5853 20.2468H90.731C91.4462 20.2468 92.0174 20.4837 92.4447 20.9574C92.872 21.4218 93.0856 22.0488 93.0856 22.8384V27.4084C93.0856 28.198 92.872 28.8296 92.4447 29.3033C92.0174 29.7678 91.4462 30 90.731 30H88.5853ZM89.4352 29.0804C89.4352 29.1176 89.4538 29.1361 89.4909 29.1361L90.717 29.1222C91.1257 29.1222 91.4508 28.9643 91.6923 28.6485C91.9431 28.3327 92.0732 27.9054 92.0825 27.3666V22.8802C92.0825 22.3321 91.9617 21.9002 91.7202 21.5844C91.4787 21.2686 91.1443 21.1107 90.717 21.1107H89.4909C89.4538 21.1107 89.4352 21.1293 89.4352 21.1664V29.0804ZM96.7339 22.8802C96.9662 22.8802 97.1659 22.9313 97.3331 23.0334C97.3981 23.0706 97.4213 23.131 97.4027 23.2146L97.2355 23.9391C97.2263 24.0227 97.1705 24.0506 97.0683 24.0227C96.9569 23.967 96.8175 23.9391 96.6503 23.9391C96.576 23.9391 96.5203 23.9437 96.4832 23.953C96.1488 23.9716 95.8747 24.1481 95.6611 24.4825C95.4475 24.8076 95.3406 25.207 95.3406 25.6807V29.8607C95.3406 29.9536 95.2942 30 95.2013 30H94.4907C94.3978 30 94.3514 29.9536 94.3514 29.8607V23.0892C94.3514 22.9963 94.3978 22.9498 94.4907 22.9498H95.2013C95.2942 22.9498 95.3406 22.9963 95.3406 23.0892V23.9252C95.3406 23.953 95.3453 23.967 95.3546 23.967C95.3731 23.967 95.3917 23.9577 95.4103 23.9391C95.6797 23.2332 96.1209 22.8802 96.7339 22.8802ZM99.9816 30.1115C99.3128 30.1115 98.7787 29.9164 98.3793 29.5263C97.9891 29.1361 97.7941 28.6206 97.7941 27.9797V24.9841C97.7941 24.3524 97.9938 23.8369 98.3932 23.4375C98.7926 23.0381 99.3221 22.8384 99.9816 22.8384C100.65 22.8384 101.184 23.0381 101.584 23.4375C101.983 23.8369 102.183 24.3524 102.183 24.9841V27.9797C102.183 28.6206 101.983 29.1361 101.584 29.5263C101.184 29.9164 100.65 30.1115 99.9816 30.1115ZM99.9816 29.2337C100.335 29.2337 100.622 29.1129 100.845 28.8714C101.078 28.6299 101.194 28.3094 101.194 27.91V25.0398C101.194 24.6404 101.078 24.3199 100.845 24.0784C100.622 23.8276 100.335 23.7022 99.9816 23.7022C99.6286 23.7022 99.3406 23.8276 99.1177 24.0784C98.8948 24.3199 98.7833 24.6404 98.7833 25.0398V27.91C98.7833 28.3094 98.8948 28.6299 99.1177 28.8714C99.3406 29.1129 99.6286 29.2337 99.9816 29.2337ZM105.82 22.8523C106.387 22.8523 106.823 23.0474 107.13 23.4375C107.446 23.8276 107.604 24.371 107.604 25.0677V29.8607C107.604 29.9536 107.557 30 107.464 30H106.754C106.661 30 106.614 29.9536 106.614 29.8607V25.1513C106.614 24.6961 106.512 24.3432 106.308 24.0924C106.113 23.8416 105.839 23.7162 105.486 23.7162C105.114 23.7162 104.822 23.8509 104.608 24.1202C104.404 24.3896 104.301 24.7565 104.301 25.2209V29.8607C104.301 29.9536 104.255 30 104.162 30H103.451C103.359 30 103.312 29.9536 103.312 29.8607V23.0892C103.312 22.9963 103.359 22.9498 103.451 22.9498H104.162C104.255 22.9498 104.301 22.9963 104.301 23.0892V23.535C104.301 23.5536 104.311 23.5675 104.329 23.5768C104.348 23.5861 104.362 23.5768 104.371 23.549C104.538 23.3167 104.747 23.1449 104.998 23.0334C105.258 22.9127 105.532 22.8523 105.82 22.8523ZM113.007 26.7118C113.007 26.8047 112.961 26.8511 112.868 26.8511H109.691C109.654 26.8511 109.635 26.8697 109.635 26.9068V27.924C109.635 28.3141 109.742 28.6346 109.956 28.8854C110.179 29.1269 110.467 29.2476 110.82 29.2476C111.117 29.2476 111.368 29.1594 111.572 28.9829C111.786 28.7971 111.925 28.5602 111.99 28.2723C112.018 28.1887 112.069 28.1469 112.143 28.1469L112.84 28.1748C112.877 28.1748 112.91 28.1887 112.938 28.2166C112.965 28.2444 112.975 28.2816 112.965 28.328C112.891 28.8761 112.663 29.3126 112.283 29.6377C111.911 29.9536 111.423 30.1115 110.82 30.1115C110.16 30.1115 109.631 29.9164 109.231 29.5263C108.841 29.1361 108.646 28.6206 108.646 27.9797V24.9701C108.646 24.3385 108.841 23.8276 109.231 23.4375C109.631 23.0381 110.16 22.8384 110.82 22.8384C111.488 22.8384 112.018 23.0381 112.408 23.4375C112.807 23.8276 113.007 24.3385 113.007 24.9701V26.7118ZM110.82 23.7022C110.467 23.7022 110.179 23.8276 109.956 24.0784C109.742 24.3199 109.635 24.6404 109.635 25.0398V25.9733C109.635 26.0105 109.654 26.0291 109.691 26.0291H111.976C112.013 26.0291 112.032 26.0105 112.032 25.9733V25.0398C112.032 24.6404 111.92 24.3199 111.697 24.0784C111.475 23.8276 111.182 23.7022 110.82 23.7022ZM120.857 20.2468C120.95 20.2468 120.997 20.2933 120.997 20.3862V20.9713C120.997 21.0642 120.95 21.1107 120.857 21.1107H119.018C118.981 21.1107 118.962 21.1293 118.962 21.1664V29.8607C118.962 29.9536 118.916 30 118.823 30H118.113C118.02 30 117.973 29.9536 117.973 29.8607V21.1664C117.973 21.1293 117.955 21.1107 117.918 21.1107H116.19C116.097 21.1107 116.05 21.0642 116.05 20.9713V20.3862C116.05 20.2933 116.097 20.2468 116.19 20.2468H120.857ZM126.303 20.3444C126.331 20.2793 126.387 20.2468 126.47 20.2468H127.195C127.288 20.2468 127.334 20.2933 127.334 20.3862V29.8607C127.334 29.9536 127.288 30 127.195 30H126.484C126.391 30 126.345 29.9536 126.345 29.8607V22.3925C126.345 22.3647 126.336 22.3507 126.317 22.3507C126.308 22.3507 126.294 22.36 126.275 22.3786L124.826 25.3881C124.798 25.4532 124.752 25.4857 124.687 25.4857C124.613 25.4857 124.562 25.4532 124.534 25.3881L123.085 22.3925C123.066 22.3739 123.047 22.3647 123.029 22.3647C123.02 22.3647 123.015 22.3786 123.015 22.4065V29.8607C123.015 29.9536 122.969 30 122.876 30H122.165C122.072 30 122.026 29.9536 122.026 29.8607V20.3862C122.026 20.2933 122.072 20.2468 122.165 20.2468H122.89C122.973 20.2468 123.029 20.2793 123.057 20.3444L124.645 23.5629C124.654 23.5815 124.668 23.5908 124.687 23.5908C124.706 23.5908 124.719 23.5815 124.729 23.5629L126.303 20.3444ZM129.626 19.369C129.7 19.369 129.756 19.4015 129.793 19.4666C130.155 20.1632 130.448 21.0317 130.671 22.0721C130.903 23.1124 131.019 24.2038 131.019 25.3463C131.019 26.526 130.903 27.6499 130.671 28.7182C130.439 29.7771 130.137 30.6549 129.765 31.3515C129.728 31.4165 129.672 31.449 129.598 31.449H128.929C128.883 31.449 128.846 31.4305 128.818 31.3933C128.799 31.3654 128.799 31.3329 128.818 31.2958C129.134 30.5527 129.394 29.661 129.598 28.6206C129.802 27.571 129.905 26.4889 129.905 25.3742C129.905 24.2688 129.802 23.2053 129.598 22.1835C129.394 21.1525 129.134 20.2654 128.818 19.5223C128.809 19.513 128.804 19.4944 128.804 19.4666C128.804 19.4387 128.813 19.4155 128.832 19.3969C128.86 19.3783 128.892 19.369 128.929 19.369H129.626Z" fill="#6B6B6B"/>
</svg>
