<?xml version="1.0" encoding="UTF-8"?>
<svg version="1.1" xmlns="http://www.w3.org/2000/svg" width="16" height="16">
<path d="M0 0 C1.98 0 3.96 0 6 0 C6.474375 0.969375 6.94875 1.93875 7.4375 2.9375 C8.70193947 5.80477437 8.70193947 5.80477437 10 7 C10.25 10.4375 10.25 10.4375 10 14 C6.36804504 16.42130331 4.61650652 16.21022785 0.3125 16.125 C-0.86699219 16.10695313 -2.04648437 16.08890625 -3.26171875 16.0703125 C-4.16535156 16.04710938 -5.06898438 16.02390625 -6 16 C-5.49202991 11.6822542 -4.80317221 7.96697886 -3 4 C-2.01 4 -1.02 4 0 4 C0 2.68 0 1.36 0 0 Z M1 12 C5 13 5 13 5 13 Z " fill="#D73C3C" transform="translate(6,0)"/>
<path d="M0 0 C1.98 0 3.96 0 6 0 C6.6875 1.75 6.6875 1.75 7 4 C5.6875 6.25 5.6875 6.25 4 8 C3.34 8 2.68 8 2 8 C0.23537317 4.91190305 0 3.76687864 0 0 Z " fill="#F3F0F3" transform="translate(6,0)"/>
</svg>
