<svg width="41" height="40" viewBox="0 0 41 40" fill="none" xmlns="http://www.w3.org/2000/svg">
<g id="Component 232">
<path id="Group" d="M19.2213 27.802L14.2787 24.9462C13.9942 24.7821 13.7725 24.5628 13.6135 24.2885C13.4545 24.0142 13.375 23.7128 13.375 23.3845V17.673C13.375 17.3448 13.4545 17.0436 13.6135 16.7693C13.7725 16.4949 13.9942 16.2757 14.2787 16.1115L19.2213 13.2557C19.5058 13.0917 19.807 13.0098 20.125 13.0098C20.443 13.0098 20.7443 13.0917 21.0288 13.2557L25.9712 16.1115C26.2557 16.2757 26.4775 16.4949 26.6365 16.7693C26.7955 17.0436 26.875 17.3448 26.875 17.673V23.3845C26.875 23.7128 26.7955 24.0142 26.6365 24.2885C26.4775 24.5628 26.2557 24.7821 25.9712 24.9462L21.0288 27.802C20.7443 27.966 20.443 28.048 20.125 28.048C19.807 28.048 19.5058 27.966 19.2213 27.802ZM19.375 26.1655V20.95L14.875 18.3652V23.3845C14.875 23.4358 14.8878 23.4839 14.9135 23.5288C14.9392 23.5738 14.9776 23.6123 15.0287 23.6442L19.375 26.1655ZM20.875 26.1655L25.2212 23.6442C25.2724 23.6123 25.3108 23.5738 25.3365 23.5288C25.3622 23.4839 25.375 23.4358 25.375 23.3845V18.3652L20.875 20.95V26.1655ZM10.625 15.5V12.8077C10.625 12.3091 10.8016 11.8831 11.1548 11.5298C11.5081 11.1766 11.9341 11 12.4327 11H15.125V12.5H12.4327C12.3429 12.5 12.2692 12.5288 12.2115 12.5865C12.1538 12.6442 12.125 12.7179 12.125 12.8077V15.5H10.625ZM15.125 30H12.4327C11.9341 30 11.5081 29.8234 11.1548 29.4703C10.8016 29.1169 10.625 28.6909 10.625 28.1923V25.5H12.125V28.1923C12.125 28.2821 12.1538 28.3558 12.2115 28.4135C12.2692 28.4712 12.3429 28.5 12.4327 28.5H15.125V30ZM25.125 30V28.5H27.8173C27.9071 28.5 27.9808 28.4712 28.0385 28.4135C28.0962 28.3558 28.125 28.2821 28.125 28.1923V25.5H29.625V28.1923C29.625 28.6909 29.4484 29.1169 29.0953 29.4703C28.7419 29.8234 28.3159 30 27.8173 30H25.125ZM28.125 15.5V12.8077C28.125 12.7179 28.0962 12.6442 28.0385 12.5865C27.9808 12.5288 27.9071 12.5 27.8173 12.5H25.125V11H27.8173C28.3159 11 28.7419 11.1766 29.0953 11.5298C29.4484 11.8831 29.625 12.3091 29.625 12.8077V15.5H28.125ZM20.125 19.6578L24.5943 17.0538L20.2788 14.5673C20.2276 14.5352 20.1763 14.5193 20.125 14.5193C20.0737 14.5193 20.0224 14.5352 19.9713 14.5673L15.6558 17.0538L20.125 19.6578Z" fill="#D73F3F"/>
</g>
</svg>
