<svg width="20" height="20" viewBox="0 0 20 20" fill="none" xmlns="http://www.w3.org/2000/svg">
<path d="M17.4462 7.6131C17.9508 7.08557 18.2343 6.37008 18.2343 5.62404C18.2343 4.87799 17.9508 4.16251 17.4462 3.63497C17.1964 3.37377 16.8998 3.16656 16.5733 3.0252C16.2469 2.88384 15.897 2.81108 15.5437 2.81108C14.8301 2.81108 14.1457 3.10744 13.6411 3.63497C13.5277 3.75405 13.4246 3.88347 13.3332 4.02169L11.6481 3.54122C11.6099 3.00439 11.4251 2.4903 11.1157 2.06C10.8063 1.62971 10.3852 1.30128 9.90258 1.11372C9.41993 0.926169 8.89593 0.887364 8.39281 1.00192C7.88969 1.11647 7.42858 1.37957 7.06425 1.75997C6.68837 2.15367 6.43243 2.65492 6.3287 3.2005C6.22497 3.74607 6.27809 4.31154 6.48136 4.8256L4.27314 6.90372C3.76291 6.6147 3.17711 6.5055 2.60277 6.59235C2.02844 6.67919 1.49623 6.95744 1.08524 7.38575C0.610931 7.8809 0.330512 8.54331 0.298895 9.24328C0.267279 9.94325 0.486743 10.6303 0.914308 11.17C1.34187 11.7097 1.94674 12.063 2.61045 12.1609C3.27417 12.2587 3.94892 12.094 4.50256 11.699L9.38082 15.4389C9.23998 15.9272 9.22883 16.4464 9.34855 16.9409C9.46828 17.4354 9.71438 17.8865 10.0605 18.246C10.4066 18.6055 10.8398 18.8598 11.3135 18.9817C11.7873 19.1037 12.2838 19.0886 12.75 18.9381C13.2162 18.7877 13.6345 18.5075 13.9601 18.1276C14.2857 17.7478 14.5063 17.2825 14.5984 16.7816C14.6905 16.2806 14.6505 15.763 14.4828 15.284C14.3151 14.805 14.0259 14.3827 13.6463 14.0623L15.5429 8.43732C15.8965 8.43779 16.2466 8.36521 16.5732 8.22377C16.8999 8.08232 17.1966 7.87479 17.4462 7.6131ZM10.4412 13.9264L5.56295 10.1865C5.74097 9.56491 5.70904 8.89819 5.47253 8.29825L7.6815 6.21935C8.1914 6.50947 8.77739 6.61936 9.35196 6.53263C9.92653 6.44589 10.4588 6.16717 10.8694 5.7381C10.9832 5.61798 11.0863 5.48723 11.1773 5.34747L12.8624 5.82794C12.9085 6.50029 13.185 7.13271 13.6411 7.60919C13.7087 7.68062 13.7798 7.74842 13.8541 7.81232L11.956 13.4373C11.4155 13.4376 10.8877 13.608 10.4412 13.9264ZM16.1781 4.96075C16.3032 5.092 16.3883 5.25905 16.4226 5.44082C16.457 5.62258 16.4391 5.81092 16.3711 5.98203C16.3031 6.15315 16.1882 6.29937 16.0408 6.40224C15.8934 6.50511 15.7201 6.56002 15.5429 6.56002C15.3657 6.56002 15.1924 6.50511 15.045 6.40224C14.8976 6.29937 14.7827 6.15315 14.7147 5.98203C14.6468 5.81092 14.6288 5.62258 14.6632 5.44082C14.6975 5.25905 14.7826 5.092 14.9077 4.96075C14.991 4.87335 15.09 4.80401 15.199 4.75669C15.308 4.70937 15.4249 4.68501 15.5429 4.68501C15.6609 4.68501 15.7778 4.70937 15.8868 4.75669C15.9958 4.80401 16.0948 4.87335 16.1781 4.96075ZM8.33164 3.08575C8.45717 2.95497 8.61696 2.866 8.79083 2.83009C8.96469 2.79418 9.14483 2.81294 9.30851 2.88399C9.47219 2.95504 9.61205 3.07521 9.71045 3.22931C9.80885 3.38341 9.86136 3.56454 9.86136 3.74982C9.86136 3.9351 9.80885 4.11622 9.71045 4.27033C9.61205 4.42443 9.47219 4.54459 9.30851 4.61564C9.14483 4.68669 8.96469 4.70545 8.79083 4.66954C8.61696 4.63363 8.45717 4.54467 8.33164 4.41388C8.24809 4.32673 8.18181 4.2232 8.13662 4.10921C8.09142 3.99523 8.06819 3.87304 8.06826 3.74965C8.06833 3.62627 8.0917 3.50411 8.13702 3.39018C8.18234 3.27625 8.24873 3.1728 8.33238 3.08575H8.33164ZM2.35338 10.0389C2.22828 9.90764 2.14318 9.74059 2.10883 9.55882C2.07448 9.37705 2.09242 9.18872 2.16039 9.0176C2.22835 8.84649 2.34329 8.70026 2.49069 8.59739C2.63809 8.49452 2.81134 8.43962 2.98857 8.43962C3.16579 8.43962 3.33904 8.49452 3.48644 8.59739C3.63384 8.70026 3.74878 8.84649 3.81675 9.0176C3.88471 9.18872 3.90265 9.37705 3.8683 9.55882C3.83395 9.74059 3.74886 9.90764 3.62376 10.0389C3.5404 10.1262 3.44136 10.1955 3.33234 10.2428C3.22331 10.29 3.10643 10.3143 2.98841 10.3142C2.87039 10.3142 2.75354 10.2897 2.64456 10.2423C2.53559 10.195 2.43664 10.1256 2.35338 10.0381V10.0389ZM12.5911 16.9139C12.4656 17.0447 12.3058 17.1336 12.132 17.1695C11.9581 17.2055 11.7779 17.1867 11.6143 17.1156C11.4506 17.0446 11.3107 16.9244 11.2123 16.7703C11.1139 16.6162 11.0614 16.4351 11.0614 16.2498C11.0614 16.0645 11.1139 15.8834 11.2123 15.7293C11.3107 15.5752 11.4506 15.455 11.6143 15.384C11.7779 15.3129 11.9581 15.2942 12.132 15.3301C12.3058 15.366 12.4656 15.455 12.5911 15.5858C12.6747 15.6729 12.741 15.7764 12.7862 15.8904C12.8314 16.0044 12.8546 16.1266 12.8545 16.25C12.8545 16.3734 12.8311 16.4955 12.7858 16.6095C12.7404 16.7234 12.674 16.8268 12.5904 16.9139H12.5911Z" fill="#9B9999"/>
</svg>
