<?xml version="1.0" encoding="UTF-8"?>
<svg width="119px" height="118px" viewBox="0 0 119 118" version="1.1" xmlns="http://www.w3.org/2000/svg" xmlns:xlink="http://www.w3.org/1999/xlink">
    <title>drone-tasking-manager</title>
    <g id="Symbols" stroke="none" stroke-width="1" fill="none" fill-rule="evenodd">
        <path d="M103.27,0 C107.22,0 110.92,1.54 113.71,4.33 C116.49,7.12 118.02,10.82 118.010049,14.76 L117.98,56.11 L117.98,61.9 L117.96,80.57 C117.96,83.73 116.91,86.86 115.02,89.38 C114.61,89.94 114.15,90.48 113.64,90.98 L90.95,113.68 C88.15,116.46 84.45,117.99 80.52,117.99 L14.75,117.99 L14.75,118 C6.62,118 -2.06057393e-13,111.39 -2.06057393e-13,103.26 L-2.06057393e-13,34.34 C-2.06057393e-13,30.4 1.53,26.7 4.32,23.91 L23.92,4.32 C26.68,1.54 30.39,0 34.34,0 L103.27,0 Z M77.6158523,22.3340464 L77.4104646,22.3347055 C76.5922365,22.3632787 75.7848346,22.7041635 75.1820633,23.3506241 C73.9764392,24.6435002 74.0471128,26.6673274 75.3399838,27.8728741 L79.7842425,32.0172205 L72.3696349,39.9684292 C71.0230328,38.1205198 69.0651315,36.8536641 66.8377767,36.5562527 C63.9632301,36.1719578 61.0784016,36.0319251 58.2016512,36.1323834 C55.3249007,36.2328418 52.4541494,36.5738638 49.6137319,37.1577296 C47.4125506,37.609829 45.5478176,39.0132559 44.3333704,40.9474772 L36.3821761,33.5328541 L40.5265138,29.0885873 C41.732138,27.7957112 41.6614644,25.771884 40.3685934,24.5663373 C39.7252826,23.9634148 38.8929816,23.6797657 38.0778716,23.7082299 C37.2596435,23.7368031 36.4522416,24.0776879 35.8494703,24.7241485 L23.1936963,38.295831 C21.9880722,39.5887071 22.0587458,41.6125343 23.3516168,42.818081 C24.6444877,44.0236277 26.6683138,43.9530342 27.873858,42.6601609 L32.0181957,38.2158941 L42.7359041,48.2072444 C42.4246346,55.7696719 42.6904152,63.380631 43.5284659,70.9032436 L33.5370247,81.6177733 L29.089539,77.4704177 C28.4431021,76.8676044 27.6139271,76.5838461 26.7956991,76.6124192 C25.977471,76.6409924 25.170069,76.9818772 24.5672978,77.6283378 C23.3616736,78.9212139 23.4323472,80.9450411 24.7252182,82.1505878 L38.2968761,94.8063882 C39.5897499,96.0120149 41.6135731,95.9413414 42.8191173,94.6484681 C44.0246615,93.3555948 43.9540678,91.3317648 42.6611969,90.1262181 L38.2169381,85.9818717 L45.6315458,78.0306629 C46.9781479,79.8785724 48.9360492,81.1454281 51.163404,81.4428395 C56.9092691,82.208388 62.7061839,82.0059553 68.3874488,80.8413626 C70.5886301,80.3892632 72.4533631,78.9858363 73.6678102,77.051615 L81.6190046,84.4662381 L77.4746668,88.9105049 C76.2690427,90.203381 76.3397163,92.2272082 77.6325872,93.4327549 C78.9254582,94.6383016 80.9492843,94.5677081 82.1548285,93.2748348 L94.8074044,79.703264 C96.0130285,78.4103878 95.9423549,76.3865606 94.6494839,75.181014 C94.0030471,74.5782006 93.1738721,74.2944424 92.355644,74.3230155 C91.5374159,74.3515887 90.730014,74.6924735 90.1272427,75.3389341 L85.982905,79.7832009 L75.2683947,69.7917389 C75.5796642,62.2293114 75.3138836,54.6183523 74.4758329,47.0957397 L84.4672741,36.38121 L88.9115328,40.5255564 C90.2044066,41.731183 92.2282298,41.6605096 93.433774,40.3676362 C94.6393182,39.0747629 94.5687245,37.0509329 93.2758536,35.8453862 L79.7041957,23.1895858 C79.0609941,22.5897895 78.2318108,22.3060235 77.4104646,22.3347055 Z M53.6601964,49.3380673 C53.4276182,42.6778993 63.4215264,42.3289043 63.6541046,48.9890723 C63.8868531,55.6541153 53.8929448,56.0031103 53.6601964,49.3380673 Z" id="drone-tasking-manager" fill="#D73F3F"></path>
    </g>
</svg>