<svg width="41" height="40" viewBox="0 0 41 40" fill="none" xmlns="http://www.w3.org/2000/svg">
<g id="Component 232">
<g id="Group">
<path id="Vector" d="M31.4701 25.8321C30.7485 24.8492 29.8383 24.0643 28.8477 23.3644C28.3209 22.9935 27.752 22.6867 27.245 22.2847C26.7058 21.8566 26.156 21.441 25.6012 21.0343C24.0934 19.9266 22.5371 18.8882 21.0095 17.8081C20.3722 17.3571 20.0853 16.6957 20.0425 15.929C20.0242 15.597 20.1817 15.4702 20.5266 15.5021C20.8376 15.5313 21.1455 15.5795 21.4438 15.6743C21.978 15.845 22.5227 15.957 23.0864 15.9605C23.3625 15.962 23.6257 15.8963 23.8528 15.7478C24.3815 15.4045 24.8263 14.9698 25.1828 14.4481C25.191 14.4372 25.1758 14.4103 25.1665 14.3699C24.7952 14.3699 24.4189 14.3757 24.0429 14.3668C23.9103 14.3637 23.8244 14.4127 23.7361 14.5044C23.492 14.7591 23.186 14.9134 22.8493 15.0036C22.1661 15.1856 21.5289 14.9982 20.8322 14.7474C21.4438 14.6872 22.0425 14.8703 22.5612 14.3567C22.1175 14.3567 21.7451 14.3427 21.3734 14.3602C21.0044 14.3781 20.7019 14.6631 20.3112 14.6316C20.7373 14.9123 21.1463 15.1887 21.518 15.5297C21.3139 15.5048 21.1245 15.4193 20.9301 15.4084C20.6374 15.3913 20.4644 15.2159 20.2902 15.0235C20.2474 14.9749 20.2101 14.9224 20.1677 14.8738C19.7984 14.4535 19.4718 13.9947 19.0363 13.6351C18.9574 13.5701 18.8913 13.4636 18.742 13.5367C19.1351 14.0254 19.4076 14.583 19.7229 15.1152C19.7089 15.1339 19.6949 15.1526 19.6813 15.1704C19.2991 15.1444 18.9974 14.9955 18.7556 14.7272C18.7004 14.6658 18.6475 14.5977 18.5981 14.5231C18.4317 14.2727 18.2945 13.9982 18.1113 13.7696C17.8559 13.4496 17.6211 13.1164 17.3788 12.7883C17.2964 12.6767 17.1911 12.6172 17.0678 12.5725C16.6852 12.4329 16.3003 12.298 15.9212 12.1499C15.3975 11.9446 14.8637 12.0041 14.3295 12.0752C13.9609 12.1242 13.7727 12.3738 13.8132 12.7898C13.8443 13.1114 13.8695 13.4383 13.819 13.7572C13.7665 14.0892 13.8225 14.4045 13.9177 14.7109C14.0923 15.2735 14.291 15.8287 14.4858 16.3854C14.7062 17.0153 14.9442 17.6444 15.3233 18.193C16.109 19.3302 17.0068 20.3796 18.0604 21.2769C19.2972 22.3314 20.5693 23.3438 21.8162 24.387C22.5425 24.995 23.2641 25.6121 23.8699 26.3469C24.1401 26.6739 24.38 27.0152 24.3271 27.4799C24.4297 27.4876 24.5145 27.4989 24.5996 27.4997C25.289 27.5098 25.9787 27.5191 26.6681 27.5265C26.9779 27.53 26.995 27.5044 26.9546 27.1945C26.9375 27.0642 26.8889 26.9464 26.8329 26.8298C26.7256 26.6051 26.5798 26.4064 26.4243 26.2124C25.8722 25.5258 25.1758 24.995 24.4947 24.4523C23.006 23.2649 21.4959 22.1047 20.0025 20.9231C19.4372 20.4768 18.8481 20.0557 18.3477 19.5324C17.8267 18.9873 17.3411 18.4115 16.8617 17.8287C16.4862 17.3726 16.2288 16.8742 16.0573 16.3061C15.8839 15.7315 15.9601 15.2004 16.1689 14.6712C16.3093 14.3166 16.5748 14.2043 16.9442 14.3151C17.2521 14.4084 17.5592 14.506 17.8629 14.6114C18.1732 14.719 18.4788 14.8404 18.7867 14.9554C18.6942 14.9982 18.611 14.9978 18.5274 14.9982C17.9815 15.0017 17.873 15.0946 17.705 15.6137C17.6211 15.873 17.6794 16.1008 17.7848 16.3275C17.8711 16.5134 17.9687 16.693 18.0709 16.8691C18.5122 17.6288 19.0379 18.3306 19.7284 18.8726C21.971 20.6327 24.3236 22.2458 26.5891 23.9756C27.2396 24.4725 27.8924 24.9655 28.4569 25.5627C28.99 26.1264 29.502 26.7061 29.5378 27.586C30.3341 27.586 31.1093 27.586 31.8838 27.5864C32.1836 27.5864 32.1987 27.5685 32.1498 27.2754C32.0592 26.7314 31.7886 26.2676 31.4701 25.8321Z" fill="#D73F3F"/>
<path id="Vector_2" d="M11.2715 25.4851C10.934 24.8261 10.5709 24.1803 10.2463 23.5155C9.64245 22.2772 9.13546 21.0182 9.00677 19.615C8.88352 18.2706 9.03087 16.9774 9.40062 15.694C9.50365 15.3367 9.63701 14.9899 9.77581 14.6469C9.60902 14.5583 9.51104 14.6574 9.40373 14.7243C8.90179 15.0381 8.44301 15.4168 7.94106 15.7266C7.4259 16.0451 7.01455 16.4494 6.69185 16.9537C6.49745 17.2566 6.22684 17.5062 6.07482 17.8386C6.20235 17.846 6.28128 17.7659 6.35904 17.6901C6.36914 17.6804 6.37925 17.671 6.38975 17.6609C6.39053 17.6601 6.3917 17.6598 6.39247 17.6586C6.40491 17.6473 6.41775 17.6368 6.43019 17.6259C7.02233 17.1598 7.55537 16.6255 8.12497 16.1341C8.20739 16.063 8.27699 15.9611 8.3979 15.9518C8.46283 16.0731 8.3703 16.1084 8.32209 16.1524C7.60164 16.8025 6.97217 17.5381 6.32677 18.2597C5.88237 18.757 5.43564 19.2577 4.90376 19.6629C4.51418 19.9599 4.1872 20.2997 3.90376 20.6971C3.41543 21.381 2.90377 22.0489 2.39561 22.732C2.44071 22.7402 2.46753 22.7542 2.47998 22.7457C2.55229 22.6994 2.6215 22.6485 2.69032 22.5971C3.81201 21.7612 4.75446 20.7476 5.60865 19.6477C6.01067 19.1306 6.40841 18.6104 6.8081 18.0917C6.82754 18.1228 6.84698 18.1539 6.86642 18.185C6.56082 18.6761 6.25562 19.1683 5.94963 19.659C5.07716 21.0583 4.11488 22.388 2.97181 23.5831C2.7778 23.7849 2.57718 23.9793 2.375 24.1722V25.977C2.48931 25.7977 2.60089 25.6169 2.74008 25.4564C3.34778 24.7573 3.91154 24.0252 4.39676 23.2355C5.291 21.7822 6.07677 20.269 6.83998 18.7445C7.12264 18.1792 7.43057 17.629 7.79954 17.1147C7.82131 17.1302 7.84309 17.1454 7.86486 17.1609C7.75677 17.3833 7.63741 17.6011 7.54332 17.8285C7.01183 19.117 6.45818 20.3961 6.00795 21.7173C5.76184 22.4385 5.48385 23.1481 5.15959 23.8374C5.07133 24.026 5.0169 24.218 4.98774 24.4206C4.96285 24.5909 4.94069 24.7612 4.91348 24.9311C4.77351 25.8012 4.46052 26.5866 3.79684 27.199C3.78596 27.2087 3.79334 27.239 3.79062 27.2892C4.58844 27.2892 5.38393 27.2853 6.1798 27.2931C6.31821 27.2938 6.39675 27.2277 6.47529 27.134C6.79877 26.746 6.94107 26.2923 6.9679 25.7962C6.99822 25.2456 6.94263 24.6986 6.87536 24.1535C6.78866 23.449 6.70662 22.7585 6.89169 22.045C7.11175 21.194 7.16113 20.304 7.42474 19.4595C7.70817 18.5489 7.94534 17.6213 8.33531 16.7465C8.50794 16.3596 8.69922 15.9813 8.95622 15.6298C9.04409 15.7741 8.94806 15.8775 8.90723 15.979C8.54021 16.8783 8.32014 17.8184 8.15024 18.7702C7.97917 19.7293 8.02621 20.7029 8.00288 21.671C8.00094 21.7348 8.0126 21.8005 8.02816 21.8623C8.14246 22.3211 8.25444 22.7799 8.37691 23.2363C8.58608 24.0131 8.8874 24.7624 9.07597 25.545C9.21944 26.1395 9.31275 26.7351 8.88624 27.2701C8.88002 27.2783 8.89751 27.3047 8.91112 27.3432C9.65801 27.3432 10.4119 27.3424 11.1654 27.3432C11.4928 27.3432 11.5484 27.2997 11.6284 26.9886C11.6638 26.851 11.6712 26.7153 11.6522 26.5734C11.5997 26.1842 11.448 25.8288 11.2715 25.4851Z" fill="#D73F3F"/>
<path id="Vector_3" d="M6.0703 17.8446C6.0703 17.8446 6.07114 17.8446 6.07197 17.8437C6.07281 17.8421 6.07406 17.8404 6.07448 17.8383C6.07114 17.8379 6.0678 17.8379 6.06445 17.8379C6.06696 17.8404 6.06821 17.8429 6.0703 17.8446Z" fill="#D73F3F"/>
<path id="Vector_4" d="M6.06233 17.8811C6.06699 17.8799 6.07049 17.878 6.07282 17.8752C6.07438 17.8733 6.07477 17.871 6.07516 17.869C6.07555 17.8682 6.07632 17.8675 6.07671 17.8659C6.07671 17.8628 6.07671 17.8601 6.07516 17.8566V17.8558C6.07399 17.8519 6.07166 17.848 6.06855 17.8438C6.05416 17.8511 6.03978 17.8589 6.02539 17.8667C6.03783 17.8721 6.05222 17.8846 6.06233 17.8811Z" fill="#D73F3F"/>
<path id="Vector_5" d="M37.3668 27.4373C37.3147 27.1177 37.2466 26.7974 37.1067 26.51C36.8287 25.9436 36.8291 25.3499 36.8714 24.7464C36.9095 24.1877 36.9247 23.6282 36.9127 23.0684C36.9084 22.8837 36.8501 22.7457 36.7357 22.6045C36.2688 22.0283 35.8182 21.4385 35.3508 20.8619C35.1374 20.5991 34.9508 20.3118 34.7 20.0727C34.6339 20.1574 34.6619 20.2344 34.6553 20.3048C34.6113 20.7667 34.4138 20.9327 33.9558 20.8946C33.6833 20.8717 33.4344 20.7698 33.1926 20.6559C32.6405 20.3938 32.0985 20.1104 31.5429 19.8577C30.4006 19.3378 29.2152 18.9265 28.0282 18.5233C27.5255 18.3526 27.1518 18.0828 27.0021 17.5556C26.9706 17.4467 26.908 17.3678 26.8093 17.3095C26.7311 17.2636 26.6351 17.2309 26.6114 17.1765C27.0523 16.2422 27.478 15.3406 27.924 14.3966C27.4986 14.3966 27.1332 14.4071 26.7689 14.3923C26.5943 14.3845 26.5014 14.4413 26.4174 14.5945C26.0706 15.2232 25.7094 15.8433 25.354 16.4665C25.1872 16.7597 25.188 16.7605 24.8688 16.6998C24.5838 16.6454 24.298 16.5976 24.0154 16.5319C23.8338 16.4891 23.6534 16.4899 23.4707 16.486C23.2969 16.4817 23.1639 16.5525 23.0449 16.6983C23.279 16.9039 23.5368 17.0564 23.7883 17.2115C24.4446 17.6147 25.085 18.0404 25.8081 18.3336C26.3606 18.5571 26.929 18.7803 27.3276 19.2694C27.908 19.9817 28.6331 20.5501 29.2708 21.2056C29.513 21.4541 29.7933 21.6454 30.0919 21.8223C31.5258 22.6691 32.7824 23.713 33.7031 25.1209C34.1813 25.851 34.6249 26.5987 34.7175 27.4941C34.7319 27.6271 34.8252 27.6053 34.9072 27.6064C35.6712 27.6197 36.4356 27.6255 37.2 27.6469C37.3808 27.6512 37.3909 27.5843 37.3668 27.4373Z" fill="#D73F3F"/>
<path id="Vector_6" d="M21.6172 26.69C21.4644 26.4288 21.2774 26.1928 21.074 25.9696C20.3178 25.1395 19.4636 24.414 18.6176 23.6796C17.478 22.6916 16.3353 21.7091 15.375 20.5353C14.7743 19.8005 14.2086 19.0497 13.8349 18.1664C13.4458 17.248 13.1067 16.3095 12.7323 15.3853C12.6717 15.2356 12.6487 15.0762 12.6386 14.9133C12.6145 14.5268 12.5791 14.1415 12.543 13.7558C12.4909 13.1909 12.5989 12.645 12.929 12.1617C12.9566 12.1213 13.0099 12.0844 12.9391 12C12.716 12.1353 12.4944 12.2823 12.2615 12.4082C11.8416 12.6349 11.6192 12.9926 11.5336 13.4491C11.522 13.5132 11.5138 13.577 11.508 13.6407C11.4582 14.2119 11.527 14.7795 11.5457 15.3487C11.5624 15.8767 11.6993 16.3639 11.8917 16.8464C12.158 17.5136 12.4026 18.1897 12.6794 18.853C12.936 19.4669 13.2265 20.0657 13.6098 20.6154C14.3458 21.6714 15.2113 22.6135 16.1258 23.5135C16.8785 24.253 17.6584 24.9661 18.3629 25.7546C18.6218 26.0435 18.8718 26.3413 19.0484 26.6881C19.1607 26.9066 19.2622 27.136 19.116 27.4669C19.9251 27.4669 20.6782 27.4669 21.4305 27.4672C21.7999 27.4672 21.8777 27.3666 21.7672 27.0096C21.7323 26.8988 21.677 26.7907 21.6172 26.69Z" fill="#D73F3F"/>
<path id="Vector_7" d="M16.2531 26.0642C15.7138 25.2944 15.0486 24.6307 14.4354 23.9235C13.6602 23.028 12.8962 22.1237 12.3118 21.0864C11.8165 20.2046 11.439 19.2691 11.1198 18.3127C10.96 17.8356 10.7792 17.3621 10.7103 16.859C10.577 15.8889 10.6886 14.9258 10.7788 13.9608C10.7932 13.803 10.9285 13.6825 10.9032 13.5176C10.8386 13.5129 10.8072 13.5409 10.7733 13.5674C10.3523 13.908 10.1198 14.3586 10.0218 14.8803C9.95218 15.2501 9.90475 15.6241 9.84138 15.995C9.72901 16.6467 9.68974 17.3045 9.79005 17.9565C9.98562 19.2384 10.3756 20.4604 10.9483 21.6268C11.5156 22.7819 12.2617 23.8185 13.0058 24.8585C13.3367 25.3216 13.6858 25.7734 13.9331 26.2901C14.0949 26.6268 14.1886 26.9728 13.9778 27.4052C14.8141 27.4052 15.589 27.4059 16.3635 27.4048C16.6244 27.4044 16.6745 27.3511 16.6831 27.0879C16.6881 26.9335 16.6504 26.7881 16.5909 26.6486C16.5011 26.4413 16.3829 26.2493 16.2531 26.0642Z" fill="#D73F3F"/>
<path id="Vector_8" d="M28.3594 17.6968C28.6599 17.8504 28.9457 17.7816 29.2159 17.6249C29.5122 17.4531 29.8178 17.2847 29.9196 16.9134C30.1008 16.2524 30.2832 15.5915 30.4741 14.9328C30.5087 14.8143 30.4884 14.7338 30.4196 14.6381C30.3049 14.478 30.1778 14.3831 29.964 14.4119C29.8057 14.4336 29.6409 14.429 29.4811 14.4115C29.2898 14.3901 29.2007 14.457 29.1335 14.6436C28.8769 15.359 28.5965 16.0662 28.3318 16.7781C28.2326 17.044 28.109 17.2894 27.8594 17.49C28.0277 17.6078 28.207 17.6195 28.3594 17.6968Z" fill="#D73F3F"/>
<path id="Vector_9" d="M29.835 18.0348C29.7032 18.0298 29.5734 18.0162 29.3906 18.0675C30.0815 18.2837 30.7001 18.5453 31.3319 18.7712C31.6146 18.8723 31.9054 18.9505 32.2137 18.9376C32.6363 18.9201 32.8677 18.7308 32.9555 18.3163C32.9711 18.2425 32.9711 18.1655 32.9913 18.0932C33.022 17.9788 32.996 17.8871 32.9221 17.7949C32.4971 17.2681 32.0776 16.7374 31.6313 16.1768C31.5664 16.2856 31.5621 16.3712 31.5469 16.4548C31.4901 16.772 31.4404 17.0908 31.3268 17.3941C31.1744 17.7992 30.8747 18.0107 30.4482 18.036C30.2448 18.0488 30.0391 18.0438 29.835 18.0348Z" fill="#D73F3F"/>
<path id="Vector_10" d="M8.31641 14.7789C8.64533 14.6424 8.88794 14.4745 9.14805 14.3256C8.7157 14.1553 8.53452 14.4368 8.31641 14.7789Z" fill="#D73F3F"/>
</g>
</g>
</svg>
