<svg width="139" height="32" viewBox="0 0 139 32" fill="none" xmlns="http://www.w3.org/2000/svg">
<g clip-path="url(#clip0_6345_2723)">
<path d="M19.5987 0.806641C16.2709 0.806641 13.5801 3.31738 13.5801 6.42168C13.5801 7.38126 13.8927 8.44175 14.3754 9.51213C14.5812 9.97114 14.8186 10.4321 15.0758 10.8852C15.6536 11.9002 16.3302 12.8815 16.9831 13.7462C18.3463 15.5545 19.5987 16.8485 19.5987 16.8485C19.5987 16.8485 21.0233 15.3765 22.4874 13.3801C22.891 12.8301 23.2966 12.2405 23.6765 11.6291C23.9713 11.1583 24.2502 10.6735 24.4995 10.1848C25.1604 8.89285 25.6174 7.58109 25.6174 6.42168C25.6174 3.31738 22.9266 0.806641 19.5987 0.806641ZM19.5987 4.41546C20.7858 4.41546 21.7474 5.31371 21.7474 6.42168C21.7474 7.52767 20.7858 8.42592 19.5987 8.42592C18.4116 8.42592 17.4481 7.52767 17.4481 6.42168C17.4481 5.31371 18.4116 4.41546 19.5987 4.41546Z" fill="#D73F3F" stroke="white"/>
<path d="M33.6764 19.0962C33.6309 18.8489 33.3381 18.473 33.1362 18.4572C32.2321 18.3879 31.32 18.4255 30.4395 18.4255C29.9132 21.6109 29.8816 21.7079 29.1001 22.4993C28.0831 21.7949 27.0325 21.1203 26.0433 20.3645C25.0837 19.6324 24.3536 18.7085 24.0924 17.4857C23.7719 15.984 24.7671 14.2113 26.6606 13.4891C27.7032 13.0895 28.0831 14.3715 28.7321 14.9275C29.0229 15.1748 29.1812 15.5745 29.4344 15.8732C29.567 16.0315 29.7747 16.2195 29.9568 16.2274C30.8234 16.265 31.69 16.2432 32.6139 16.2432C31.407 13.4792 27.8971 11.2178 24.5 10.185C24.2507 10.6737 23.9717 11.1584 23.6769 11.6293C23.2971 12.2407 22.8915 12.8303 22.4879 13.3803C21.0238 15.3766 19.5992 16.8486 19.5992 16.8486C19.5992 16.8486 18.3468 15.5547 16.9836 13.7463C16.3307 12.8817 15.654 11.9004 15.0763 10.8854C14.8191 10.4323 14.5817 9.97131 14.3759 9.51229C12.5201 9.49844 10.6642 9.48855 8.80837 9.48657C8.62239 9.48657 8.32759 9.63892 8.26626 9.79324C7.45902 11.7915 6.68344 13.7997 5.84257 15.9484C5.81883 16.0098 5.79508 16.0731 5.76936 16.1364C5.75354 16.1779 5.73969 16.2175 5.72188 16.259C4.2835 20.0004 1.68966 26.6166 0.304692 30.1977C0.193895 30.4826 0.122668 30.7834 0 31.1909C1.1792 31.1909 2.19616 31.1909 3.21312 31.1929C7.39966 31.1929 16.7521 30.8783 21.3106 30.8269C21.4768 30.8249 21.6371 30.8249 21.7894 30.8229H21.8053C26.0789 30.6726 31.0707 27.8393 32.8672 24.2582C33.6863 22.6279 34.0088 20.9046 33.6764 19.0962ZM6.35896 24.4224C6.93867 22.4657 8.32165 17.925 8.94291 15.8337C8.94291 15.8317 8.94489 15.8277 8.94489 15.8258C8.99237 15.7308 9.02996 15.622 9.06162 15.4953C9.34257 14.3973 9.70068 13.317 10.0806 12.0507C11.3785 13.0677 12.5735 13.9283 13.6755 14.8958C14.5105 15.6299 14.7578 16.6805 14.368 17.6974C14.0633 18.5007 13.6261 19.391 12.9771 19.9015C10.8977 21.5397 8.69164 23.0177 6.53505 24.5589C6.47767 24.5134 6.41832 24.4679 6.35896 24.4224ZM24.4407 26.1358C23.0478 26.6067 21.5857 26.8402 20.1156 26.8975L12.9553 27.1785H8.54127C8.88158 26.8718 9.05371 26.6957 9.2476 26.5493C10.8205 25.3563 12.3895 24.1613 13.9743 22.984C18.6001 19.5473 23.3188 21.2152 26.896 24.9309C26.1422 25.4671 25.3092 25.845 24.4407 26.1358Z" fill="#0B83CF"/>
</g>
<path d="M46.0942 15C46.0013 15 45.9548 14.9536 45.9548 14.8607V5.38615C45.9548 5.29326 46.0013 5.24682 46.0942 5.24682H48.2399C48.9551 5.24682 49.5264 5.48368 49.9536 5.95741C50.3809 6.42185 50.5946 7.04884 50.5946 7.83838V12.4084C50.5946 13.198 50.3809 13.8296 49.9536 14.3033C49.5264 14.7678 48.9551 15 48.2399 15H46.0942ZM46.9441 14.0804C46.9441 14.1176 46.9627 14.1361 46.9998 14.1361L48.2259 14.1222C48.6346 14.1222 48.9598 13.9643 49.2013 13.6485C49.4521 13.3327 49.5821 12.9054 49.5914 12.3666V7.88018C49.5914 7.33214 49.4706 6.90022 49.2291 6.5844C48.9876 6.26858 48.6532 6.11067 48.2259 6.11067H46.9998C46.9627 6.11067 46.9441 6.12925 46.9441 6.16641V14.0804ZM54.2429 7.88018C54.4751 7.88018 54.6748 7.93127 54.842 8.03344C54.907 8.0706 54.9302 8.13097 54.9117 8.21457L54.7445 8.93909C54.7352 9.02269 54.6794 9.05056 54.5773 9.02269C54.4658 8.96696 54.3265 8.93909 54.1593 8.93909C54.085 8.93909 54.0292 8.94374 53.9921 8.95303C53.6577 8.97161 53.3837 9.14809 53.17 9.48249C52.9564 9.80759 52.8496 10.207 52.8496 10.6807V14.8607C52.8496 14.9536 52.8031 15 52.7102 15H51.9996C51.9068 15 51.8603 14.9536 51.8603 14.8607V8.08918C51.8603 7.99629 51.9068 7.94984 51.9996 7.94984H52.7102C52.8031 7.94984 52.8496 7.99629 52.8496 8.08918V8.92516C52.8496 8.95303 52.8542 8.96696 52.8635 8.96696C52.8821 8.96696 52.9006 8.95767 52.9192 8.93909C53.1886 8.23315 53.6298 7.88018 54.2429 7.88018ZM57.4905 15.1115C56.8217 15.1115 56.2876 14.9164 55.8882 14.5263C55.498 14.1361 55.303 13.6206 55.303 12.9797V9.98408C55.303 9.35244 55.5027 8.83692 55.9021 8.4375C56.3015 8.03809 56.831 7.83838 57.4905 7.83838C58.1593 7.83838 58.6934 8.03809 59.0928 8.4375C59.4922 8.83692 59.6919 9.35244 59.6919 9.98408V12.9797C59.6919 13.6206 59.4922 14.1361 59.0928 14.5263C58.6934 14.9164 58.1593 15.1115 57.4905 15.1115ZM57.4905 14.2337C57.8435 14.2337 58.1314 14.1129 58.3543 13.8714C58.5866 13.6299 58.7027 13.3094 58.7027 12.91V10.0398C58.7027 9.6404 58.5866 9.31993 58.3543 9.07843C58.1314 8.82763 57.8435 8.70223 57.4905 8.70223C57.1375 8.70223 56.8496 8.82763 56.6266 9.07843C56.4037 9.31993 56.2922 9.6404 56.2922 10.0398V12.91C56.2922 13.3094 56.4037 13.6299 56.6266 13.8714C56.8496 14.1129 57.1375 14.2337 57.4905 14.2337ZM63.329 7.85231C63.8956 7.85231 64.3322 8.04738 64.6387 8.4375C64.9545 8.82763 65.1124 9.37102 65.1124 10.0677V14.8607C65.1124 14.9536 65.066 15 64.9731 15H64.2625C64.1696 15 64.1232 14.9536 64.1232 14.8607V10.1513C64.1232 9.69613 64.021 9.34316 63.8167 9.09236C63.6216 8.84156 63.3476 8.71617 62.9946 8.71617C62.6231 8.71617 62.3305 8.85085 62.1168 9.12023C61.9125 9.3896 61.8103 9.7565 61.8103 10.2209V14.8607C61.8103 14.9536 61.7638 15 61.671 15H60.9604C60.8675 15 60.821 14.9536 60.821 14.8607V8.08918C60.821 7.99629 60.8675 7.94984 60.9604 7.94984H61.671C61.7638 7.94984 61.8103 7.99629 61.8103 8.08918V8.53503C61.8103 8.55361 61.8196 8.56755 61.8382 8.57683C61.8567 8.58612 61.8707 8.57683 61.88 8.54897C62.0472 8.31675 62.2562 8.14491 62.5069 8.03344C62.767 7.91269 63.0411 7.85231 63.329 7.85231ZM70.5161 11.7118C70.5161 11.8047 70.4697 11.8511 70.3768 11.8511H67.2C67.1629 11.8511 67.1443 11.8697 67.1443 11.9068V12.924C67.1443 13.3141 67.2511 13.6346 67.4647 13.8854C67.6877 14.1269 67.9756 14.2476 68.3286 14.2476C68.6258 14.2476 68.8766 14.1594 69.081 13.9829C69.2946 13.7971 69.434 13.5602 69.499 13.2723C69.5268 13.1887 69.5779 13.1469 69.6522 13.1469L70.3489 13.1748C70.3861 13.1748 70.4186 13.1887 70.4464 13.2166C70.4743 13.2444 70.4836 13.2816 70.4743 13.328C70.4 13.8761 70.1724 14.3126 69.7916 14.6377C69.42 14.9536 68.9324 15.1115 68.3286 15.1115C67.6691 15.1115 67.1396 14.9164 66.7402 14.5263C66.3501 14.1361 66.155 13.6206 66.155 12.9797V9.97015C66.155 9.33851 66.3501 8.82763 66.7402 8.4375C67.1396 8.03809 67.6691 7.83838 68.3286 7.83838C68.9974 7.83838 69.5268 8.03809 69.917 8.4375C70.3164 8.82763 70.5161 9.33851 70.5161 9.97015V11.7118ZM68.3286 8.70223C67.9756 8.70223 67.6877 8.82763 67.4647 9.07843C67.2511 9.31993 67.1443 9.6404 67.1443 10.0398V10.9733C67.1443 11.0105 67.1629 11.0291 67.2 11.0291H69.485C69.5222 11.0291 69.5408 11.0105 69.5408 10.9733V10.0398C69.5408 9.6404 69.4293 9.31993 69.2064 9.07843C68.9835 8.82763 68.6909 8.70223 68.3286 8.70223ZM78.3663 5.24682C78.4592 5.24682 78.5056 5.29326 78.5056 5.38615V5.97134C78.5056 6.06423 78.4592 6.11067 78.3663 6.11067H76.5271C76.49 6.11067 76.4714 6.12925 76.4714 6.16641V14.8607C76.4714 14.9536 76.425 15 76.3321 15H75.6215C75.5286 15 75.4822 14.9536 75.4822 14.8607V6.16641C75.4822 6.12925 75.4636 6.11067 75.4264 6.11067H73.6987C73.6058 6.11067 73.5594 6.06423 73.5594 5.97134V5.38615C73.5594 5.29326 73.6058 5.24682 73.6987 5.24682H78.3663ZM81.172 7.83838C81.8222 7.83838 82.3424 8.05202 82.7325 8.4793C83.1226 8.8973 83.3177 9.45926 83.3177 10.1652V14.8607C83.3177 14.9536 83.2712 15 83.1784 15H82.4678C82.3749 15 82.3284 14.9536 82.3284 14.8607V14.4427C82.3284 14.4241 82.3191 14.4148 82.3006 14.4148C82.2913 14.4055 82.2773 14.4102 82.2588 14.4287C81.9151 14.8839 81.3996 15.1115 80.7122 15.1115C80.2013 15.1115 79.7555 14.9675 79.3746 14.6795C79.0031 14.3823 78.8173 13.8621 78.8173 13.119C78.8173 12.3295 79.0449 11.7536 79.5 11.3913C79.9552 11.0198 80.5543 10.834 81.2974 10.834H82.2727C82.3099 10.834 82.3284 10.8154 82.3284 10.7783V10.2349C82.3284 9.77044 82.2216 9.39889 82.008 9.12023C81.7943 8.84156 81.5064 8.70223 81.1441 8.70223C80.8655 8.70223 80.624 8.79512 80.4196 8.98089C80.2245 9.16667 80.1084 9.40353 80.0713 9.69148C80.0713 9.78437 80.0248 9.83081 79.9319 9.83081L79.1517 9.81688C79.1052 9.81688 79.0681 9.80295 79.0402 9.77508C79.0216 9.74722 79.017 9.71471 79.0263 9.67755C79.0727 9.12951 79.2957 8.6883 79.6951 8.3539C80.0945 8.01022 80.5868 7.83838 81.172 7.83838ZM80.9212 14.2476C81.302 14.2476 81.6318 14.1269 81.9104 13.8854C82.1891 13.6346 82.3284 13.2909 82.3284 12.8543V11.6839C82.3284 11.6468 82.3099 11.6282 82.2727 11.6282H81.2835C80.8376 11.6282 80.4846 11.7489 80.2245 11.9904C79.9645 12.2227 79.8344 12.571 79.8344 13.0354C79.8344 13.4441 79.9319 13.7507 80.127 13.955C80.3314 14.1501 80.5961 14.2476 80.9212 14.2476ZM86.2866 15.0697C85.6457 15.0697 85.1302 14.9071 84.7401 14.582C84.3592 14.2476 84.1688 13.8064 84.1688 13.2584V13.1608C84.1688 13.0679 84.2152 13.0215 84.3081 13.0215H84.9769C85.0698 13.0215 85.1163 13.0679 85.1163 13.1608V13.2444C85.1163 13.5417 85.2231 13.7925 85.4367 13.9968C85.6596 14.2012 85.9476 14.3033 86.3006 14.3033C86.635 14.3033 86.9043 14.2012 87.1087 13.9968C87.313 13.7925 87.4152 13.5324 87.4152 13.2166C87.4152 12.9751 87.3502 12.7753 87.2202 12.6174C87.0901 12.4502 86.9368 12.3202 86.7604 12.2273C86.5932 12.1344 86.3377 12.0137 85.994 11.865C85.6318 11.7164 85.3299 11.5725 85.0884 11.4331C84.8562 11.2845 84.6518 11.0802 84.4753 10.8201C84.3081 10.5507 84.2245 10.2117 84.2245 9.80295C84.2245 9.20847 84.4057 8.73939 84.7679 8.3957C85.1395 8.05202 85.6364 7.88018 86.2588 7.88018C86.8904 7.88018 87.392 8.05666 87.7635 8.40964C88.1351 8.76261 88.3209 9.23169 88.3209 9.81688V9.85868C88.3209 9.95157 88.2744 9.99801 88.1815 9.99801H87.5406C87.4477 9.99801 87.4013 9.95157 87.4013 9.85868V9.77508C87.4013 9.45926 87.2945 9.19918 87.0808 8.99483C86.8765 8.79048 86.6071 8.6883 86.2727 8.6883C85.9383 8.6883 85.6689 8.79512 85.4646 9.00876C85.2695 9.21311 85.172 9.46855 85.172 9.77508C85.172 9.99801 85.2324 10.1884 85.3531 10.3463C85.4739 10.495 85.6225 10.6204 85.799 10.7225C85.9755 10.8154 86.2216 10.9315 86.5374 11.0709C86.9183 11.2381 87.2294 11.396 87.471 11.5446C87.7217 11.6932 87.94 11.9022 88.1258 12.1716C88.3116 12.441 88.4045 12.7753 88.4045 13.1748C88.4045 13.7507 88.2141 14.2105 87.8332 14.5541C87.4524 14.8978 86.9368 15.0697 86.2866 15.0697ZM89.3801 15C89.2872 15 89.2408 14.9536 89.2408 14.8607V5.38615C89.2408 5.29326 89.2872 5.24682 89.3801 5.24682H90.0907C90.1836 5.24682 90.23 5.29326 90.23 5.38615V10.9873C90.23 11.0058 90.2393 11.0198 90.2579 11.0291C90.2765 11.0384 90.2904 11.0337 90.2997 11.0151L92.3897 8.03344C92.4268 7.97771 92.4826 7.94984 92.5569 7.94984H93.2814C93.3371 7.94984 93.3743 7.96842 93.3929 8.00558C93.4114 8.03344 93.4021 8.0706 93.365 8.11704L91.9856 10.0955C91.9577 10.1234 91.9531 10.1513 91.9717 10.1791L93.6158 14.8467L93.6297 14.9025C93.6297 14.9675 93.5879 15 93.5043 15H92.7659C92.6823 15 92.6265 14.9628 92.5987 14.8885L91.3586 11.0151C91.3493 10.9594 91.3215 10.9548 91.275 11.0012L90.2579 12.4502C90.2393 12.4688 90.23 12.492 90.23 12.5199V14.8607C90.23 14.9536 90.1836 15 90.0907 15H89.3801ZM95.0686 6.668C94.8364 6.668 94.646 6.59369 94.4974 6.44507C94.358 6.29645 94.2884 6.11067 94.2884 5.88774C94.2884 5.65552 94.358 5.46975 94.4974 5.33042C94.646 5.1818 94.8364 5.10749 95.0686 5.10749C95.2916 5.10749 95.4727 5.1818 95.612 5.33042C95.7606 5.46975 95.835 5.65552 95.835 5.88774C95.835 6.11067 95.7606 6.29645 95.612 6.44507C95.4727 6.59369 95.2916 6.668 95.0686 6.668ZM94.7203 15C94.6274 15 94.581 14.9536 94.581 14.8607V8.08918C94.581 7.99629 94.6274 7.94984 94.7203 7.94984H95.4309C95.5238 7.94984 95.5702 7.99629 95.5702 8.08918V14.8607C95.5702 14.9536 95.5238 15 95.4309 15H94.7203ZM99.4577 7.85231C100.024 7.85231 100.461 8.04738 100.767 8.4375C101.083 8.82763 101.241 9.37102 101.241 10.0677V14.8607C101.241 14.9536 101.195 15 101.102 15H100.391C100.298 15 100.252 14.9536 100.252 14.8607V10.1513C100.252 9.69613 100.15 9.34316 99.9453 9.09236C99.7503 8.84156 99.4763 8.71617 99.1233 8.71617C98.7517 8.71617 98.4591 8.85085 98.2455 9.12023C98.0411 9.3896 97.939 9.7565 97.939 10.2209V14.8607C97.939 14.9536 97.8925 15 97.7996 15H97.089C96.9962 15 96.9497 14.9536 96.9497 14.8607V8.08918C96.9497 7.99629 96.9962 7.94984 97.089 7.94984H97.7996C97.8925 7.94984 97.939 7.99629 97.939 8.08918V8.53503C97.939 8.55361 97.9483 8.56755 97.9668 8.57683C97.9854 8.58612 97.9993 8.57683 98.0086 8.54897C98.1758 8.31675 98.3848 8.14491 98.6356 8.03344C98.8957 7.91269 99.1697 7.85231 99.4577 7.85231ZM105.642 8.08918C105.642 7.99629 105.688 7.94984 105.781 7.94984H106.492C106.584 7.94984 106.631 7.99629 106.631 8.08918V14.8607C106.631 15.8546 106.399 16.607 105.934 17.1178C105.479 17.638 104.713 17.8749 103.635 17.8284C103.542 17.8191 103.496 17.768 103.496 17.6752V17.076C103.496 16.9831 103.542 16.9367 103.635 16.9367C104.378 16.9553 104.898 16.7834 105.196 16.4212C105.493 16.0682 105.642 15.5202 105.642 14.7771V14.3591C105.642 14.3405 105.632 14.3266 105.614 14.3173C105.604 14.308 105.59 14.3126 105.572 14.3312C105.414 14.5634 105.21 14.7399 104.959 14.8607C104.717 14.9814 104.457 15.0418 104.179 15.0418C103.593 15.0418 103.129 14.8467 102.785 14.4566C102.451 14.0665 102.284 13.551 102.284 12.91V9.97015C102.284 9.31993 102.451 8.80441 102.785 8.42357C103.129 8.03344 103.593 7.83838 104.179 7.83838C104.457 7.83838 104.717 7.89876 104.959 8.01951C105.21 8.13097 105.414 8.30282 105.572 8.53503C105.59 8.5629 105.604 8.57683 105.614 8.57683C105.632 8.56755 105.642 8.54897 105.642 8.5211V8.08918ZM104.471 14.1779C104.815 14.1779 105.094 14.0572 105.307 13.8157C105.53 13.5649 105.642 13.2444 105.642 12.8543V10.0398C105.642 9.6404 105.53 9.31993 105.307 9.07843C105.094 8.82763 104.815 8.70223 104.471 8.70223C104.118 8.70223 103.83 8.82763 103.607 9.07843C103.384 9.31993 103.273 9.6404 103.273 10.0398V12.8543C103.273 13.2444 103.384 13.5649 103.607 13.8157C103.83 14.0572 104.118 14.1779 104.471 14.1779ZM50.2044 18.3444C50.2323 18.2793 50.288 18.2468 50.3716 18.2468H51.0962C51.1891 18.2468 51.2355 18.2933 51.2355 18.3862V27.8607C51.2355 27.9536 51.1891 28 51.0962 28H50.3856C50.2927 28 50.2462 27.9536 50.2462 27.8607V20.3925C50.2462 20.3647 50.237 20.3507 50.2184 20.3507C50.2091 20.3507 50.1952 20.36 50.1766 20.3786L48.7275 23.3881C48.6997 23.4532 48.6532 23.4857 48.5882 23.4857C48.5139 23.4857 48.4628 23.4532 48.4349 23.3881L46.9859 20.3925C46.9673 20.3739 46.9487 20.3647 46.9302 20.3647C46.9209 20.3647 46.9162 20.3786 46.9162 20.4065V27.8607C46.9162 27.9536 46.8698 28 46.7769 28H46.0663C45.9734 28 45.927 27.9536 45.927 27.8607V18.3862C45.927 18.2933 45.9734 18.2468 46.0663 18.2468H46.7908C46.8744 18.2468 46.9302 18.2793 46.958 18.3444L48.5464 21.5629C48.5557 21.5815 48.5696 21.5908 48.5882 21.5908C48.6068 21.5908 48.6207 21.5815 48.63 21.5629L50.2044 18.3444ZM54.7116 20.8384C55.3618 20.8384 55.882 21.052 56.2721 21.4793C56.6622 21.8973 56.8573 22.4593 56.8573 23.1652V27.8607C56.8573 27.9536 56.8108 28 56.718 28H56.0074C55.9145 28 55.868 27.9536 55.868 27.8607V27.4427C55.868 27.4241 55.8587 27.4148 55.8402 27.4148C55.8309 27.4055 55.8169 27.4102 55.7984 27.4287C55.4547 27.8839 54.9392 28.1115 54.2518 28.1115C53.7409 28.1115 53.2951 27.9675 52.9142 27.6795C52.5427 27.3823 52.3569 26.8621 52.3569 26.119C52.3569 25.3295 52.5845 24.7536 53.0396 24.3913C53.4948 24.0198 54.0939 23.834 54.837 23.834H55.8123C55.8495 23.834 55.868 23.8154 55.868 23.7783V23.2349C55.868 22.7704 55.7612 22.3989 55.5476 22.1202C55.3339 21.8416 55.046 21.7022 54.6837 21.7022C54.4051 21.7022 54.1636 21.7951 53.9592 21.9809C53.7641 22.1667 53.648 22.4035 53.6109 22.6915C53.6109 22.7844 53.5644 22.8308 53.4715 22.8308L52.6913 22.8169C52.6448 22.8169 52.6077 22.8029 52.5798 22.7751C52.5612 22.7472 52.5566 22.7147 52.5659 22.6776C52.6123 22.1295 52.8353 21.6883 53.2347 21.3539C53.6341 21.0102 54.1264 20.8384 54.7116 20.8384ZM54.4608 27.2476C54.8416 27.2476 55.1714 27.1269 55.45 26.8854C55.7287 26.6346 55.868 26.2909 55.868 25.8543V24.6839C55.868 24.6468 55.8495 24.6282 55.8123 24.6282H54.8231C54.3772 24.6282 54.0242 24.7489 53.7641 24.9904C53.5041 25.2227 53.374 25.571 53.374 26.0354C53.374 26.4441 53.4715 26.7507 53.6666 26.955C53.871 27.1501 54.1357 27.2476 54.4608 27.2476ZM60.495 20.8523C61.0616 20.8523 61.4982 21.0474 61.8047 21.4375C62.1206 21.8276 62.2785 22.371 62.2785 23.0677V27.8607C62.2785 27.9536 62.232 28 62.1391 28H61.4285C61.3357 28 61.2892 27.9536 61.2892 27.8607V23.1513C61.2892 22.6961 61.187 22.3432 60.9827 22.0924C60.7876 21.8416 60.5136 21.7162 60.1606 21.7162C59.7891 21.7162 59.4965 21.8509 59.2828 22.1202C59.0785 22.3896 58.9763 22.7565 58.9763 23.2209V27.8607C58.9763 27.9536 58.9299 28 58.837 28H58.1264C58.0335 28 57.9871 27.9536 57.9871 27.8607V21.0892C57.9871 20.9963 58.0335 20.9498 58.1264 20.9498H58.837C58.9299 20.9498 58.9763 20.9963 58.9763 21.0892V21.535C58.9763 21.5536 58.9856 21.5675 59.0042 21.5768C59.0228 21.5861 59.0367 21.5768 59.046 21.549C59.2132 21.3167 59.4222 21.1449 59.673 21.0334C59.9331 20.9127 60.2071 20.8523 60.495 20.8523ZM65.5364 20.8384C66.1866 20.8384 66.7068 21.052 67.0969 21.4793C67.4871 21.8973 67.6821 22.4593 67.6821 23.1652V27.8607C67.6821 27.9536 67.6357 28 67.5428 28H66.8322C66.7393 28 66.6929 27.9536 66.6929 27.8607V27.4427C66.6929 27.4241 66.6836 27.4148 66.665 27.4148C66.6557 27.4055 66.6418 27.4102 66.6232 27.4287C66.2795 27.8839 65.764 28.1115 65.0766 28.1115C64.5657 28.1115 64.1199 27.9675 63.739 27.6795C63.3675 27.3823 63.1817 26.8621 63.1817 26.119C63.1817 25.3295 63.4093 24.7536 63.8644 24.3913C64.3196 24.0198 64.9187 23.834 65.6618 23.834H66.6371C66.6743 23.834 66.6929 23.8154 66.6929 23.7783V23.2349C66.6929 22.7704 66.586 22.3989 66.3724 22.1202C66.1588 21.8416 65.8708 21.7022 65.5086 21.7022C65.2299 21.7022 64.9884 21.7951 64.784 21.9809C64.589 22.1667 64.4729 22.4035 64.4357 22.6915C64.4357 22.7844 64.3893 22.8308 64.2964 22.8308L63.5161 22.8169C63.4697 22.8169 63.4325 22.8029 63.4047 22.7751C63.3861 22.7472 63.3814 22.7147 63.3907 22.6776C63.4372 22.1295 63.6601 21.6883 64.0595 21.3539C64.4589 21.0102 64.9512 20.8384 65.5364 20.8384ZM65.2856 27.2476C65.6665 27.2476 65.9962 27.1269 66.2749 26.8854C66.5535 26.6346 66.6929 26.2909 66.6929 25.8543V24.6839C66.6929 24.6468 66.6743 24.6282 66.6371 24.6282H65.6479C65.202 24.6282 64.8491 24.7489 64.589 24.9904C64.3289 25.2227 64.1988 25.571 64.1988 26.0354C64.1988 26.4441 64.2964 26.7507 64.4914 26.955C64.6958 27.1501 64.9605 27.2476 65.2856 27.2476ZM72.0165 21.0892C72.0165 20.9963 72.063 20.9498 72.1558 20.9498H72.8664C72.9593 20.9498 73.0058 20.9963 73.0058 21.0892V27.8607C73.0058 28.8546 72.7735 29.607 72.3091 30.1178C71.854 30.638 71.0876 30.8749 70.0101 30.8284C69.9173 30.8191 69.8708 30.768 69.8708 30.6752V30.076C69.8708 29.9831 69.9173 29.9367 70.0101 29.9367C70.7532 29.9553 71.2734 29.7834 71.5707 29.4212C71.8679 29.0682 72.0165 28.5202 72.0165 27.7771V27.3591C72.0165 27.3405 72.0072 27.3266 71.9886 27.3173C71.9794 27.308 71.9654 27.3126 71.9468 27.3312C71.7889 27.5634 71.5846 27.7399 71.3338 27.8607C71.0923 27.9814 70.8322 28.0418 70.5535 28.0418C69.9683 28.0418 69.5039 27.8467 69.1602 27.4566C68.8258 27.0665 68.6586 26.551 68.6586 25.91V22.9701C68.6586 22.3199 68.8258 21.8044 69.1602 21.4236C69.5039 21.0334 69.9683 20.8384 70.5535 20.8384C70.8322 20.8384 71.0923 20.8988 71.3338 21.0195C71.5846 21.131 71.7889 21.3028 71.9468 21.535C71.9654 21.5629 71.9794 21.5768 71.9886 21.5768C72.0072 21.5675 72.0165 21.549 72.0165 21.5211V21.0892ZM70.8461 27.1779C71.1898 27.1779 71.4685 27.0572 71.6821 26.8157C71.9051 26.5649 72.0165 26.2444 72.0165 25.8543V23.0398C72.0165 22.6404 71.9051 22.3199 71.6821 22.0784C71.4685 21.8276 71.1898 21.7022 70.8461 21.7022C70.4932 21.7022 70.2052 21.8276 69.9823 22.0784C69.7594 22.3199 69.6479 22.6404 69.6479 23.0398V25.8543C69.6479 26.2444 69.7594 26.5649 69.9823 26.8157C70.2052 27.0572 70.4932 27.1779 70.8461 27.1779ZM78.3573 24.7118C78.3573 24.8047 78.3108 24.8511 78.218 24.8511H75.0412C75.004 24.8511 74.9855 24.8697 74.9855 24.9068V25.924C74.9855 26.3141 75.0923 26.6346 75.3059 26.8854C75.5289 27.1269 75.8168 27.2476 76.1698 27.2476C76.467 27.2476 76.7178 27.1594 76.9222 26.9829C77.1358 26.7971 77.2751 26.5602 77.3402 26.2723C77.368 26.1887 77.4191 26.1469 77.4934 26.1469L78.1901 26.1748C78.2272 26.1748 78.2597 26.1887 78.2876 26.2166C78.3155 26.2444 78.3248 26.2816 78.3155 26.328C78.2412 26.8761 78.0136 27.3126 77.6328 27.6377C77.2612 27.9536 76.7736 28.1115 76.1698 28.1115C75.5103 28.1115 74.9808 27.9164 74.5814 27.5263C74.1913 27.1361 73.9962 26.6206 73.9962 25.9797V22.9701C73.9962 22.3385 74.1913 21.8276 74.5814 21.4375C74.9808 21.0381 75.5103 20.8384 76.1698 20.8384C76.8386 20.8384 77.368 21.0381 77.7582 21.4375C78.1576 21.8276 78.3573 22.3385 78.3573 22.9701V24.7118ZM76.1698 21.7022C75.8168 21.7022 75.5289 21.8276 75.3059 22.0784C75.0923 22.3199 74.9855 22.6404 74.9855 23.0398V23.9733C74.9855 24.0105 75.004 24.0291 75.0412 24.0291H77.3262C77.3634 24.0291 77.382 24.0105 77.382 23.9733V23.0398C77.382 22.6404 77.2705 22.3199 77.0476 22.0784C76.8246 21.8276 76.532 21.7022 76.1698 21.7022ZM81.788 20.8802C82.0202 20.8802 82.2199 20.9313 82.3871 21.0334C82.4521 21.0706 82.4753 21.131 82.4568 21.2146L82.2896 21.9391C82.2803 22.0227 82.2246 22.0506 82.1224 22.0227C82.0109 21.967 81.8716 21.9391 81.7044 21.9391C81.6301 21.9391 81.5743 21.9437 81.5372 21.953C81.2028 21.9716 80.9288 22.1481 80.7151 22.4825C80.5015 22.8076 80.3947 23.207 80.3947 23.6807V27.8607C80.3947 27.9536 80.3482 28 80.2553 28H79.5448C79.4519 28 79.4054 27.9536 79.4054 27.8607V21.0892C79.4054 20.9963 79.4519 20.9498 79.5448 20.9498H80.2553C80.3482 20.9498 80.3947 20.9963 80.3947 21.0892V21.9252C80.3947 21.953 80.3993 21.967 80.4086 21.967C80.4272 21.967 80.4458 21.9577 80.4643 21.9391C80.7337 21.2332 81.1749 20.8802 81.788 20.8802ZM85.9287 29.449C85.8544 29.449 85.7987 29.4165 85.7615 29.3515C85.3993 28.6456 85.102 27.7771 84.8698 26.746C84.6469 25.7057 84.5354 24.6143 84.5354 23.4717C84.5354 22.3014 84.6515 21.1867 84.8837 20.1278C85.116 19.0689 85.4178 18.1818 85.7894 17.4666C85.8266 17.4015 85.8823 17.369 85.9566 17.369H86.6393C86.6858 17.369 86.7183 17.3876 86.7368 17.4248C86.7647 17.4526 86.7694 17.4851 86.7508 17.5223C86.435 18.2561 86.1749 19.1478 85.9705 20.1975C85.7662 21.2471 85.664 22.3339 85.664 23.4578C85.664 24.5632 85.7662 25.6314 85.9705 26.6624C86.1749 27.6842 86.435 28.5573 86.7508 29.2818L86.7647 29.3376C86.7647 29.4119 86.7229 29.449 86.6393 29.449H85.9287ZM88.3904 28C88.2975 28 88.2511 27.9536 88.2511 27.8607V18.3862C88.2511 18.2933 88.2975 18.2468 88.3904 18.2468H90.5361C91.2514 18.2468 91.8226 18.4837 92.2499 18.9574C92.6772 19.4218 92.8908 20.0488 92.8908 20.8384V25.4084C92.8908 26.198 92.6772 26.8296 92.2499 27.3033C91.8226 27.7678 91.2514 28 90.5361 28H88.3904ZM89.2403 27.0804C89.2403 27.1176 89.2589 27.1361 89.2961 27.1361L90.5222 27.1222C90.9309 27.1222 91.256 26.9643 91.4975 26.6485C91.7483 26.3327 91.8784 25.9054 91.8876 25.3666V20.8802C91.8876 20.3321 91.7669 19.9002 91.5254 19.5844C91.2839 19.2686 90.9495 19.1107 90.5222 19.1107H89.2961C89.2589 19.1107 89.2403 19.1293 89.2403 19.1664V27.0804ZM96.5391 20.8802C96.7713 20.8802 96.971 20.9313 97.1382 21.0334C97.2033 21.0706 97.2265 21.131 97.2079 21.2146L97.0407 21.9391C97.0314 22.0227 96.9757 22.0506 96.8735 22.0227C96.7621 21.967 96.6227 21.9391 96.4555 21.9391C96.3812 21.9391 96.3255 21.9437 96.2883 21.953C95.9539 21.9716 95.6799 22.1481 95.4663 22.4825C95.2526 22.8076 95.1458 23.207 95.1458 23.6807V27.8607C95.1458 27.9536 95.0994 28 95.0065 28H94.2959C94.203 28 94.1566 27.9536 94.1566 27.8607V21.0892C94.1566 20.9963 94.203 20.9498 94.2959 20.9498H95.0065C95.0994 20.9498 95.1458 20.9963 95.1458 21.0892V21.9252C95.1458 21.953 95.1505 21.967 95.1597 21.967C95.1783 21.967 95.1969 21.9577 95.2155 21.9391C95.4849 21.2332 95.9261 20.8802 96.5391 20.8802ZM99.7867 28.1115C99.1179 28.1115 98.5838 27.9164 98.1844 27.5263C97.7943 27.1361 97.5992 26.6206 97.5992 25.9797V22.9841C97.5992 22.3524 97.7989 21.8369 98.1984 21.4375C98.5978 21.0381 99.1272 20.8384 99.7867 20.8384C100.456 20.8384 100.99 21.0381 101.389 21.4375C101.788 21.8369 101.988 22.3524 101.988 22.9841V25.9797C101.988 26.6206 101.788 27.1361 101.389 27.5263C100.99 27.9164 100.456 28.1115 99.7867 28.1115ZM99.7867 27.2337C100.14 27.2337 100.428 27.1129 100.651 26.8714C100.883 26.6299 100.999 26.3094 100.999 25.91V23.0398C100.999 22.6404 100.883 22.3199 100.651 22.0784C100.428 21.8276 100.14 21.7022 99.7867 21.7022C99.4338 21.7022 99.1458 21.8276 98.9229 22.0784C98.7 22.3199 98.5885 22.6404 98.5885 23.0398V25.91C98.5885 26.3094 98.7 26.6299 98.9229 26.8714C99.1458 27.1129 99.4338 27.2337 99.7867 27.2337ZM105.625 20.8523C106.192 20.8523 106.628 21.0474 106.935 21.4375C107.251 21.8276 107.409 22.371 107.409 23.0677V27.8607C107.409 27.9536 107.362 28 107.269 28H106.559C106.466 28 106.419 27.9536 106.419 27.8607V23.1513C106.419 22.6961 106.317 22.3432 106.113 22.0924C105.918 21.8416 105.644 21.7162 105.291 21.7162C104.919 21.7162 104.627 21.8509 104.413 22.1202C104.209 22.3896 104.107 22.7565 104.107 23.2209V27.8607C104.107 27.9536 104.06 28 103.967 28H103.257C103.164 28 103.117 27.9536 103.117 27.8607V21.0892C103.117 20.9963 103.164 20.9498 103.257 20.9498H103.967C104.06 20.9498 104.107 20.9963 104.107 21.0892V21.535C104.107 21.5536 104.116 21.5675 104.134 21.5768C104.153 21.5861 104.167 21.5768 104.176 21.549C104.343 21.3167 104.552 21.1449 104.803 21.0334C105.063 20.9127 105.337 20.8523 105.625 20.8523ZM112.812 24.7118C112.812 24.8047 112.766 24.8511 112.673 24.8511H109.496C109.459 24.8511 109.441 24.8697 109.441 24.9068V25.924C109.441 26.3141 109.547 26.6346 109.761 26.8854C109.984 27.1269 110.272 27.2476 110.625 27.2476C110.922 27.2476 111.173 27.1594 111.377 26.9829C111.591 26.7971 111.73 26.5602 111.795 26.2723C111.823 26.1887 111.874 26.1469 111.948 26.1469L112.645 26.1748C112.682 26.1748 112.715 26.1887 112.743 26.2166C112.771 26.2444 112.78 26.2816 112.771 26.328C112.696 26.8761 112.469 27.3126 112.088 27.6377C111.716 27.9536 111.229 28.1115 110.625 28.1115C109.965 28.1115 109.436 27.9164 109.036 27.5263C108.646 27.1361 108.451 26.6206 108.451 25.9797V22.9701C108.451 22.3385 108.646 21.8276 109.036 21.4375C109.436 21.0381 109.965 20.8384 110.625 20.8384C111.294 20.8384 111.823 21.0381 112.213 21.4375C112.613 21.8276 112.812 22.3385 112.812 22.9701V24.7118ZM110.625 21.7022C110.272 21.7022 109.984 21.8276 109.761 22.0784C109.547 22.3199 109.441 22.6404 109.441 23.0398V23.9733C109.441 24.0105 109.459 24.0291 109.496 24.0291H111.781C111.818 24.0291 111.837 24.0105 111.837 23.9733V23.0398C111.837 22.6404 111.726 22.3199 111.503 22.0784C111.28 21.8276 110.987 21.7022 110.625 21.7022ZM120.663 18.2468C120.755 18.2468 120.802 18.2933 120.802 18.3862V18.9713C120.802 19.0642 120.755 19.1107 120.663 19.1107H118.823C118.786 19.1107 118.768 19.1293 118.768 19.1664V27.8607C118.768 27.9536 118.721 28 118.628 28H117.918C117.825 28 117.778 27.9536 117.778 27.8607V19.1664C117.778 19.1293 117.76 19.1107 117.723 19.1107H115.995C115.902 19.1107 115.856 19.0642 115.856 18.9713V18.3862C115.856 18.2933 115.902 18.2468 115.995 18.2468H120.663ZM126.108 18.3444C126.136 18.2793 126.192 18.2468 126.276 18.2468H127C127.093 18.2468 127.139 18.2933 127.139 18.3862V27.8607C127.139 27.9536 127.093 28 127 28H126.289C126.197 28 126.15 27.9536 126.15 27.8607V20.3925C126.15 20.3647 126.141 20.3507 126.122 20.3507C126.113 20.3507 126.099 20.36 126.08 20.3786L124.631 23.3881C124.604 23.4532 124.557 23.4857 124.492 23.4857C124.418 23.4857 124.367 23.4532 124.339 23.3881L122.89 20.3925C122.871 20.3739 122.853 20.3647 122.834 20.3647C122.825 20.3647 122.82 20.3786 122.82 20.4065V27.8607C122.82 27.9536 122.774 28 122.681 28H121.97C121.877 28 121.831 27.9536 121.831 27.8607V18.3862C121.831 18.2933 121.877 18.2468 121.97 18.2468H122.695C122.778 18.2468 122.834 18.2793 122.862 18.3444L124.45 21.5629C124.46 21.5815 124.474 21.5908 124.492 21.5908C124.511 21.5908 124.525 21.5815 124.534 21.5629L126.108 18.3444ZM129.431 17.369C129.505 17.369 129.561 17.4015 129.598 17.4666C129.961 18.1632 130.253 19.0317 130.476 20.0721C130.708 21.1124 130.824 22.2038 130.824 23.3463C130.824 24.526 130.708 25.6499 130.476 26.7182C130.244 27.7771 129.942 28.6549 129.571 29.3515C129.533 29.4165 129.478 29.449 129.403 29.449H128.735C128.688 29.449 128.651 29.4305 128.623 29.3933C128.604 29.3654 128.604 29.3329 128.623 29.2958C128.939 28.5527 129.199 27.661 129.403 26.6206C129.608 25.571 129.71 24.4889 129.71 23.3742C129.71 22.2688 129.608 21.2053 129.403 20.1835C129.199 19.1525 128.939 18.2654 128.623 17.5223C128.614 17.513 128.609 17.4944 128.609 17.4666C128.609 17.4387 128.618 17.4155 128.637 17.3969C128.665 17.3783 128.697 17.369 128.735 17.369H129.431Z" fill="#6B6B6B"/>
<defs>
<clipPath id="clip0_6345_2723">
<rect width="33.805" height="30.3861" fill="white" transform="translate(0 0.806885)"/>
</clipPath>
</defs>
</svg>
