<svg width="26" height="26" viewBox="0 0 26 26" fill="none" xmlns="http://www.w3.org/2000/svg">
<g id="search 1" clip-path="url(#clip0_6678_8172)">
<path id="Path 3168" d="M6.30569 15.5097L5.46869 18.6347L2.40869 18.6997C1.48322 16.9761 0.991471 15.053 0.975964 13.0967C0.960458 11.1404 1.42166 9.20975 2.31969 7.47168L5.04369 7.97168L6.23669 10.6797C5.69972 12.2497 5.72339 13.9572 6.30369 15.5117L6.30569 15.5097Z" fill="#FBBB00"/>
<path id="Path 3169" d="M24.8147 10.7537C25.2227 12.8976 25.0394 15.1122 24.2843 17.1598C23.5293 19.2075 22.2309 21.0109 20.5287 22.3767L17.0977 22.2017L16.6117 19.1707C18.0283 18.3399 19.1167 17.0479 19.6947 15.5107H13.2646V10.7537H24.8147Z" fill="#518EF8"/>
<path id="Path 3170" d="M20.5277 22.3765C19.1518 23.4809 17.5498 24.2691 15.8352 24.6852C14.1207 25.1012 12.3356 25.135 10.6065 24.7841C8.87743 24.4332 7.24673 23.7062 5.83001 22.6547C4.41329 21.6032 3.24524 20.2529 2.40869 18.6995L6.30869 15.5095C6.67473 16.4846 7.24934 17.368 7.99233 18.0979C8.73532 18.8278 9.62877 19.3867 10.6102 19.7354C11.5917 20.084 12.6374 20.2141 13.6744 20.1166C14.7114 20.019 15.7145 19.6961 16.6137 19.1705L20.5277 22.3765Z" fill="#28B446"/>
<path id="Path 3171" d="M20.6748 3.74366L16.7748 6.93266C15.8625 6.36516 14.8341 6.01055 13.7659 5.89518C12.6977 5.77982 11.6172 5.90667 10.6048 6.26631C9.59237 6.62594 8.67401 7.20912 7.91797 7.9725C7.16193 8.73587 6.58765 9.65981 6.2378 10.6757L2.3208 7.47066C3.14716 5.87566 4.32031 4.48603 5.7541 3.40383C7.18788 2.32162 8.84587 1.57434 10.6063 1.21687C12.3667 0.85939 14.1849 0.900801 15.9272 1.33806C17.6695 1.77531 19.2918 2.5973 20.6748 3.74366Z" fill="#F14336"/>
</g>
<defs>
<clipPath id="clip0_6678_8172">
<rect width="24.049" height="24.049" fill="white" transform="translate(0.975586 0.975586)"/>
</clipPath>
</defs>
</svg>
