<svg width="48" height="49" viewBox="0 0 48 49" fill="none" xmlns="http://www.w3.org/2000/svg">
<circle cx="24" cy="24.5" r="24" fill="#FFEDED"/>
<g clip-path="url(#clip0_6862_2918)">
<path d="M17.3862 21.3402H17.6208C18.524 21.3402 19.2629 22.0791 19.2629 22.9823V31.1927C19.2629 32.0958 18.524 32.8348 17.6208 32.8348H17.3862C16.4831 32.8348 15.7441 32.0958 15.7441 31.1927V22.9823C15.7441 22.0791 16.4831 21.3402 17.3862 21.3402ZM23.9546 16.4139C24.8577 16.4139 25.5966 17.1529 25.5966 18.056V31.1927C25.5966 32.0958 24.8577 32.8348 23.9546 32.8348C23.0514 32.8348 22.3125 32.0958 22.3125 31.1927V18.056C22.3125 17.1529 23.0514 16.4139 23.9546 16.4139ZM30.5229 25.7973C31.426 25.7973 32.165 26.5362 32.165 27.4394V31.1927C32.165 32.0958 31.426 32.8348 30.5229 32.8348C29.6197 32.8348 28.8808 32.0958 28.8808 31.1927V27.4394C28.8808 26.5362 29.6197 25.7973 30.5229 25.7973Z" fill="#D73F3F"/>
</g>
<defs>
<clipPath id="clip0_6862_2918">
<rect width="28.15" height="28.15" fill="white" transform="translate(9.87988 10.5493)"/>
</clipPath>
</defs>
</svg>
