<svg width="80" height="80" viewBox="0 0 80 80" fill="none" xmlns="http://www.w3.org/2000/svg">
<rect width="80" height="80" fill="white"/>
<path d="M22.2348 25.5129C22.0884 25.6594 22.0884 25.8968 22.2348 26.0432L24.6213 28.4297C24.7678 28.5762 25.0052 28.5762 25.1517 28.4297C25.2981 28.2833 25.2981 28.0458 25.1517 27.8994L23.0303 25.7781L25.1517 23.6568C25.2981 23.5103 25.2981 23.2729 25.1517 23.1264C25.0052 22.98 24.7678 22.98 24.6213 23.1264L22.2348 25.5129ZM58.7652 26.0432C58.9116 25.8968 58.9116 25.6594 58.7652 25.5129L56.3787 23.1264C56.2322 22.98 55.9948 22.98 55.8484 23.1264C55.7019 23.2729 55.7019 23.5103 55.8484 23.6568L57.9697 25.7781L55.8484 27.8994C55.7019 28.0458 55.7019 28.2833 55.8484 28.4297C55.9948 28.5762 56.2322 28.5762 56.3787 28.4297L58.7652 26.0432ZM22.5 26.1531H58.5V25.4031H22.5V26.1531Z" fill="black"/>
<path d="M40.4991 51.3146C41.3075 51.3146 41.9651 50.657 41.9651 49.8487C41.9651 49.0403 41.3075 48.3827 40.4991 48.3827C39.6908 48.3827 39.0332 49.0403 39.0332 49.8487C39.0332 50.657 39.6908 51.3146 40.4991 51.3146ZM40.4991 49.3836C40.7556 49.3836 40.9642 49.5922 40.9642 49.8487C40.9642 50.1051 40.7556 50.3137 40.4991 50.3137C40.2427 50.3137 40.0341 50.1051 40.0341 49.8487C40.0341 49.5922 40.2427 49.3836 40.4991 49.3836Z" fill="#D73F37"/>
<path d="M55.6516 39.7321L54.6297 39.5232V36.9489H52.8519V35.5795H54.7218C54.9982 35.5795 55.2223 35.3555 55.2223 35.0791C55.2223 34.8027 54.9982 34.5786 54.7218 34.5786H52.8519V34.2785C52.8519 34.0021 52.6279 33.7781 52.3515 33.7781C52.0751 33.7781 51.8511 34.0021 51.8511 34.2785V34.5786H49.9812C49.7048 34.5786 49.4808 34.8027 49.4808 35.0791C49.4808 35.3555 49.7048 35.5795 49.9812 35.5795H51.8511V36.9489H50.0733V38.7673C46.9744 38.3472 43.7927 38.1341 40.6068 38.1341H40.3932C37.2066 38.1341 34.0241 38.3473 30.9266 38.7673V36.9489H29.1489V35.5795H31.0188C31.2952 35.5795 31.5192 35.3555 31.5192 35.0791C31.5192 34.8027 31.2952 34.5786 31.0188 34.5786H29.1489V34.2785C29.1489 34.0021 28.9249 33.7781 28.6485 33.7781C28.3721 33.7781 28.1481 34.0021 28.1481 34.2785V34.5786H26.2782C26.0018 34.5786 25.7777 34.8027 25.7777 35.0791C25.7777 35.3555 26.0018 35.5795 26.2782 35.5795H28.1481V36.9489H26.3703V39.5272L25.3532 39.7312C24.5691 39.8835 24 40.5785 24 41.3839V41.5974C24 42.5268 24.7561 43.283 25.6856 43.283H29.1285C29.5075 43.283 29.8797 43.3154 30.2426 43.3775L28.0263 45.6361C27.3207 46.3479 26.9629 47.3137 26.9629 48.5069V52.8563C26.9629 53.1327 27.1869 53.3568 27.4633 53.3568C27.7397 53.3568 27.9637 53.1327 27.9637 52.8563V48.5069C27.9637 47.5742 28.2167 46.8656 28.7389 46.339L31.3578 43.67C31.7108 43.7942 32.0616 43.9544 32.4042 44.1489L32.4578 44.182C32.7243 44.3356 32.9738 44.4644 33.2202 44.5758C34.7055 45.2807 36.358 45.6533 37.9992 45.6533H39.9995V46.4262H38.5087C37.7196 46.4262 37.0777 47.0682 37.0777 47.8572V51.8399C37.0777 52.6289 37.7196 53.2708 38.5087 53.2708H42.4913C43.2804 53.2708 43.9223 52.6289 43.9223 51.8399V47.8572C43.9223 47.0682 43.2804 46.4262 42.4913 46.4262H41.0004V45.6533H43.0008C44.5936 45.6533 46.1314 45.3218 47.5714 44.6679C47.9004 44.5248 48.2262 44.3617 48.5397 44.1834L48.596 44.1488C48.8893 43.9816 49.1954 43.837 49.5086 43.7163L52.14 46.3424C52.718 46.9203 53.0363 47.689 53.0363 48.5069V52.8563C53.0363 53.1327 53.2603 53.3568 53.5367 53.3568C53.8131 53.3568 54.0371 53.1327 54.0371 52.8563V48.5069C54.0371 47.4217 53.6147 46.4016 52.8474 45.6343L50.6109 43.4023C51.0228 43.3235 51.4442 43.283 51.8715 43.283H55.3144C56.2439 43.283 57 42.5268 57 41.5974V41.3839C57 40.5785 56.4309 39.8835 55.6516 39.7321ZM42.9214 47.8572V51.8399C42.9214 52.077 42.7285 52.2699 42.4913 52.2699H38.5087C38.2715 52.2699 38.0786 52.077 38.0786 51.8399V47.8572C38.0786 47.6201 38.2715 47.4271 38.5087 47.4271H42.4913C42.7285 47.4271 42.9214 47.6201 42.9214 47.8572ZM53.6288 37.9498V39.3321C52.7926 39.1762 51.937 39.034 51.0742 38.9082V37.9498H53.6288ZM29.9257 37.9498V38.9082C29.0617 39.0342 28.2062 39.1764 27.3712 39.3321V37.9498H29.9257ZM55.9991 41.5974C55.9991 41.975 55.692 42.2821 55.3144 42.2821H51.8715C51.0571 42.2821 50.2595 42.4083 49.4989 42.6571C49.4953 42.6581 49.4917 42.6593 49.4881 42.6604C49.4851 42.6614 49.4822 42.6622 49.4792 42.6631C48.9997 42.8229 48.5327 43.032 48.0913 43.2845L48.0364 43.3182C47.7551 43.4778 47.4631 43.6237 47.1683 43.7518L47.1608 43.7552C45.8507 44.3506 44.451 44.6524 43.0008 44.6524H37.9992C36.504 44.6524 34.9984 44.3126 33.6452 43.6697L33.6362 43.6655C33.421 43.5684 33.2013 43.455 32.9648 43.319L32.908 43.2841C32.3971 42.9929 31.8679 42.7666 31.3351 42.6113C30.6337 42.3928 29.8914 42.2821 29.1285 42.2821H25.6856C25.308 42.2821 25.0009 41.975 25.0009 41.5974V41.3839C25.0009 41.0567 25.2293 40.7748 25.5489 40.7127L26.615 40.4947L26.9908 40.4235C28.1313 40.1997 29.3163 40.0019 30.5152 39.8352C33.7412 39.3706 37.0647 39.135 40.3932 39.135H40.6068C43.9353 39.135 47.2588 39.3706 50.4872 39.8356C51.6837 40.0019 52.8686 40.1997 54.0115 40.424L55.4559 40.7136C55.7707 40.7748 55.9991 41.0567 55.9991 41.3839V41.5974Z" fill="#D73F37"/>
<path d="M43.8214 41.5785H37.1772C36.9008 41.5785 36.6768 41.8025 36.6768 42.0789C36.6768 42.3553 36.9008 42.5794 37.1772 42.5794H43.8214C44.0978 42.5794 44.3218 42.3553 44.3218 42.0789C44.3218 41.8025 44.0978 41.5785 43.8214 41.5785Z" fill="#D73F37"/>
<path d="M65.2652 34.0916C65.1187 33.9452 64.8813 33.9452 64.7348 34.0916L62.3483 36.4781C62.2019 36.6246 62.2019 36.862 62.3483 37.0085C62.4948 37.1549 62.7322 37.1549 62.8787 37.0085L65 34.8871L67.1213 37.0085C67.2678 37.1549 67.5052 37.1549 67.6517 37.0085C67.7981 36.862 67.7981 36.6246 67.6517 36.4781L65.2652 34.0916ZM64.7348 54.622C64.8813 54.7684 65.1187 54.7684 65.2652 54.622L67.6517 52.2355C67.7981 52.089 67.7981 51.8516 67.6517 51.7052C67.5052 51.5587 67.2678 51.5587 67.1213 51.7052L65 53.8265L62.8787 51.7052C62.7322 51.5587 62.4948 51.5587 62.3483 51.7052C62.2019 51.8516 62.2019 52.089 62.3483 52.2355L64.7348 54.622ZM64.625 34.3568V54.3568H65.375V34.3568H64.625Z" fill="black"/>
</svg>
