<svg width="41" height="40" viewBox="0 0 41 40" fill="none" xmlns="http://www.w3.org/2000/svg">
<g id="Component 232">
<path id="Group" d="M15.1605 30.5568L14.875 28.0443L18.1298 19.0793C18.4153 19.3457 18.7246 19.5694 19.0577 19.7502C19.3908 19.931 19.7477 20.069 20.1284 20.1642L16.9878 28.7866L15.1605 30.5568ZM27.152 30.5568L25.3247 28.7866L22.1841 20.1642C22.5648 20.069 22.9217 19.931 23.2548 19.7502C23.5879 19.5694 23.8972 19.3457 24.1827 19.0793L27.4375 28.0443L27.152 30.5568ZM21.1562 19.1364C20.2045 19.1364 19.3956 18.8033 18.7294 18.1371C18.0632 17.4709 17.7301 16.6619 17.7301 15.7102C17.7301 14.9679 17.9442 14.3065 18.3725 13.7259C18.8008 13.1454 19.348 12.7409 20.0142 12.5125V10H22.2983V12.5125C22.9645 12.7409 23.5117 13.1454 23.94 13.7259C24.3683 14.3065 24.5824 14.9679 24.5824 15.7102C24.5824 16.6619 24.2493 17.4709 23.5831 18.1371C22.9169 18.8033 22.108 19.1364 21.1562 19.1364ZM21.1562 16.8523C21.4798 16.8523 21.7511 16.7428 21.97 16.5239C22.1888 16.305 22.2983 16.0338 22.2983 15.7102C22.2983 15.3866 22.1888 15.1154 21.97 14.8965C21.7511 14.6776 21.4798 14.5682 21.1562 14.5682C20.8327 14.5682 20.5614 14.6776 20.3425 14.8965C20.1237 15.1154 20.0142 15.3866 20.0142 15.7102C20.0142 16.0338 20.1237 16.305 20.3425 16.5239C20.5614 16.7428 20.8327 16.8523 21.1562 16.8523Z" fill="#D73F3F"/>
</g>
</svg>
