<svg width="73" height="71" viewBox="0 0 73 71" fill="none" xmlns="http://www.w3.org/2000/svg">
<rect x="0.5" y="0.5" width="72" height="70" rx="35" fill="#D73F3F"/>
<path d="M36.5001 35.4583C34.6667 35.4583 33.1667 34.8749 32.0001 33.7083C30.8334 32.5416 30.2501 31.0416 30.2501 29.2083C30.2501 27.3749 30.8334 25.8749 32.0001 24.7083C33.1667 23.5416 34.6667 22.9583 36.5001 22.9583C38.3334 22.9583 39.8334 23.5416 41.0001 24.7083C42.1667 25.8749 42.7501 27.3749 42.7501 29.2083C42.7501 31.0416 42.1667 32.5416 41.0001 33.7083C39.8334 34.8749 38.3334 35.4583 36.5001 35.4583ZM23.1667 48.8333V44.9166C23.1667 43.861 23.4306 42.9583 23.9584 42.2083C24.4862 41.4583 25.1667 40.8888 26.0001 40.4999C27.8612 39.6666 29.6459 39.0416 31.3542 38.6249C33.0626 38.2083 34.7779 37.9999 36.5001 37.9999C38.2223 37.9999 39.9306 38.2152 41.6251 38.6458C43.3195 39.0763 45.0973 39.6944 46.9584 40.4999C47.8195 40.8888 48.514 41.4583 49.0417 42.2083C49.5695 42.9583 49.8334 43.861 49.8334 44.9166V48.8333H23.1667ZM25.6667 46.3333H47.3334V44.9166C47.3334 44.4721 47.2015 44.0485 46.9376 43.6458C46.6737 43.243 46.3473 42.9444 45.9584 42.7499C44.1806 41.8888 42.5556 41.2985 41.0834 40.9791C39.6112 40.6596 38.0834 40.4999 36.5001 40.4999C34.9167 40.4999 33.3751 40.6596 31.8751 40.9791C30.3751 41.2985 28.7501 41.8888 27.0001 42.7499C26.6112 42.9444 26.2917 43.243 26.0417 43.6458C25.7917 44.0485 25.6667 44.4721 25.6667 44.9166V46.3333ZM36.5001 32.9583C37.5834 32.9583 38.4792 32.6041 39.1876 31.8958C39.8959 31.1874 40.2501 30.2916 40.2501 29.2083C40.2501 28.1249 39.8959 27.2291 39.1876 26.5208C38.4792 25.8124 37.5834 25.4583 36.5001 25.4583C35.4167 25.4583 34.5209 25.8124 33.8126 26.5208C33.1042 27.2291 32.7501 28.1249 32.7501 29.2083C32.7501 30.2916 33.1042 31.1874 33.8126 31.8958C34.5209 32.6041 35.4167 32.9583 36.5001 32.9583Z" fill="white"/>
</svg>
