<svg width="80" height="80" viewBox="0 0 80 80" fill="none" xmlns="http://www.w3.org/2000/svg">
<rect width="80" height="80" fill="white"/>
<path d="M48.7652 19.7145C48.9116 19.5681 48.9116 19.3306 48.7652 19.1842L46.3787 16.7977C46.2322 16.6512 45.9948 16.6512 45.8483 16.7977C45.7019 16.9441 45.7019 17.1816 45.8483 17.328L47.9697 19.4493L45.8483 21.5707C45.7019 21.7171 45.7019 21.9545 45.8483 22.101C45.9948 22.2474 46.2322 22.2474 46.3787 22.101L48.7652 19.7145ZM32.5 19.8243H48.5V19.0743H32.5V19.8243Z" fill="black"/>
<path d="M40.4991 47.9858C41.3075 47.9858 41.9651 47.3282 41.9651 46.5199C41.9651 45.7116 41.3075 45.054 40.4991 45.054C39.6908 45.054 39.0332 45.7116 39.0332 46.5199C39.0332 47.3282 39.6908 47.9858 40.4991 47.9858ZM40.4991 46.0548C40.7556 46.0548 40.9642 46.2635 40.9642 46.5199C40.9642 46.7764 40.7556 46.985 40.4991 46.985C40.2427 46.985 40.0341 46.7764 40.0341 46.5199C40.0341 46.2635 40.2427 46.0548 40.4991 46.0548Z" fill="#D73F37"/>
<path d="M55.6516 36.4034L54.6297 36.1945V33.6202H52.8519V32.2508H54.7218C54.9982 32.2508 55.2223 32.0267 55.2223 31.7503C55.2223 31.4739 54.9982 31.2499 54.7218 31.2499H52.8519V30.9498C52.8519 30.6734 52.6279 30.4493 52.3515 30.4493C52.0751 30.4493 51.8511 30.6734 51.8511 30.9498V31.2499H49.9812C49.7048 31.2499 49.4808 31.4739 49.4808 31.7503C49.4808 32.0267 49.7048 32.2508 49.9812 32.2508H51.8511V33.6202H50.0733V35.4386C46.9744 35.0185 43.7927 34.8054 40.6068 34.8054H40.3932C37.2066 34.8054 34.0241 35.0186 30.9266 35.4386V33.6202H29.1489V32.2508H31.0188C31.2952 32.2508 31.5192 32.0267 31.5192 31.7503C31.5192 31.4739 31.2952 31.2499 31.0188 31.2499H29.1489V30.9498C29.1489 30.6734 28.9249 30.4493 28.6485 30.4493C28.3721 30.4493 28.1481 30.6734 28.1481 30.9498V31.2499H26.2782C26.0018 31.2499 25.7777 31.4739 25.7777 31.7503C25.7777 32.0267 26.0018 32.2508 26.2782 32.2508H28.1481V33.6202H26.3703V36.1985L25.3532 36.4025C24.5691 36.5548 24 37.2498 24 38.0551V38.2687C24 39.1981 24.7561 39.9542 25.6856 39.9542H29.1285C29.5075 39.9542 29.8797 39.9866 30.2426 40.0488L28.0263 42.3074C27.3207 43.0192 26.9629 43.985 26.9629 45.1782V49.5276C26.9629 49.804 27.1869 50.028 27.4633 50.028C27.7397 50.028 27.9637 49.804 27.9637 49.5276V45.1782C27.9637 44.2455 28.2167 43.5369 28.7389 43.0102L31.3578 40.3413C31.7108 40.4654 32.0616 40.6256 32.4042 40.8202L32.4578 40.8533C32.7243 41.0069 32.9738 41.1357 33.2202 41.2471C34.7055 41.952 36.358 42.3246 37.9992 42.3246H39.9995V43.0975H38.5087C37.7196 43.0975 37.0777 43.7394 37.0777 44.5285V48.5112C37.0777 49.3002 37.7196 49.9421 38.5087 49.9421H42.4913C43.2804 49.9421 43.9223 49.3002 43.9223 48.5112V44.5285C43.9223 43.7394 43.2804 43.0975 42.4913 43.0975H41.0004V42.3246H43.0008C44.5936 42.3246 46.1314 41.9931 47.5714 41.3392C47.9004 41.196 48.2262 41.033 48.5397 40.8547L48.596 40.8201C48.8893 40.6529 49.1954 40.5083 49.5086 40.3876L52.14 43.0136C52.718 43.5916 53.0363 44.3602 53.0363 45.1782V49.5276C53.0363 49.804 53.2603 50.028 53.5367 50.028C53.8131 50.028 54.0371 49.804 54.0371 49.5276V45.1782C54.0371 44.0929 53.6147 43.0729 52.8474 42.3055L50.6109 40.0736C51.0228 39.9948 51.4442 39.9542 51.8715 39.9542H55.3144C56.2439 39.9542 57 39.1981 57 38.2687V38.0551C57 37.2498 56.4309 36.5548 55.6516 36.4034ZM42.9214 44.5285V48.5112C42.9214 48.7483 42.7285 48.9412 42.4913 48.9412H38.5087C38.2715 48.9412 38.0786 48.7483 38.0786 48.5112V44.5285C38.0786 44.2913 38.2715 44.0984 38.5087 44.0984H42.4913C42.7285 44.0984 42.9214 44.2913 42.9214 44.5285ZM53.6288 34.6211V36.0034C52.7926 35.8475 51.937 35.7053 51.0742 35.5795V34.6211H53.6288ZM29.9257 34.6211V35.5795C29.0617 35.7055 28.2062 35.8477 27.3712 36.0034V34.6211H29.9257ZM55.9991 38.2687C55.9991 38.6462 55.692 38.9534 55.3144 38.9534H51.8715C51.0571 38.9534 50.2595 39.0796 49.4989 39.3283C49.4953 39.3294 49.4917 39.3306 49.4881 39.3317C49.4851 39.3326 49.4822 39.3334 49.4792 39.3344C48.9997 39.4942 48.5327 39.7033 48.0913 39.9558L48.0364 39.9895C47.7551 40.1491 47.4631 40.295 47.1683 40.4231L47.1608 40.4264C45.8507 41.0218 44.451 41.3237 43.0008 41.3237H37.9992C36.504 41.3237 34.9984 40.9838 33.6452 40.3409L33.6362 40.3367C33.421 40.2396 33.2013 40.1262 32.9648 39.9903L32.908 39.9553C32.3971 39.6642 31.8679 39.4379 31.3351 39.2825C30.6337 39.0641 29.8914 38.9534 29.1285 38.9534H25.6856C25.308 38.9534 25.0009 38.6462 25.0009 38.2687V38.0551C25.0009 37.728 25.2293 37.446 25.5489 37.384L26.615 37.166L26.9908 37.0948C28.1313 36.8709 29.3163 36.6731 30.5152 36.5065C33.7412 36.0419 37.0647 35.8062 40.3932 35.8062H40.6068C43.9353 35.8062 47.2588 36.0419 50.4872 36.5068C51.6837 36.6731 52.8686 36.8709 54.0115 37.0952L55.4559 37.3849C55.7707 37.446 55.9991 37.728 55.9991 38.0551V38.2687Z" fill="#D73F37"/>
<path d="M43.8214 38.2498H37.1772C36.9008 38.2498 36.6768 38.4738 36.6768 38.7502C36.6768 39.0266 36.9008 39.2506 37.1772 39.2506H43.8214C44.0978 39.2506 44.3218 39.0266 44.3218 38.7502C44.3218 38.4738 44.0978 38.2498 43.8214 38.2498Z" fill="#D73F37"/>
<path d="M32.2348 60.7629C32.0884 60.9094 32.0884 61.1468 32.2348 61.2932L34.6213 63.6797C34.7678 63.8262 35.0052 63.8262 35.1517 63.6797C35.2981 63.5333 35.2981 63.2958 35.1517 63.1494L33.0303 61.0281L35.1517 58.9068C35.2981 58.7603 35.2981 58.5229 35.1517 58.3764C35.0052 58.23 34.7678 58.23 34.6213 58.3764L32.2348 60.7629ZM32.5 61.4031H48.5V60.6531H32.5V61.4031Z" fill="black"/>
</svg>
