<svg width="80" height="80" viewBox="0 0 80 80" fill="none" xmlns="http://www.w3.org/2000/svg">
<rect width="80" height="80" fill="white"/>
<path d="M16.2652 35.0916C16.1187 34.9452 15.8813 34.9452 15.7348 35.0916L13.3483 37.4781C13.2019 37.6246 13.2019 37.862 13.3483 38.0085C13.4948 38.1549 13.7322 38.1549 13.8787 38.0085L16 35.8871L18.1213 38.0085C18.2678 38.1549 18.5052 38.1549 18.6517 38.0085C18.7981 37.862 18.7981 37.6246 18.6517 37.4781L16.2652 35.0916ZM15.625 35.3568V49.3568H16.375V35.3568H15.625Z" fill="black"/>
<path d="M40.4991 47.3146C41.3075 47.3146 41.9651 46.657 41.9651 45.8487C41.9651 45.0403 41.3075 44.3827 40.4991 44.3827C39.6908 44.3827 39.0332 45.0403 39.0332 45.8487C39.0332 46.657 39.6908 47.3146 40.4991 47.3146ZM40.4991 45.3836C40.7556 45.3836 40.9642 45.5922 40.9642 45.8487C40.9642 46.1051 40.7556 46.3137 40.4991 46.3137C40.2427 46.3137 40.0341 46.1051 40.0341 45.8487C40.0341 45.5922 40.2427 45.3836 40.4991 45.3836Z" fill="#D73F37"/>
<path d="M55.6516 35.7321L54.6297 35.5232V32.9489H52.8519V31.5795H54.7218C54.9982 31.5795 55.2223 31.3555 55.2223 31.0791C55.2223 30.8027 54.9982 30.5786 54.7218 30.5786H52.8519V30.2785C52.8519 30.0021 52.6279 29.7781 52.3515 29.7781C52.0751 29.7781 51.8511 30.0021 51.8511 30.2785V30.5786H49.9812C49.7048 30.5786 49.4808 30.8027 49.4808 31.0791C49.4808 31.3555 49.7048 31.5795 49.9812 31.5795H51.8511V32.9489H50.0733V34.7673C46.9744 34.3472 43.7927 34.1341 40.6068 34.1341H40.3932C37.2066 34.1341 34.0241 34.3473 30.9266 34.7673V32.9489H29.1489V31.5795H31.0188C31.2952 31.5795 31.5192 31.3555 31.5192 31.0791C31.5192 30.8027 31.2952 30.5786 31.0188 30.5786H29.1489V30.2785C29.1489 30.0021 28.9249 29.7781 28.6485 29.7781C28.3721 29.7781 28.1481 30.0021 28.1481 30.2785V30.5786H26.2782C26.0018 30.5786 25.7777 30.8027 25.7777 31.0791C25.7777 31.3555 26.0018 31.5795 26.2782 31.5795H28.1481V32.9489H26.3703V35.5272L25.3532 35.7312C24.5691 35.8835 24 36.5785 24 37.3839V37.5974C24 38.5268 24.7561 39.283 25.6856 39.283H29.1285C29.5075 39.283 29.8797 39.3154 30.2426 39.3775L28.0263 41.6361C27.3207 42.3479 26.9629 43.3137 26.9629 44.5069V48.8563C26.9629 49.1327 27.1869 49.3568 27.4633 49.3568C27.7397 49.3568 27.9637 49.1327 27.9637 48.8563V44.5069C27.9637 43.5742 28.2167 42.8656 28.7389 42.339L31.3578 39.67C31.7108 39.7942 32.0616 39.9544 32.4042 40.1489L32.4578 40.182C32.7243 40.3356 32.9738 40.4644 33.2202 40.5758C34.7055 41.2807 36.358 41.6533 37.9992 41.6533H39.9995V42.4262H38.5087C37.7196 42.4262 37.0777 43.0682 37.0777 43.8572V47.8399C37.0777 48.6289 37.7196 49.2708 38.5087 49.2708H42.4913C43.2804 49.2708 43.9223 48.6289 43.9223 47.8399V43.8572C43.9223 43.0682 43.2804 42.4262 42.4913 42.4262H41.0004V41.6533H43.0008C44.5936 41.6533 46.1314 41.3218 47.5714 40.6679C47.9004 40.5248 48.2262 40.3617 48.5397 40.1834L48.596 40.1488C48.8893 39.9816 49.1954 39.837 49.5086 39.7163L52.14 42.3424C52.718 42.9203 53.0363 43.689 53.0363 44.5069V48.8563C53.0363 49.1327 53.2603 49.3568 53.5367 49.3568C53.8131 49.3568 54.0371 49.1327 54.0371 48.8563V44.5069C54.0371 43.4217 53.6147 42.4016 52.8474 41.6343L50.6109 39.4023C51.0228 39.3235 51.4442 39.283 51.8715 39.283H55.3144C56.2439 39.283 57 38.5268 57 37.5974V37.3839C57 36.5785 56.4309 35.8835 55.6516 35.7321ZM42.9214 43.8572V47.8399C42.9214 48.077 42.7285 48.2699 42.4913 48.2699H38.5087C38.2715 48.2699 38.0786 48.077 38.0786 47.8399V43.8572C38.0786 43.6201 38.2715 43.4271 38.5087 43.4271H42.4913C42.7285 43.4271 42.9214 43.6201 42.9214 43.8572ZM53.6288 33.9498V35.3321C52.7926 35.1762 51.937 35.034 51.0742 34.9082V33.9498H53.6288ZM29.9257 33.9498V34.9082C29.0617 35.0342 28.2062 35.1764 27.3712 35.3321V33.9498H29.9257ZM55.9991 37.5974C55.9991 37.975 55.692 38.2821 55.3144 38.2821H51.8715C51.0571 38.2821 50.2595 38.4083 49.4989 38.6571C49.4953 38.6581 49.4917 38.6593 49.4881 38.6604C49.4851 38.6614 49.4822 38.6622 49.4792 38.6631C48.9997 38.8229 48.5327 39.032 48.0913 39.2845L48.0364 39.3182C47.7551 39.4778 47.4631 39.6237 47.1683 39.7518L47.1608 39.7552C45.8507 40.3506 44.451 40.6524 43.0008 40.6524H37.9992C36.504 40.6524 34.9984 40.3126 33.6452 39.6697L33.6362 39.6655C33.421 39.5684 33.2013 39.455 32.9648 39.319L32.908 39.2841C32.3971 38.9929 31.8679 38.7666 31.3351 38.6113C30.6337 38.3928 29.8914 38.2821 29.1285 38.2821H25.6856C25.308 38.2821 25.0009 37.975 25.0009 37.5974V37.3839C25.0009 37.0567 25.2293 36.7748 25.5489 36.7127L26.615 36.4947L26.9908 36.4235C28.1313 36.1997 29.3163 36.0019 30.5152 35.8352C33.7412 35.3706 37.0647 35.135 40.3932 35.135H40.6068C43.9353 35.135 47.2588 35.3706 50.4872 35.8356C51.6837 36.0019 52.8686 36.1997 54.0115 36.424L55.4559 36.7136C55.7707 36.7748 55.9991 37.0567 55.9991 37.3839V37.5974Z" fill="#D73F37"/>
<path d="M43.8214 37.5785H37.1772C36.9008 37.5785 36.6768 37.8025 36.6768 38.0789C36.6768 38.3553 36.9008 38.5794 37.1772 38.5794H43.8214C44.0978 38.5794 44.3218 38.3553 44.3218 38.0789C44.3218 37.8025 44.0978 37.5785 43.8214 37.5785Z" fill="#D73F37"/>
<path d="M64.7348 49.622C64.8813 49.7684 65.1187 49.7684 65.2652 49.622L67.6517 47.2355C67.7981 47.089 67.7981 46.8516 67.6517 46.7052C67.5052 46.5587 67.2678 46.5587 67.1213 46.7052L65 48.8265L62.8787 46.7052C62.7322 46.5587 62.4948 46.5587 62.3483 46.7052C62.2019 46.8516 62.2019 47.089 62.3483 47.2355L64.7348 49.622ZM64.625 35.3568V49.3568H65.375V35.3568H64.625Z" fill="black"/>
</svg>
