<svg width="20" height="20" viewBox="0 0 20 20" fill="none" xmlns="http://www.w3.org/2000/svg">
<g id="uil:folder-upload">
<path id="Vector" d="M10.1317 8.99185C10.0559 8.91598 9.96649 8.85651 9.86864 8.81685C9.67458 8.7335 9.45691 8.7335 9.26284 8.81685C9.165 8.85651 9.07561 8.91598 8.9998 8.99185L7.4056 10.6585C7.2555 10.8154 7.17118 11.0283 7.17118 11.2502C7.17118 11.4721 7.2555 11.6849 7.4056 11.8418C7.55569 11.9988 7.75927 12.0869 7.97154 12.0869C8.18381 12.0869 8.38738 11.9988 8.53748 11.8418L8.76864 11.5918V13.7502C8.76864 13.9712 8.85262 14.1832 9.00211 14.3394C9.15159 14.4957 9.35434 14.5835 9.56574 14.5835C9.77715 14.5835 9.97989 14.4957 10.1294 14.3394C10.2789 14.1832 10.3628 13.9712 10.3628 13.7502V11.5918L10.594 11.8418C10.6681 11.92 10.7563 11.9819 10.8534 12.0243C10.9505 12.0666 11.0547 12.0883 11.1599 12.0883C11.2652 12.0883 11.3694 12.0666 11.4665 12.0243C11.5636 11.9819 11.6518 11.92 11.7259 11.8418C11.8006 11.7644 11.8599 11.6722 11.9004 11.5707C11.9408 11.4691 11.9617 11.3602 11.9617 11.2502C11.9617 11.1402 11.9408 11.0312 11.9004 10.9297C11.8599 10.8282 11.8006 10.736 11.7259 10.6585L10.1317 8.99185ZM15.1455 4.58351H10.1397L9.88458 3.75018C9.71922 3.26121 9.4125 2.8381 9.00689 2.53948C8.60129 2.24086 8.1169 2.08152 7.62081 2.08351H3.98603C3.35182 2.08351 2.74358 2.34691 2.29512 2.81575C1.84667 3.28459 1.59473 3.92047 1.59473 4.58351V15.4168C1.59473 16.0799 1.84667 16.7158 2.29512 17.1846C2.74358 17.6535 3.35182 17.9168 3.98603 17.9168H15.1455C15.7797 17.9168 16.3879 17.6535 16.8364 17.1846C17.2848 16.7158 17.5368 16.0799 17.5368 15.4168V7.08351C17.5368 6.42047 17.2848 5.78459 16.8364 5.31575C16.3879 4.84691 15.7797 4.58351 15.1455 4.58351ZM15.9426 15.4168C15.9426 15.6379 15.8586 15.8498 15.7091 16.0061C15.5596 16.1624 15.3569 16.2502 15.1455 16.2502H3.98603C3.77463 16.2502 3.57188 16.1624 3.4224 16.0061C3.27291 15.8498 3.18893 15.6379 3.18893 15.4168V4.58351C3.18893 4.3625 3.27291 4.15054 3.4224 3.99426C3.57188 3.83798 3.77463 3.75018 3.98603 3.75018H7.62081C7.78792 3.74973 7.95094 3.8042 8.08682 3.90588C8.22271 4.00757 8.32459 4.15133 8.37806 4.31685L8.8085 5.68351C8.86197 5.84903 8.96385 5.99279 9.09973 6.09448C9.23562 6.19617 9.39863 6.25063 9.56574 6.25018H15.1455C15.3569 6.25018 15.5596 6.33798 15.7091 6.49426C15.8586 6.65054 15.9426 6.8625 15.9426 7.08351V15.4168Z" fill="#9B9999"/>
</g>
</svg>
